<svg width="51" height="50" viewBox="0 0 51 50" fill="none" xmlns="http://www.w3.org/2000/svg">
<path d="M25.5003 2.60419C26.3633 2.60419 27.0628 3.30374 27.0628 4.16669V4.6905C27.2946 4.69401 27.4921 4.70158 27.6766 4.71789C31.4477 5.05137 34.4371 8.04072 34.7706 11.8119C34.801 12.1565 34.801 12.547 34.8009 13.1205L34.8009 15.6688C34.8009 23.7298 28.6675 30.3582 20.8128 31.1419V35.4168C20.8128 40.3068 24.777 44.271 29.667 44.271H31.5052C34.4175 44.271 36.9189 42.4962 37.9799 39.963C38.0628 39.765 38.1207 39.5394 38.1565 39.2806C35.6478 38.4682 33.8337 36.1126 33.8337 33.3334C33.8337 29.8816 36.6319 27.0834 40.0837 27.0834C43.5354 27.0834 46.3337 29.8816 46.3337 33.3334C46.3337 36.3756 44.1601 38.9101 41.2812 39.4687C41.2237 40.0177 41.1018 40.5984 40.8623 41.1703C39.3319 44.8242 35.7207 47.396 31.5052 47.396H29.667C23.0511 47.396 17.6878 42.0327 17.6878 35.4168V31.1447C9.50388 30.3589 3.1045 23.4635 3.1045 15.0735L3.1045 13.1207C3.10443 12.5471 3.10439 12.1566 3.13487 11.8119C3.46835 8.04072 6.4577 5.05137 10.2288 4.71789C10.5532 4.68921 10.9181 4.68755 11.4378 4.68751V4.16669C11.4378 3.30374 12.1374 2.60419 13.0003 2.60419C13.8633 2.60419 14.5628 3.30374 14.5628 4.16669V8.33335C14.5628 9.1963 13.8633 9.89585 13.0003 9.89585C12.1374 9.89585 11.4378 9.1963 11.4378 8.33335V7.81257C10.8891 7.81294 10.6752 7.81561 10.5041 7.83074C8.24142 8.03083 6.44781 9.82444 6.24772 12.0871C6.23103 12.2759 6.2295 12.5167 6.2295 13.2019V15.0735C6.2295 22.2648 12.0591 28.0944 19.2503 28.0944C26.1128 28.0944 31.6759 22.5312 31.6759 15.6688V13.2019C31.6759 12.5167 31.6744 12.2759 31.6577 12.0871C31.4576 9.82444 29.664 8.03083 27.4013 7.83074C27.3132 7.82295 27.2137 7.81846 27.0628 7.81589V8.33335C27.0628 9.1963 26.3633 9.89585 25.5003 9.89585C24.6374 9.89585 23.9378 9.1963 23.9378 8.33335V4.16669C23.9378 3.30374 24.6374 2.60419 25.5003 2.60419Z" fill="#AEC6D3"/>
</svg>
