<svg width="51" height="50" viewBox="0 0 51 50" fill="none" xmlns="http://www.w3.org/2000/svg">
<path d="M25.4998 2.60416C26.3628 2.60416 27.0623 3.30372 27.0623 4.16666V4.69048C27.2941 4.69398 27.4917 4.70155 27.6761 4.71786C31.4472 5.05134 34.4366 8.04069 34.7701 11.8118C34.8006 12.1565 34.8005 12.547 34.8004 13.1205L34.8004 15.6688C34.8004 23.7297 28.667 30.3582 20.8123 31.1418V35.4168C20.8123 40.3068 24.7765 44.2709 29.6665 44.2709H31.5047C34.417 44.2709 36.9184 42.4961 37.9794 39.963C38.0623 39.765 38.1203 39.5394 38.156 39.2806C35.6473 38.4682 33.8332 36.1126 33.8332 33.3333C33.8332 29.8815 36.6314 27.0833 40.0832 27.0833C43.535 27.0833 46.3332 29.8815 46.3332 33.3333C46.3332 36.3755 44.1596 38.9101 41.2807 39.4687C41.2233 40.0177 41.1014 40.5983 40.8618 41.1703C39.3314 44.8242 35.7202 47.3959 31.5047 47.3959H29.6665C23.0506 47.3959 17.6873 42.0327 17.6873 35.4168V31.1447C9.50339 30.3588 3.10402 23.4635 3.10402 15.0735L3.10401 13.1207C3.10395 12.5471 3.1039 12.1565 3.13438 11.8118C3.46786 8.04069 6.45721 5.05134 10.2283 4.71786C10.5527 4.68919 10.9176 4.68753 11.4373 4.68749V4.16666C11.4373 3.30372 12.1369 2.60416 12.9998 2.60416C13.8628 2.60416 14.5623 3.30372 14.5623 4.16666V8.33333C14.5623 9.19628 13.8628 9.89583 12.9998 9.89583C12.1369 9.89583 11.4373 9.19628 11.4373 8.33333V7.81255C10.8886 7.81292 10.6747 7.81559 10.5036 7.83072C8.24093 8.0308 6.44732 9.82441 6.24724 12.0871C6.23055 12.2758 6.22901 12.5167 6.22901 13.2019V15.0735C6.22901 22.2647 12.0586 28.0944 19.2498 28.0944C26.1123 28.0944 31.6754 22.5312 31.6754 15.6688V13.2019C31.6754 12.5167 31.6739 12.2758 31.6572 12.0871C31.4571 9.82441 29.6635 8.0308 27.4008 7.83072C27.3127 7.82292 27.2132 7.81843 27.0623 7.81587V8.33333C27.0623 9.19628 26.3628 9.89583 25.4998 9.89583C24.6369 9.89583 23.9373 9.19628 23.9373 8.33333V4.16666C23.9373 3.30372 24.6369 2.60416 25.4998 2.60416Z" fill="#0077B6"/>
</svg>
