<svg width="500" height="500" viewBox="0 0 500 500" fill="none" xmlns="http://www.w3.org/2000/svg">
<path d="M423.72 160.48C423.72 160.48 406.85 92.82 304.72 50.15C202.59 7.48003 111.22 47 90.3901 97C69.5601 147 91.3901 174 77.4901 216.7C63.5901 259.4 -7.81987 313.48 21.0001 379.06C49.8201 444.64 184.68 463.37 293.81 449.84C402.94 436.31 488.2 286.42 423.72 160.48Z" fill="#0077B6"/>
<path opacity="0.7" d="M423.72 160.48C423.72 160.48 406.85 92.82 304.72 50.15C202.59 7.48003 111.22 47 90.3901 97C69.5601 147 91.3901 174 77.4901 216.7C63.5901 259.4 -7.81987 313.48 21.0001 379.06C49.8201 444.64 184.68 463.37 293.81 449.84C402.94 436.31 488.2 286.42 423.72 160.48Z" fill="white"/>
<path d="M158 106.58H75C72.3478 106.58 69.8043 107.634 67.9289 109.509C66.0536 111.384 65 113.928 65 116.58V147.58C65 150.232 66.0536 152.776 67.9289 154.651C69.8043 156.526 72.3478 157.58 75 157.58H157.5L168 171.58V116.58C168 113.928 166.946 111.384 165.071 109.509C163.196 107.634 160.652 106.58 158 106.58Z" fill="#263238"/>
<path d="M83.0698 140.71H80.0698V121.71H83.0698V129.84H86.4498V121.71H89.4498V140.71H86.4498V132.58H83.0698V140.71Z" fill="#0077B6"/>
<path d="M91.6602 121.74H94.6602V140.74H91.6602V121.74Z" fill="#0077B6"/>
<path d="M100.14 121.74H109.35V124.45H106.23V140.71H103.23V124.45H100.12L100.14 121.74Z" fill="#0077B6"/>
<path d="M113.63 140.71H110.63V121.71H113.63V129.84H117V121.71H120V140.71H117V132.58H113.61L113.63 140.71Z" fill="#0077B6"/>
<path d="M125.2 129.73H129.29V132.44H125.2V138H130.35V140.71H122.22V121.71H130.35V124.42H125.2V129.73Z" fill="#0077B6"/>
<path d="M138.42 140.71C138.175 139.959 138.084 139.167 138.15 138.38V135.38C138.15 133.62 137.56 132.97 136.15 132.97H135.15V140.69H132.15V121.69H136.65C139.74 121.69 141.07 123.13 141.07 126.05V127.54C141.07 129.49 140.44 130.77 139.07 131.39C140.56 132.02 141.07 133.45 141.07 135.39V138.32C141.016 139.101 141.128 139.885 141.4 140.62L138.42 140.71ZM135.17 124.45V130.28H136.34C137.45 130.28 138.13 129.79 138.13 128.28V126.4C138.13 125.05 137.67 124.4 136.61 124.4L135.17 124.45Z" fill="#0077B6"/>
<path d="M146.07 129.73H150.16V132.44H146.07V138H151.21V140.71H143.08V121.71H151.21V124.42H146.07V129.73Z" fill="#0077B6"/>
<path d="M153.44 136.51L153.06 129.65V121.74H156.06V129.65L155.68 136.51H153.44ZM155.98 137.84V140.71H153.11V137.84H155.98Z" fill="#0077B6"/>
<path d="M298 107.58C298 107.58 294.3 106.27 293.46 109.58C292.62 112.89 297.52 114.12 298.12 114.12C298.72 114.12 299.67 113.29 299.07 111.38C298.47 109.47 298 107.58 298 107.58Z" fill="#263238" stroke="#263238" stroke-linecap="round" stroke-linejoin="round"/>
<path d="M319 99.46C319 99.46 318.64 104.24 318.64 106.15C318.64 108.06 320.64 108.78 321.64 108.78C322.64 108.78 323.08 111.05 322.48 113.44C321.88 115.83 319.85 117.26 314.95 117.26C310.05 117.26 307.07 115.11 306.95 113.56C306.83 112.01 308.02 105.31 310.06 103.56C312.1 101.81 319 99.46 319 99.46Z" fill="#263238" stroke="#263238" stroke-linecap="round" stroke-linejoin="round"/>
<path d="M301.11 114.15V116C301.111 116.291 301.195 116.576 301.353 116.821C301.511 117.065 301.735 117.259 302 117.38C302.859 117.743 303.771 117.963 304.7 118.03C306.573 118.03 308.423 117.621 310.12 116.83C310.355 116.73 310.556 116.562 310.696 116.349C310.837 116.136 310.911 115.886 310.91 115.63V113.7C310.908 113.582 310.877 113.467 310.82 113.364C310.763 113.261 310.682 113.174 310.583 113.11C310.484 113.045 310.371 113.006 310.254 112.996C310.137 112.986 310.019 113.004 309.91 113.05L309.52 113.25C309.52 113.25 303.62 114 301.11 114.15Z" fill="#0077B6" stroke="#263238" stroke-linecap="round" stroke-linejoin="round"/>
<path d="M298.49 98.5C297.836 101.127 297.395 103.802 297.17 106.5C296.81 110.92 297.17 114.98 298.96 115.1C300.188 115.102 301.391 114.755 302.43 114.1C302.43 114.1 306.61 114.58 308.04 113.87L309.48 113.15L310.55 106.15C310.55 106.15 310.67 95.28 308.64 94.56C306.61 93.84 298.49 98.5 298.49 98.5Z" fill="white" stroke="#263238" stroke-linecap="round" stroke-linejoin="round"/>
<path d="M301.71 103.4L300.76 105.91C300.76 105.91 298.84 106.39 299.08 107.34C299.32 108.29 300.59 108.15 300.59 108.15" stroke="#263238" stroke-linecap="round" stroke-linejoin="round"/>
<path d="M304.78 104.49C304.59 105.01 304.2 105.35 303.93 105.25C303.66 105.15 303.58 104.64 303.78 104.11C303.98 103.58 304.36 103.24 304.64 103.35C304.92 103.46 305 104 304.78 104.49Z" fill="#263238"/>
<path d="M300.28 103.28C300.08 103.81 299.7 104.15 299.42 104.05C299.14 103.95 299.08 103.43 299.27 102.91C299.46 102.39 299.85 102.04 300.13 102.14C300.41 102.24 300.47 102.76 300.28 103.28Z" fill="#263238"/>
<path d="M303.86 101.13C303.86 101.13 306.13 100.53 306.37 102.69" stroke="#263238" stroke-linecap="round" stroke-linejoin="round"/>
<path d="M300.88 100.53C300.88 100.53 298.88 99.82 298.25 101.53" stroke="#263238" stroke-linecap="round" stroke-linejoin="round"/>
<path d="M302.43 114.15L305.65 112.84" stroke="#263238" stroke-linecap="round" stroke-linejoin="round"/>
<path d="M300 93C300 93 296.18 88.46 293.31 91.8C290.44 95.14 291.31 100.17 296.42 100.41C301.53 100.65 307.29 95.63 307.29 95.63C307.29 95.63 306.69 102.2 308.12 104.47C309.55 106.74 310.63 108.29 310.63 108.29C310.63 108.29 312.63 109.6 316.01 106.98C319.39 104.36 320.19 97.98 317.8 93.71C315.41 89.44 311.23 87.02 306.21 88.71C301.19 90.4 300 93 300 93Z" fill="#263238" stroke="#263238" stroke-linecap="round" stroke-linejoin="round"/>
<path d="M308.28 108.18C308.28 108.18 312.58 104.24 312.58 106.51C312.58 108.78 310.58 110.81 309 110.33" fill="white"/>
<path d="M308.28 108.18C308.28 108.18 312.58 104.24 312.58 106.51C312.58 108.78 310.58 110.81 309 110.33" stroke="#263238" stroke-linecap="round" stroke-linejoin="round"/>
<path d="M299.08 110C299.645 110.407 300.324 110.626 301.02 110.626C301.716 110.626 302.395 110.407 302.96 110" stroke="#263238" stroke-linecap="round" stroke-linejoin="round"/>
<path d="M321.271 117.551C328.907 109.425 328.51 96.6476 320.384 89.0116C312.259 81.3756 299.481 81.7727 291.845 89.8985C284.209 98.0243 284.606 110.802 292.732 118.438C300.858 126.074 313.635 125.677 321.271 117.551Z" stroke="#263238" stroke-linecap="round" stroke-linejoin="round"/>
<path d="M443.955 267.967C455.431 265.284 462.559 253.806 459.876 242.329C457.193 230.853 445.714 223.725 434.238 226.408C422.762 229.092 415.634 240.57 418.317 252.046C421 263.523 432.479 270.651 443.955 267.967Z" stroke="#263238" stroke-linecap="round" stroke-linejoin="round"/>
<path d="M446.38 253.48C446.38 254.884 445.964 256.257 445.184 257.425C444.403 258.592 443.295 259.502 441.997 260.04C440.7 260.577 439.272 260.718 437.895 260.444C436.518 260.17 435.253 259.493 434.26 258.5C433.267 257.508 432.591 256.242 432.317 254.865C432.043 253.488 432.183 252.06 432.721 250.763C433.258 249.466 434.168 248.357 435.336 247.577C436.503 246.796 437.876 246.38 439.28 246.38C441.163 246.38 442.969 247.128 444.301 248.46C445.632 249.791 446.38 251.597 446.38 253.48Z" fill="#0077B6" stroke="#263238" stroke-linecap="round" stroke-linejoin="round"/>
<path d="M449.43 258.21C450.962 256.298 451.922 253.993 452.201 251.559C452.479 249.125 452.065 246.662 451.004 244.454C449.944 242.246 448.281 240.382 446.208 239.078C444.135 237.773 441.735 237.081 439.285 237.081C436.836 237.081 434.436 237.773 432.362 239.078C430.289 240.382 428.626 242.246 427.566 244.454C426.506 246.662 426.091 249.125 426.369 251.559C426.648 253.993 427.608 256.298 429.14 258.21H449.43Z" fill="white" stroke="#263238" stroke-linecap="round" stroke-linejoin="round"/>
<path d="M444.35 254.53H433.89C433.279 254.53 432.673 254.409 432.107 254.175C431.542 253.941 431.028 253.598 430.595 253.165C430.163 252.732 429.819 252.219 429.585 251.653C429.351 251.088 429.23 250.482 429.23 249.87C429.229 249.258 429.349 248.651 429.582 248.085C429.816 247.519 430.159 247.005 430.592 246.572C431.025 246.139 431.54 245.796 432.106 245.562C432.672 245.328 433.278 245.209 433.89 245.21H444.35C444.963 245.209 445.569 245.328 446.135 245.562C446.701 245.796 447.216 246.139 447.649 246.572C448.082 247.005 448.425 247.519 448.658 248.085C448.892 248.651 449.012 249.258 449.01 249.87C449.01 251.106 448.52 252.291 447.646 253.165C446.772 254.039 445.586 254.53 444.35 254.53Z" fill="#0077B6" stroke="#263238" stroke-linecap="round" stroke-linejoin="round"/>
<path d="M431.37 249.49C431.584 248.89 431.975 248.369 432.491 247.994C433.007 247.62 433.623 247.411 434.26 247.394C434.897 247.376 435.525 247.552 436.06 247.898C436.595 248.243 437.014 248.742 437.26 249.33" stroke="#263238" stroke-width="2" stroke-linecap="round" stroke-linejoin="round"/>
<path d="M441.15 249.49C441.365 248.89 441.755 248.369 442.271 247.994C442.787 247.62 443.404 247.411 444.041 247.394C444.678 247.376 445.305 247.552 445.84 247.898C446.376 248.243 446.794 248.742 447.04 249.33" stroke="#263238" stroke-width="2" stroke-linecap="round" stroke-linejoin="round"/>
<path d="M437.57 251.65C437.617 252.09 437.825 252.496 438.153 252.792C438.482 253.088 438.908 253.251 439.35 253.251C439.792 253.251 440.219 253.088 440.547 252.792C440.876 252.496 441.084 252.09 441.13 251.65H437.57Z" fill="white" stroke="#263238" stroke-linecap="round" stroke-linejoin="round"/>
<path d="M456.09 252.39C455.912 252.39 455.735 252.355 455.57 252.286C455.405 252.218 455.255 252.118 455.129 251.992C455.002 251.865 454.902 251.715 454.834 251.55C454.766 251.385 454.73 251.209 454.73 251.03V247.94C454.73 247.761 454.766 247.585 454.834 247.42C454.902 247.255 455.002 247.105 455.129 246.978C455.255 246.852 455.405 246.752 455.57 246.684C455.735 246.615 455.912 246.58 456.09 246.58C456.269 246.58 456.446 246.615 456.611 246.684C456.776 246.752 456.926 246.852 457.052 246.978C457.178 247.105 457.279 247.255 457.347 247.42C457.415 247.585 457.45 247.761 457.45 247.94V251C457.454 251.181 457.422 251.361 457.356 251.53C457.289 251.698 457.19 251.852 457.063 251.981C456.936 252.111 456.785 252.213 456.618 252.284C456.451 252.354 456.272 252.39 456.09 252.39Z" fill="#263238" stroke="#263238" stroke-linecap="round" stroke-linejoin="round"/>
<path d="M422.11 252.39C421.931 252.39 421.755 252.355 421.59 252.286C421.425 252.218 421.275 252.118 421.148 251.992C421.022 251.865 420.922 251.715 420.854 251.55C420.785 251.385 420.75 251.209 420.75 251.03V247.94C420.75 247.761 420.785 247.585 420.854 247.42C420.922 247.255 421.022 247.105 421.148 246.978C421.275 246.852 421.425 246.752 421.59 246.684C421.755 246.615 421.931 246.58 422.11 246.58C422.289 246.58 422.465 246.615 422.63 246.684C422.795 246.752 422.945 246.852 423.072 246.978C423.198 247.105 423.298 247.255 423.366 247.42C423.435 247.585 423.47 247.761 423.47 247.94V251C423.474 251.181 423.442 251.361 423.375 251.53C423.309 251.698 423.209 251.852 423.082 251.981C422.956 252.111 422.804 252.213 422.637 252.284C422.47 252.354 422.291 252.39 422.11 252.39Z" fill="#263238" stroke="#263238" stroke-linecap="round" stroke-linejoin="round"/>
<path d="M424.62 248.13C424.243 248.127 423.882 247.976 423.615 247.708C423.349 247.44 423.2 247.078 423.2 246.7V244.46C423.196 242.033 423.921 239.661 425.28 237.65C425.378 237.479 425.51 237.329 425.668 237.211C425.826 237.093 426.007 237.009 426.199 236.965C426.391 236.92 426.59 236.916 426.784 236.952C426.978 236.987 427.162 237.063 427.325 237.174C427.489 237.285 427.627 237.428 427.732 237.595C427.838 237.761 427.907 237.948 427.937 238.143C427.966 238.338 427.955 238.537 427.904 238.728C427.853 238.918 427.763 239.096 427.64 239.25C426.6 240.788 426.046 242.603 426.05 244.46V246.7C426.05 247.079 425.9 247.443 425.631 247.711C425.363 247.979 424.999 248.13 424.62 248.13Z" fill="#263238"/>
<path d="M452.24 239.17C452.123 239.17 452.007 239.141 451.904 239.085C451.801 239.029 451.714 238.948 451.65 238.85C450.733 237.483 449.493 236.364 448.04 235.591C446.587 234.818 444.966 234.416 443.32 234.42H435.38C433.734 234.416 432.113 234.818 430.66 235.591C429.207 236.364 427.967 237.483 427.05 238.85C426.943 239.008 426.777 239.116 426.589 239.152C426.402 239.188 426.208 239.147 426.05 239.04C425.971 238.988 425.903 238.92 425.85 238.841C425.798 238.762 425.762 238.673 425.744 238.58C425.726 238.487 425.727 238.391 425.747 238.298C425.767 238.206 425.806 238.118 425.86 238.04C426.908 236.481 428.324 235.204 429.983 234.322C431.641 233.439 433.491 232.979 435.37 232.98H443.31C445.191 232.979 447.044 233.441 448.704 234.325C450.364 235.209 451.781 236.488 452.83 238.05C452.884 238.128 452.922 238.217 452.941 238.31C452.96 238.403 452.96 238.499 452.942 238.592C452.923 238.686 452.886 238.774 452.832 238.853C452.779 238.931 452.71 238.998 452.63 239.05C452.514 239.127 452.379 239.168 452.24 239.17Z" fill="#263238"/>
<path d="M454.08 248.13C453.701 248.13 453.337 247.979 453.069 247.711C452.801 247.443 452.65 247.079 452.65 246.7V244.46C452.654 242.603 452.1 240.788 451.06 239.25C450.941 239.095 450.854 238.917 450.807 238.727C450.759 238.538 450.75 238.34 450.782 238.147C450.813 237.954 450.884 237.77 450.99 237.605C451.096 237.44 451.234 237.299 451.396 237.19C451.559 237.081 451.742 237.007 451.934 236.971C452.127 236.936 452.324 236.94 452.515 236.984C452.706 237.028 452.885 237.111 453.043 237.227C453.2 237.344 453.332 237.491 453.43 237.66C454.786 239.668 455.508 242.037 455.5 244.46V246.7C455.5 247.078 455.351 247.44 455.085 247.708C454.819 247.976 454.458 248.127 454.08 248.13Z" fill="#263238"/>
<path d="M424.8 254.41C424.053 254.41 423.335 254.113 422.806 253.584C422.278 253.055 421.98 252.338 421.98 251.59V247.11C421.98 246.362 422.278 245.645 422.806 245.116C423.335 244.587 424.053 244.29 424.8 244.29C425.548 244.29 426.266 244.587 426.794 245.116C427.323 245.645 427.62 246.362 427.62 247.11V251.59C427.62 252.338 427.323 253.055 426.794 253.584C426.266 254.113 425.548 254.41 424.8 254.41Z" fill="white" stroke="#263238" stroke-linecap="round" stroke-linejoin="round"/>
<path d="M425.09 244.29H424.51V254.41H425.09V244.29Z" fill="#0077B6" stroke="#263238" stroke-linecap="round" stroke-linejoin="round"/>
<path d="M456.38 247.11C456.38 245.553 455.118 244.29 453.56 244.29C452.003 244.29 450.74 245.553 450.74 247.11V251.59C450.74 253.147 452.003 254.41 453.56 254.41C455.118 254.41 456.38 253.147 456.38 251.59V247.11Z" fill="white" stroke="#263238" stroke-linecap="round" stroke-linejoin="round"/>
<path d="M453.85 244.29H453.27V254.41H453.85V244.29Z" fill="#0077B6" stroke="#263238" stroke-linecap="round" stroke-linejoin="round"/>
<path d="M439.33 243.37C440.324 243.366 441.301 243.115 442.173 242.641C443.046 242.166 443.787 241.482 444.33 240.65L445.56 238.74C443.611 237.661 441.416 237.103 439.187 237.121C436.959 237.138 434.773 237.73 432.84 238.84L434.68 241.14C435.241 241.834 435.949 242.394 436.754 242.78C437.558 243.166 438.438 243.367 439.33 243.37Z" fill="#0077B6" stroke="#263238" stroke-linecap="round" stroke-linejoin="round"/>
<path d="M439.43 255.68C439.546 255.68 439.64 255.586 439.64 255.47C439.64 255.354 439.546 255.26 439.43 255.26C439.314 255.26 439.22 255.354 439.22 255.47C439.22 255.586 439.314 255.68 439.43 255.68Z" fill="#263238"/>
<path d="M439.64 256.2C439.638 256.146 439.614 256.095 439.575 256.058C439.536 256.021 439.484 256 439.43 256C439.403 255.999 439.376 256.003 439.351 256.012C439.325 256.022 439.302 256.036 439.282 256.055C439.263 256.074 439.247 256.096 439.236 256.121C439.226 256.146 439.22 256.173 439.22 256.2C439.22 256.256 439.242 256.309 439.282 256.348C439.321 256.388 439.375 256.41 439.43 256.41C439.486 256.41 439.539 256.388 439.579 256.348C439.618 256.309 439.64 256.256 439.64 256.2Z" fill="#263238"/>
<path d="M438.81 256.09C438.863 256.074 438.907 256.037 438.934 255.989C438.96 255.94 438.966 255.883 438.95 255.83C438.93 255.778 438.891 255.735 438.842 255.709C438.792 255.683 438.735 255.677 438.68 255.69C438.627 255.706 438.583 255.743 438.557 255.791C438.531 255.84 438.525 255.897 438.54 255.95C438.561 256.002 438.599 256.045 438.649 256.071C438.699 256.097 438.756 256.104 438.81 256.09Z" fill="#263238"/>
<path d="M440.12 256.09C440.173 256.074 440.217 256.037 440.244 255.989C440.27 255.94 440.276 255.883 440.26 255.83C440.242 255.776 440.204 255.732 440.153 255.706C440.103 255.68 440.045 255.674 439.99 255.69C439.964 255.698 439.94 255.711 439.919 255.729C439.898 255.746 439.881 255.768 439.869 255.792C439.857 255.816 439.85 255.843 439.848 255.87C439.847 255.897 439.851 255.924 439.86 255.95C439.876 256.003 439.913 256.047 439.962 256.073C440.01 256.1 440.067 256.106 440.12 256.09Z" fill="#263238"/>
<path d="M412.88 138.15H333.31V102.7V93.3L342.72 102.7H412.88V138.15Z" fill="#D6D6D6" stroke="#263238" stroke-linecap="round" stroke-linejoin="round"/>
<path d="M412.88 189.5H333.31V154.06V144.66L342.72 154.06H412.88V189.5Z" fill="#D6D6D6" stroke="#263238" stroke-linecap="round" stroke-linejoin="round"/>
<path d="M386.44 114.9H405.17" stroke="#263238" stroke-linecap="round" stroke-linejoin="round"/>
<path d="M360.23 114.9H381.63" stroke="#263238" stroke-linecap="round" stroke-linejoin="round"/>
<path d="M344.18 114.9H356.48" stroke="#263238" stroke-linecap="round" stroke-linejoin="round"/>
<path d="M377.88 120.79H405.17" stroke="#263238" stroke-linecap="round" stroke-linejoin="round"/>
<path d="M344.18 120.79H373.07" stroke="#263238" stroke-linecap="round" stroke-linejoin="round"/>
<path d="M399.82 126.67H405.17" stroke="#263238" stroke-linecap="round" stroke-linejoin="round"/>
<path d="M369.86 126.67H395.54" stroke="#263238" stroke-linecap="round" stroke-linejoin="round"/>
<path d="M344.18 126.67H365.58" stroke="#263238" stroke-linecap="round" stroke-linejoin="round"/>
<path d="M386.44 164.65H405.17" stroke="#263238" stroke-linecap="round" stroke-linejoin="round"/>
<path d="M360.23 164.65H381.63" stroke="#263238" stroke-linecap="round" stroke-linejoin="round"/>
<path d="M344.18 164.65H356.48" stroke="#263238" stroke-linecap="round" stroke-linejoin="round"/>
<path d="M377.88 170.54H405.17" stroke="#263238" stroke-linecap="round" stroke-linejoin="round"/>
<path d="M344.18 170.54H373.07" stroke="#263238" stroke-linecap="round" stroke-linejoin="round"/>
<path d="M399.82 176.42H405.17" stroke="#263238" stroke-linecap="round" stroke-linejoin="round"/>
<path d="M369.86 176.42H395.54" stroke="#263238" stroke-linecap="round" stroke-linejoin="round"/>
<path d="M344.18 176.42H365.58" stroke="#263238" stroke-linecap="round" stroke-linejoin="round"/>
<path d="M333.31 333.91H412.88V248.18V238.78L403.47 248.18H333.31V333.91Z" fill="#0077B6" stroke="#263238" stroke-linecap="round" stroke-linejoin="round"/>
<path d="M386.44 259.88H405.17" stroke="#263238" stroke-linecap="round" stroke-linejoin="round"/>
<path d="M360.23 259.88H381.63" stroke="#263238" stroke-linecap="round" stroke-linejoin="round"/>
<path d="M344.18 259.88H356.48" stroke="#263238" stroke-linecap="round" stroke-linejoin="round"/>
<path d="M377.88 265.76H405.17" stroke="#263238" stroke-linecap="round" stroke-linejoin="round"/>
<path d="M344.18 265.76H373.07" stroke="#263238" stroke-linecap="round" stroke-linejoin="round"/>
<path d="M399.82 271.65H405.17" stroke="#263238" stroke-linecap="round" stroke-linejoin="round"/>
<path d="M369.86 271.65H395.54" stroke="#263238" stroke-linecap="round" stroke-linejoin="round"/>
<path d="M344.18 271.65H365.58" stroke="#263238" stroke-linecap="round" stroke-linejoin="round"/>
<path d="M386.44 276.46H405.17" stroke="#263238" stroke-linecap="round" stroke-linejoin="round"/>
<path d="M360.23 276.46H381.63" stroke="#263238" stroke-linecap="round" stroke-linejoin="round"/>
<path d="M344.18 276.46H356.48" stroke="#263238" stroke-linecap="round" stroke-linejoin="round"/>
<path d="M377.88 282.35H405.17" stroke="#263238" stroke-linecap="round" stroke-linejoin="round"/>
<path d="M344.18 282.35H373.07" stroke="#263238" stroke-linecap="round" stroke-linejoin="round"/>
<path d="M399.82 288.23H405.17" stroke="#263238" stroke-linecap="round" stroke-linejoin="round"/>
<path d="M369.86 288.23H395.54" stroke="#263238" stroke-linecap="round" stroke-linejoin="round"/>
<path d="M344.18 288.23H365.58" stroke="#263238" stroke-linecap="round" stroke-linejoin="round"/>
<path d="M386.44 293.05H405.17" stroke="#263238" stroke-linecap="round" stroke-linejoin="round"/>
<path d="M360.23 293.05H381.63" stroke="#263238" stroke-linecap="round" stroke-linejoin="round"/>
<path d="M344.18 293.05H356.48" stroke="#263238" stroke-linecap="round" stroke-linejoin="round"/>
<path d="M377.88 298.93H405.17" stroke="#263238" stroke-linecap="round" stroke-linejoin="round"/>
<path d="M344.18 298.93H373.07" stroke="#263238" stroke-linecap="round" stroke-linejoin="round"/>
<path d="M399.82 304.82H405.17" stroke="#263238" stroke-linecap="round" stroke-linejoin="round"/>
<path d="M369.86 304.82H395.54" stroke="#263238" stroke-linecap="round" stroke-linejoin="round"/>
<path d="M344.18 304.82H365.58" stroke="#263238" stroke-linecap="round" stroke-linejoin="round"/>
<path d="M386.44 309.63H405.17" stroke="#263238" stroke-linecap="round" stroke-linejoin="round"/>
<path d="M360.23 309.63H381.63" stroke="#263238" stroke-linecap="round" stroke-linejoin="round"/>
<path d="M344.18 309.63H356.48" stroke="#263238" stroke-linecap="round" stroke-linejoin="round"/>
<path d="M377.88 315.52H405.17" stroke="#263238" stroke-linecap="round" stroke-linejoin="round"/>
<path d="M344.18 315.52H373.07" stroke="#263238" stroke-linecap="round" stroke-linejoin="round"/>
<path d="M399.82 321.4H405.17" stroke="#263238" stroke-linecap="round" stroke-linejoin="round"/>
<path d="M369.86 321.4H395.54" stroke="#263238" stroke-linecap="round" stroke-linejoin="round"/>
<path d="M344.18 321.4H365.58" stroke="#263238" stroke-linecap="round" stroke-linejoin="round"/>
<path d="M439.1 381.58C450.886 381.58 460.44 372.026 460.44 360.24C460.44 348.454 450.886 338.9 439.1 338.9C427.314 338.9 417.76 348.454 417.76 360.24C417.76 372.026 427.314 381.58 439.1 381.58Z" stroke="#263238" stroke-linecap="round" stroke-linejoin="round"/>
<path d="M446.38 366.53C446.382 367.935 445.967 369.308 445.188 370.477C444.41 371.646 443.301 372.558 442.004 373.097C440.707 373.636 439.279 373.778 437.901 373.505C436.523 373.232 435.257 372.556 434.263 371.564C433.269 370.571 432.592 369.306 432.317 367.929C432.043 366.551 432.183 365.123 432.72 363.825C433.257 362.527 434.167 361.418 435.335 360.637C436.502 359.857 437.875 359.44 439.28 359.44C441.161 359.44 442.966 360.187 444.297 361.516C445.628 362.845 446.378 364.649 446.38 366.53Z" fill="#0077B6" stroke="#263238" stroke-linecap="round" stroke-linejoin="round"/>
<path d="M449.43 371.26C450.962 369.348 451.922 367.043 452.201 364.609C452.479 362.175 452.065 359.712 451.004 357.504C449.944 355.296 448.281 353.432 446.208 352.128C444.135 350.823 441.735 350.131 439.285 350.131C436.836 350.131 434.436 350.823 432.362 352.128C430.289 353.432 428.626 355.296 427.566 357.504C426.506 359.712 426.091 362.175 426.369 364.609C426.648 367.043 427.608 369.348 429.14 371.26H449.43Z" fill="white" stroke="#263238" stroke-linecap="round" stroke-linejoin="round"/>
<path d="M444.35 367.58H433.89C433.279 367.58 432.673 367.459 432.107 367.225C431.542 366.991 431.028 366.648 430.595 366.215C430.163 365.782 429.819 365.269 429.585 364.703C429.351 364.138 429.23 363.532 429.23 362.92C429.23 362.308 429.351 361.702 429.585 361.137C429.819 360.571 430.163 360.058 430.595 359.625C431.028 359.192 431.542 358.849 432.107 358.615C432.673 358.381 433.279 358.26 433.89 358.26H444.35C444.962 358.26 445.568 358.381 446.134 358.615C446.699 358.849 447.213 359.192 447.646 359.625C448.078 360.058 448.422 360.571 448.656 361.137C448.89 361.702 449.01 362.308 449.01 362.92C449.01 364.156 448.519 365.341 447.646 366.215C446.772 367.089 445.586 367.58 444.35 367.58Z" fill="#0077B6" stroke="#263238" stroke-linecap="round" stroke-linejoin="round"/>
<path d="M431.37 362.54C431.584 361.94 431.975 361.419 432.491 361.045C433.007 360.67 433.623 360.461 434.26 360.444C434.897 360.426 435.525 360.602 436.06 360.948C436.595 361.293 437.014 361.792 437.26 362.38" stroke="#263238" stroke-width="2" stroke-linecap="round" stroke-linejoin="round"/>
<path d="M441.15 362.54C441.365 361.94 441.755 361.419 442.271 361.045C442.787 360.67 443.404 360.461 444.041 360.444C444.678 360.426 445.305 360.602 445.84 360.948C446.376 361.293 446.794 361.792 447.04 362.38" stroke="#263238" stroke-width="2" stroke-linecap="round" stroke-linejoin="round"/>
<path d="M437.57 364.7C437.617 365.14 437.825 365.546 438.153 365.842C438.482 366.137 438.908 366.301 439.35 366.301C439.792 366.301 440.219 366.137 440.547 365.842C440.876 365.546 441.084 365.14 441.13 364.7H437.57Z" fill="white" stroke="#263238" stroke-linecap="round" stroke-linejoin="round"/>
<path d="M456.09 365.44C455.73 365.44 455.384 365.297 455.129 365.042C454.874 364.787 454.73 364.441 454.73 364.08V361C454.73 360.639 454.874 360.293 455.129 360.038C455.384 359.783 455.73 359.64 456.09 359.64C456.451 359.64 456.797 359.783 457.052 360.038C457.307 360.293 457.45 360.639 457.45 361V364.09C457.448 364.449 457.303 364.792 457.049 365.045C456.794 365.298 456.449 365.44 456.09 365.44Z" fill="#263238" stroke="#263238" stroke-linecap="round" stroke-linejoin="round"/>
<path d="M422.11 365.44C421.749 365.44 421.403 365.297 421.148 365.042C420.893 364.787 420.75 364.441 420.75 364.08V361C420.75 360.639 420.893 360.293 421.148 360.038C421.403 359.783 421.749 359.64 422.11 359.64C422.471 359.64 422.817 359.783 423.072 360.038C423.327 360.293 423.47 360.639 423.47 361V364.09C423.467 364.449 423.323 364.792 423.068 365.045C422.813 365.298 422.469 365.44 422.11 365.44Z" fill="#263238" stroke="#263238" stroke-linecap="round" stroke-linejoin="round"/>
<path d="M424.62 361.19C424.243 361.187 423.882 361.036 423.615 360.768C423.349 360.5 423.2 360.138 423.2 359.76V357.51C423.197 355.083 423.922 352.711 425.28 350.7C425.505 350.419 425.827 350.233 426.183 350.179C426.539 350.125 426.902 350.207 427.2 350.409C427.498 350.611 427.709 350.918 427.79 351.268C427.872 351.619 427.818 351.987 427.64 352.3C426.6 353.838 426.046 355.653 426.05 357.51V359.76C426.05 360.139 425.9 360.503 425.631 360.771C425.363 361.039 424.999 361.19 424.62 361.19Z" fill="#263238"/>
<path d="M452.24 352.22C452.124 352.22 452.01 352.191 451.907 352.137C451.805 352.083 451.716 352.005 451.65 351.91C450.735 350.541 449.495 349.42 448.042 348.645C446.589 347.871 444.967 347.467 443.32 347.47H435.38C433.736 347.471 432.116 347.876 430.664 348.648C429.212 349.42 427.971 350.537 427.05 351.9C426.998 351.978 426.931 352.044 426.852 352.095C426.774 352.147 426.687 352.182 426.595 352.2C426.503 352.218 426.408 352.217 426.317 352.198C426.225 352.179 426.138 352.143 426.06 352.09C425.983 352.038 425.916 351.97 425.865 351.892C425.814 351.814 425.778 351.726 425.76 351.634C425.743 351.542 425.743 351.448 425.762 351.356C425.781 351.265 425.818 351.178 425.87 351.1C426.919 349.541 428.335 348.264 429.993 347.382C431.652 346.499 433.502 346.039 435.38 346.04H443.32C445.201 346.041 447.053 346.503 448.713 347.387C450.373 348.271 451.79 349.55 452.84 351.11C452.894 351.188 452.932 351.277 452.951 351.37C452.97 351.463 452.971 351.559 452.952 351.652C452.933 351.746 452.896 351.834 452.843 351.913C452.789 351.991 452.72 352.059 452.64 352.11C452.521 352.185 452.382 352.223 452.24 352.22Z" fill="#263238"/>
<path d="M454.08 361.19C453.701 361.19 453.337 361.039 453.069 360.771C452.801 360.503 452.65 360.139 452.65 359.76V357.51C452.653 355.657 452.099 353.845 451.06 352.31C450.951 352.155 450.874 351.979 450.834 351.793C450.793 351.608 450.79 351.416 450.825 351.229C450.859 351.042 450.93 350.864 451.034 350.705C451.138 350.546 451.273 350.41 451.431 350.303C451.588 350.197 451.765 350.123 451.951 350.086C452.138 350.049 452.33 350.049 452.516 350.087C452.702 350.125 452.879 350.2 453.036 350.307C453.193 350.413 453.327 350.551 453.43 350.71C454.786 352.718 455.507 355.087 455.5 357.51V359.76C455.5 360.138 455.351 360.5 455.085 360.768C454.819 361.036 454.458 361.187 454.08 361.19Z" fill="#263238"/>
<path d="M424.8 367.47C424.053 367.47 423.335 367.173 422.806 366.644C422.278 366.115 421.98 365.398 421.98 364.65V360.16C421.98 359.412 422.278 358.695 422.806 358.166C423.335 357.637 424.053 357.34 424.8 357.34C425.548 357.34 426.266 357.637 426.794 358.166C427.323 358.695 427.62 359.412 427.62 360.16V364.65C427.618 365.397 427.32 366.113 426.792 366.641C426.263 367.17 425.548 367.467 424.8 367.47Z" fill="white" stroke="#263238" stroke-linecap="round" stroke-linejoin="round"/>
<path d="M425.09 357.34H424.51V367.46H425.09V357.34Z" fill="#0077B6" stroke="#263238" stroke-linecap="round" stroke-linejoin="round"/>
<path d="M456.38 360.16C456.38 358.603 455.118 357.34 453.56 357.34C452.003 357.34 450.74 358.603 450.74 360.16V364.64C450.74 366.198 452.003 367.46 453.56 367.46C455.118 367.46 456.38 366.198 456.38 364.64V360.16Z" fill="white" stroke="#263238" stroke-linecap="round" stroke-linejoin="round"/>
<path d="M453.85 357.34H453.27V367.46H453.85V357.34Z" fill="#0077B6" stroke="#263238" stroke-linecap="round" stroke-linejoin="round"/>
<path d="M439.33 356.42C440.324 356.416 441.301 356.165 442.173 355.691C443.046 355.216 443.787 354.532 444.33 353.7L445.56 351.8C443.61 350.724 441.416 350.167 439.189 350.183C436.961 350.199 434.775 350.787 432.84 351.89L434.68 354.19C435.241 354.884 435.949 355.444 436.754 355.83C437.558 356.216 438.438 356.417 439.33 356.42Z" fill="#0077B6" stroke="#263238" stroke-linecap="round" stroke-linejoin="round"/>
<path d="M439.43 368.73C439.546 368.73 439.64 368.636 439.64 368.52C439.64 368.404 439.546 368.31 439.43 368.31C439.314 368.31 439.22 368.404 439.22 368.52C439.22 368.636 439.314 368.73 439.43 368.73Z" fill="#263238"/>
<path d="M439.43 369.47C439.546 369.47 439.64 369.376 439.64 369.26C439.64 369.144 439.546 369.05 439.43 369.05C439.314 369.05 439.22 369.144 439.22 369.26C439.22 369.376 439.314 369.47 439.43 369.47Z" fill="#263238"/>
<path d="M438.81 369.14C438.863 369.124 438.907 369.087 438.933 369.039C438.96 368.99 438.966 368.933 438.95 368.88C438.93 368.828 438.891 368.785 438.842 368.759C438.792 368.733 438.734 368.726 438.68 368.74C438.629 368.758 438.586 368.795 438.56 368.843C438.534 368.891 438.527 368.947 438.54 369C438.548 369.027 438.561 369.053 438.579 369.075C438.598 369.097 438.62 369.115 438.645 369.128C438.67 369.141 438.698 369.149 438.726 369.151C438.755 369.153 438.783 369.149 438.81 369.14Z" fill="#263238"/>
<path d="M440.12 369.14C440.173 369.124 440.217 369.088 440.244 369.039C440.27 368.99 440.276 368.933 440.26 368.88C440.242 368.826 440.204 368.782 440.153 368.756C440.103 368.73 440.045 368.724 439.99 368.74C439.964 368.748 439.94 368.761 439.919 368.779C439.898 368.796 439.881 368.818 439.869 368.842C439.857 368.866 439.85 368.893 439.848 368.92C439.847 368.947 439.851 368.975 439.86 369C439.867 369.027 439.879 369.052 439.896 369.074C439.913 369.096 439.935 369.114 439.959 369.127C439.984 369.141 440.011 369.148 440.039 369.151C440.066 369.153 440.094 369.149 440.12 369.14Z" fill="#263238"/>
<path d="M333.31 411.83H412.88V361.23V351.83L403.47 361.23H333.31V411.83Z" fill="#0077B6" stroke="#263238" stroke-linecap="round" stroke-linejoin="round"/>
<path d="M386.44 372.93H405.17" stroke="#263238" stroke-linecap="round" stroke-linejoin="round"/>
<path d="M360.23 372.93H381.63" stroke="#263238" stroke-linecap="round" stroke-linejoin="round"/>
<path d="M344.18 372.93H356.48" stroke="#263238" stroke-linecap="round" stroke-linejoin="round"/>
<path d="M377.88 378.82H405.17" stroke="#263238" stroke-linecap="round" stroke-linejoin="round"/>
<path d="M344.18 378.82H373.07" stroke="#263238" stroke-linecap="round" stroke-linejoin="round"/>
<path d="M399.82 384.7H405.17" stroke="#263238" stroke-linecap="round" stroke-linejoin="round"/>
<path d="M369.86 384.7H395.54" stroke="#263238" stroke-linecap="round" stroke-linejoin="round"/>
<path d="M344.18 384.7H365.58" stroke="#263238" stroke-linecap="round" stroke-linejoin="round"/>
<path d="M386.44 389.52H405.17" stroke="#263238" stroke-linecap="round" stroke-linejoin="round"/>
<path d="M360.23 389.52H381.63" stroke="#263238" stroke-linecap="round" stroke-linejoin="round"/>
<path d="M344.18 389.52H356.48" stroke="#263238" stroke-linecap="round" stroke-linejoin="round"/>
<path d="M377.88 395.4H405.17" stroke="#263238" stroke-linecap="round" stroke-linejoin="round"/>
<path d="M344.18 395.4H373.07" stroke="#263238" stroke-linecap="round" stroke-linejoin="round"/>
<path d="M399.82 401.28H405.17" stroke="#263238" stroke-linecap="round" stroke-linejoin="round"/>
<path d="M369.86 401.28H395.54" stroke="#263238" stroke-linecap="round" stroke-linejoin="round"/>
<path d="M344.18 401.28H365.58" stroke="#263238" stroke-linecap="round" stroke-linejoin="round"/>
<path d="M453 55.58H411.72C411.287 57.8662 410.071 59.9299 408.28 61.4157C406.49 62.9015 404.237 63.7164 401.91 63.72H342.81C340.483 63.7164 338.231 62.9015 336.44 61.4157C334.649 59.9299 333.433 57.8662 333 55.58H291.77C288.322 55.58 285.016 56.9497 282.578 59.3876C280.14 61.8256 278.77 65.1322 278.77 68.58V417.58C278.77 421.028 280.14 424.334 282.578 426.772C285.016 429.21 288.322 430.58 291.77 430.58H453C456.448 430.58 459.754 429.21 462.192 426.772C464.63 424.334 466 421.028 466 417.58V68.58C466 65.1322 464.63 61.8256 462.192 59.3876C459.754 56.9497 456.448 55.58 453 55.58Z" stroke="#263238" stroke-width="2" stroke-linecap="round" stroke-linejoin="round"/>
<path d="M466 79.13V68.59C466 65.1422 464.63 61.8356 462.192 59.3976C459.754 56.9597 456.448 55.59 453 55.59H411.72C411.287 57.8762 410.071 59.9399 408.28 61.4257C406.49 62.9115 404.237 63.7264 401.91 63.73H342.81C340.482 63.726 338.228 62.9097 336.437 61.4219C334.646 59.9341 333.431 57.868 333 55.58H291.77C288.322 55.58 285.016 56.9497 282.578 59.3876C280.14 61.8256 278.77 65.1322 278.77 68.58V79.13H466Z" stroke="#263238" stroke-width="2" stroke-linecap="round" stroke-linejoin="round"/>
<path d="M295.92 65C295.92 67.56 293.04 68.48 293.03 70.43V70.56H295.82V71.43H292.1V70.7C292.1 68 295 67.42 295 65C295 64.12 294.71 63.66 294 63.66C293.29 63.66 293 64.16 293 64.91V65.66H292.12V65C292.12 63.7 292.71 62.84 294.02 62.84C295.33 62.84 295.92 63.7 295.92 65Z" fill="#263238"/>
<path d="M300.56 65V65.22C300.603 65.579 300.529 65.9422 300.349 66.2557C300.169 66.5692 299.892 66.8162 299.56 66.96C299.896 67.1048 300.175 67.3549 300.355 67.6725C300.536 67.99 300.608 68.3578 300.56 68.72V69.37C300.56 70.67 299.95 71.52 298.65 71.52C297.35 71.52 296.74 70.67 296.74 69.37V68.79H297.63V69.43C297.63 70.2 297.94 70.66 298.63 70.66C299.32 70.66 299.63 70.21 299.63 69.35V68.7C299.63 67.86 299.27 67.46 298.56 67.43H298V66.59H298.56C298.707 66.5921 298.853 66.5619 298.987 66.5013C299.121 66.4408 299.24 66.3515 299.335 66.2398C299.431 66.1281 299.5 65.9967 299.539 65.855C299.578 65.7133 299.585 65.5648 299.56 65.42V65C299.56 64.13 299.25 63.68 298.56 63.68C297.87 63.68 297.56 64.15 297.56 64.92V65.36H296.67V65C296.67 63.7 297.28 62.86 298.58 62.86C299.88 62.86 300.56 63.69 300.56 65Z" fill="#263238"/>
<path d="M302.39 65.63V66.81H301.48V65.63H302.39ZM302.39 70.25V71.43H301.48V70.25H302.39Z" fill="#263238"/>
<path d="M304.31 66.39C304.435 66.1678 304.618 65.9846 304.841 65.8609C305.063 65.7373 305.316 65.6781 305.57 65.69C306.66 65.69 307.15 66.49 307.15 67.69V69.35C307.15 70.65 306.53 71.5 305.23 71.5C303.93 71.5 303.33 70.65 303.33 69.35V68.78H304.21V69.41C304.21 70.18 304.53 70.64 305.21 70.64C305.89 70.64 306.21 70.18 306.21 69.41V67.78C306.21 67.01 305.9 66.55 305.21 66.55C305.083 66.5374 304.955 66.5516 304.834 66.5916C304.713 66.6317 304.602 66.6967 304.508 66.7825C304.414 66.8683 304.338 66.9729 304.287 67.0896C304.236 67.2064 304.21 67.3325 304.21 67.46V67.65H303.32L303.55 62.94H306.9V63.79H304.4L304.31 66.39Z" fill="#263238"/>
<path d="M311.86 65V65.15H311V64.93C311 64.17 310.68 63.72 310 63.72C309.32 63.72 309 64.18 309 65.09V67C309.098 66.7195 309.284 66.4788 309.532 66.3144C309.779 66.1501 310.074 66.0713 310.37 66.09C311.46 66.09 311.95 66.87 311.95 68.09V69.37C311.95 70.67 311.31 71.52 310.01 71.52C308.71 71.52 308 70.66 308 69.36V65C308 63.65 308.6 62.81 309.95 62.81C311.3 62.81 311.86 63.68 311.86 65ZM308.94 68.17V69.44C308.94 70.21 309.26 70.67 309.94 70.67C310.62 70.67 310.94 70.21 310.94 69.44V68.15C310.94 67.39 310.61 66.93 309.94 66.93C309.27 66.93 308.94 67.39 308.94 68.15V68.17Z" fill="#263238"/>
<path d="M416.67 65.35H414.27V71.34H416.67V65.35Z" fill="#263238"/>
<path d="M419.87 64.15H417.47V71.34H419.87V64.15Z" fill="#263238"/>
<path d="M423.06 63.3H420.66V71.34H423.06V63.3Z" fill="#263238"/>
<path d="M426.26 61.81H423.86V71.34H426.26V61.81Z" fill="#263238"/>
<path d="M455.91 71.17H441.53V62.39H455.91V71.17ZM442.33 70.38H455.11V63.19H442.33V70.38Z" fill="#263238"/>
<path d="M451.12 64.06H443.53V69.51H451.12V64.06Z" fill="#263238"/>
<path d="M457.22 65.75H455.41V67.82H457.22V65.75Z" fill="#263238"/>
<path d="M436.26 69.26C436.165 69.2617 436.072 69.2375 435.99 69.19C433.06 67.45 431.13 69.06 431.05 69.13C430.998 69.1829 430.936 69.2244 430.867 69.2521C430.798 69.2797 430.724 69.2929 430.65 69.2907C430.576 69.2885 430.503 69.2711 430.435 69.2395C430.368 69.2078 430.308 69.1627 430.259 69.1069C430.21 69.0511 430.174 68.9858 430.151 68.915C430.128 68.8443 430.121 68.7697 430.128 68.6959C430.136 68.622 430.159 68.5505 430.195 68.4859C430.231 68.4212 430.281 68.3647 430.34 68.32C430.44 68.23 432.92 66.11 436.54 68.26C436.66 68.3363 436.745 68.4559 436.779 68.5938C436.812 68.7317 436.791 68.8773 436.72 69C436.673 69.0798 436.606 69.1458 436.525 69.1914C436.444 69.237 436.353 69.2607 436.26 69.26Z" fill="#263238"/>
<path d="M437.34 67.46C437.245 67.4582 437.151 67.4305 437.07 67.38C432.84 64.87 429.99 67.3 429.96 67.32C429.908 67.366 429.847 67.4011 429.78 67.4235C429.714 67.4458 429.644 67.455 429.575 67.4503C429.505 67.4457 429.437 67.4274 429.374 67.3964C429.312 67.3655 429.256 67.3225 429.21 67.27C429.164 67.2175 429.129 67.1564 429.107 67.0903C429.084 67.0242 429.075 66.9543 429.08 66.8846C429.084 66.815 429.103 66.7469 429.134 66.6844C429.165 66.6218 429.208 66.566 429.26 66.52C429.26 66.52 432.72 63.52 437.62 66.46C437.742 66.5345 437.829 66.6542 437.863 66.7929C437.897 66.9315 437.874 67.0779 437.8 67.2C437.752 67.2791 437.685 67.3446 437.604 67.3901C437.524 67.4356 437.433 67.4597 437.34 67.46Z" fill="#263238"/>
<path d="M438.33 65.37C438.231 65.368 438.135 65.3405 438.05 65.29C432.69 62.11 429.13 65.11 428.98 65.24C428.871 65.3222 428.735 65.3601 428.6 65.3462C428.464 65.3323 428.339 65.2676 428.249 65.165C428.159 65.0624 428.111 64.9296 428.115 64.7933C428.119 64.6569 428.174 64.5271 428.27 64.43C428.32 64.43 432.55 60.77 438.6 64.37C438.661 64.4061 438.715 64.4539 438.757 64.5106C438.8 64.5673 438.831 64.6319 438.848 64.7006C438.866 64.7693 438.87 64.8409 438.86 64.9111C438.85 64.9813 438.826 65.0489 438.79 65.11C438.741 65.1885 438.674 65.2534 438.593 65.2988C438.513 65.3443 438.422 65.3688 438.33 65.37Z" fill="#263238"/>
<path d="M434.64 70.16C434.642 70.4278 434.565 70.6902 434.417 70.9137C434.269 71.1373 434.059 71.3119 433.812 71.4153C433.565 71.5187 433.292 71.5463 433.03 71.4945C432.767 71.4427 432.525 71.3139 432.336 71.1245C432.146 70.9351 432.018 70.6937 431.966 70.4309C431.914 70.1681 431.942 69.8958 432.045 69.6487C432.149 69.4016 432.323 69.1909 432.547 69.0433C432.77 68.8957 433.033 68.818 433.3 68.82C433.656 68.82 433.997 68.9612 434.248 69.2125C434.499 69.4638 434.64 69.8046 434.64 70.16Z" fill="#263238"/>
<path d="M451 446.51H472" stroke="#263238" stroke-linecap="round" stroke-linejoin="round"/>
<path d="M55 446.51H444" stroke="#263238" stroke-linecap="round" stroke-linejoin="round"/>
<path d="M27.6499 446.51H41.9999" stroke="#263238" stroke-linecap="round" stroke-linejoin="round"/>
<path d="M171.68 311.84H156.4V444.64H171.68V311.84Z" fill="#263238" stroke="#263238" stroke-linecap="round" stroke-linejoin="round"/>
<path d="M50.52 359.93V369.27H111.42V359.93H50.52Z" fill="#263238" stroke="#263238" stroke-linecap="round" stroke-linejoin="round"/>
<path d="M56.7799 327.69H47.4399V365.06H56.7799V327.69Z" fill="#263238" stroke="#263238" stroke-linecap="round" stroke-linejoin="round"/>
<path d="M60.6703 365.22C60.6703 366.344 60.4488 367.456 60.0185 368.494C59.5882 369.532 58.9575 370.475 58.1625 371.269C57.3675 372.063 56.4238 372.693 55.3853 373.122C54.3468 373.551 53.2339 373.771 52.1103 373.77C51.8303 373.77 51.5503 373.77 51.2803 373.77C49.7228 373.616 48.2373 373.038 46.9853 372.099C45.7334 371.159 44.763 369.895 44.1795 368.443C43.5961 366.99 43.422 365.406 43.6761 363.861C43.9303 362.317 44.603 360.872 45.6211 359.683C46.6392 358.495 47.9637 357.608 49.4507 357.119C50.9376 356.631 52.53 356.559 54.0547 356.912C55.5794 357.266 56.9781 358.03 58.0987 359.123C59.2192 360.216 60.0187 361.595 60.4103 363.11C60.581 363.8 60.6683 364.509 60.6703 365.22Z" fill="white" stroke="#263238" stroke-linecap="round" stroke-linejoin="round"/>
<path d="M61.3 333.45C61.2947 335.718 60.3908 337.891 58.7864 339.493C57.1819 341.096 55.0077 341.997 52.74 342C52.46 342 52.18 342 51.9 342C50.3417 341.851 48.8542 341.277 47.5993 340.341C46.3444 339.405 45.3702 338.143 44.7826 336.692C44.195 335.241 44.0166 333.657 44.2667 332.111C44.5168 330.566 45.1859 329.119 46.2012 327.927C47.2164 326.736 48.539 325.846 50.0251 325.353C51.5111 324.861 53.1036 324.786 54.6295 325.136C56.1553 325.485 57.5561 326.247 58.6793 327.337C59.8025 328.428 60.6051 329.805 61 331.32C61.1921 332.014 61.2929 332.73 61.3 333.45Z" fill="white" stroke="#263238" stroke-linecap="round" stroke-linejoin="round"/>
<path d="M76.6272 310.25L64.1772 316.953L66.7563 321.743L79.2062 315.039L76.6272 310.25Z" fill="#263238" stroke="#263238" stroke-linecap="round" stroke-linejoin="round"/>
<path d="M81.2702 315.56L75.1402 318.86L71.2202 311.59L77.3602 308.28C77.842 308.016 78.3717 307.851 78.9182 307.794C79.4647 307.738 80.017 307.792 80.5425 307.952C81.0681 308.112 81.5562 308.376 81.9783 308.728C82.4004 309.079 82.7478 309.512 83.0002 310C83.502 310.968 83.6018 312.095 83.2779 313.135C82.954 314.176 82.2325 315.048 81.2702 315.56Z" fill="white" stroke="#263238" stroke-linecap="round" stroke-linejoin="round"/>
<path d="M54.4003 284.73L53.9603 310.09L48.5303 310L48.9603 284.64L54.4003 284.73Z" fill="#263238" stroke="#263238" stroke-linecap="round" stroke-linejoin="round"/>
<path d="M55.87 283.2L55.76 290.2L47.5 290L47.61 283C47.6191 282.458 47.735 281.922 47.951 281.425C48.167 280.927 48.479 280.477 48.869 280.1C49.259 279.723 49.7195 279.427 50.2241 279.227C50.7287 279.028 51.2676 278.931 51.81 278.94C52.358 278.948 52.8989 279.065 53.4011 279.284C53.9033 279.503 54.3568 279.821 54.7348 280.217C55.1129 280.614 55.4081 281.082 55.603 281.594C55.7979 282.106 55.8887 282.652 55.87 283.2Z" fill="white" stroke="#263238" stroke-linecap="round" stroke-linejoin="round"/>
<path d="M74.7202 293.93L62.7902 316.31L57.9902 313.76L69.9102 291.38L74.7202 293.93Z" fill="#263238" stroke="#263238" stroke-linecap="round" stroke-linejoin="round"/>
<path d="M76.7202 293.24L73.4501 299.39L66.1602 295.52L69.4202 289.36C69.9359 288.396 70.8122 287.675 71.8576 287.355C72.903 287.034 74.0328 287.14 75.0002 287.65C75.9687 288.164 76.6937 289.041 77.0161 290.089C77.3386 291.137 77.2322 292.27 76.7202 293.24Z" fill="white" stroke="#263238" stroke-linecap="round" stroke-linejoin="round"/>
<path d="M35.1201 293.83L46.9401 316.27L42.1301 318.81L30.3101 296.37L35.1201 293.83Z" fill="#263238" stroke="#263238" stroke-linecap="round" stroke-linejoin="round"/>
<path d="M46.2102 310.1C46.0349 309.062 45.5557 308.1 44.8331 307.334C44.1106 306.569 43.1772 306.035 42.1511 305.8C41.125 305.565 40.0523 305.64 39.0687 306.015C38.0852 306.39 37.2351 307.049 36.6259 307.907C36.0168 308.766 35.6759 309.786 35.6466 310.838C35.6173 311.89 35.9007 312.927 36.4611 313.818C37.0215 314.709 37.8336 315.414 38.7947 315.843C39.7558 316.273 40.8227 316.407 41.8602 316.23C43.2494 315.993 44.4876 315.214 45.3031 314.065C46.1187 312.916 46.4449 311.49 46.2102 310.1Z" fill="white" stroke="#263238" stroke-linecap="round" stroke-linejoin="round"/>
<path d="M51.4103 310.8C54.3485 310.8 56.7303 308.418 56.7303 305.48C56.7303 302.542 54.3485 300.16 51.4103 300.16C48.4722 300.16 46.0903 302.542 46.0903 305.48C46.0903 308.418 48.4722 310.8 51.4103 310.8Z" fill="white" stroke="#263238" stroke-linecap="round" stroke-linejoin="round"/>
<path d="M68.77 308.55C68.9301 307.51 68.778 306.445 68.333 305.492C67.888 304.538 67.1701 303.737 66.2701 303.192C65.3701 302.646 64.3285 302.379 63.277 302.426C62.2255 302.472 61.2114 302.83 60.3631 303.453C59.5147 304.076 58.8702 304.936 58.5111 305.926C58.152 306.915 58.0944 307.989 58.3457 309.011C58.5969 310.033 59.1457 310.957 59.9226 311.668C60.6995 312.378 61.6695 312.841 62.71 313C63.4002 313.107 64.1046 313.076 64.783 312.91C65.4613 312.744 66.1002 312.446 66.6632 312.032C67.2261 311.619 67.7019 311.098 68.0634 310.501C68.425 309.903 68.6651 309.24 68.77 308.55Z" fill="white" stroke="#263238" stroke-linecap="round" stroke-linejoin="round"/>
<path d="M35.6702 291.78L38.9302 297.94L31.6302 301.81L28.3702 295.64C28.1155 295.161 27.958 294.636 27.9067 294.096C27.8553 293.556 27.9112 293.011 28.071 292.493C28.2308 291.974 28.4914 291.492 28.8379 291.075C29.1845 290.658 29.61 290.313 30.0902 290.06C31.0588 289.551 32.1894 289.446 33.235 289.769C34.2806 290.091 35.1561 290.814 35.6702 291.78Z" fill="white" stroke="#263238" stroke-linecap="round" stroke-linejoin="round"/>
<path d="M67.7501 320.37C67.7501 324.348 66.1697 328.164 63.3567 330.977C60.5436 333.79 56.7283 335.37 52.7501 335.37C52.2501 335.37 51.7501 335.37 51.2801 335.31C48.5514 335.04 45.9492 334.026 43.7561 332.38C41.563 330.735 39.863 328.519 38.8409 325.975C37.8188 323.43 37.5136 320.654 37.9586 317.949C38.4036 315.243 39.5817 312.711 41.3649 310.628C43.1481 308.545 45.4681 306.991 48.0728 306.134C50.6775 305.277 53.4672 305.151 56.1387 305.769C58.8102 306.386 61.2613 307.724 63.2256 309.638C65.1899 311.551 66.5921 313.966 67.2801 316.62C67.5902 317.846 67.748 319.105 67.7501 320.37Z" fill="white" stroke="#263238" stroke-linecap="round" stroke-linejoin="round"/>
<path d="M67.7502 320.37C67.7502 324.348 66.1698 328.164 63.3568 330.977C60.5437 333.79 56.7284 335.37 52.7502 335.37C52.2502 335.37 51.7502 335.37 51.2802 335.31C50.7055 333.091 50.6472 330.769 51.1097 328.524C51.5723 326.278 52.5434 324.169 53.9484 322.357C55.3534 320.545 57.155 319.08 59.2148 318.073C61.2745 317.067 63.5376 316.546 65.8302 316.55C66.3202 316.55 66.8302 316.55 67.3002 316.62C67.6036 317.847 67.7547 319.106 67.7502 320.37Z" fill="white" stroke="#263238" stroke-linecap="round" stroke-linejoin="round"/>
<path d="M143.281 365.49C145.828 354.606 139.069 343.718 128.185 341.171C117.3 338.624 106.412 345.383 103.865 356.267C101.319 367.152 108.077 378.04 118.962 380.586C129.846 383.133 140.734 376.375 143.281 365.49Z" fill="white" stroke="#263238" stroke-linecap="round" stroke-linejoin="round"/>
<path d="M127.334 369.93C132.334 367.844 134.697 362.1 132.611 357.099C130.526 352.099 124.782 349.736 119.781 351.822C114.781 353.907 112.418 359.652 114.503 364.652C116.589 369.652 122.333 372.015 127.334 369.93Z" fill="#263238" stroke="#263238" stroke-linecap="round" stroke-linejoin="round"/>
<path d="M120.09 446.51H209.89L211.18 440.43C211.697 438.001 211.233 435.467 209.887 433.379C208.542 431.292 206.426 429.822 204 429.29C191.27 426.43 163.71 425.4 163.71 425.4C157.07 425.61 138.59 426.4 125.86 429.3C123.451 429.85 121.356 431.326 120.027 433.409C118.699 435.492 118.243 438.014 118.76 440.43L120.09 446.51Z" fill="white" stroke="#263238" stroke-linecap="round" stroke-linejoin="round"/>
<path d="M186.6 426.88C175.1 425.82 163.74 425.4 163.74 425.4C159.56 425.53 150.68 425.9 141.5 426.88C144.18 436.03 153.26 442.77 164.05 442.77C174.84 442.77 183.92 436 186.6 426.88Z" fill="#0077B6" stroke="#263238" stroke-linecap="round" stroke-linejoin="round"/>
<path d="M257.843 403.631L263.429 396.145L214.62 359.724L209.034 367.21L257.843 403.631Z" fill="#263238" stroke="#263238" stroke-linecap="round" stroke-linejoin="round"/>
<path d="M233.554 425.729L241.04 431.315L263.388 401.365L255.903 395.779L233.554 425.729Z" fill="#263238" stroke="#263238" stroke-linecap="round" stroke-linejoin="round"/>
<path d="M252.87 393.32C253.543 392.417 254.388 391.656 255.356 391.08C256.323 390.504 257.395 390.125 258.509 389.963C259.624 389.801 260.759 389.861 261.851 390.139C262.942 390.416 263.968 390.906 264.87 391.58L265.52 392.11C266.677 393.165 267.522 394.517 267.963 396.018C268.405 397.52 268.427 399.114 268.026 400.627C267.625 402.14 266.816 403.515 265.689 404.6C264.561 405.686 263.157 406.442 261.63 406.786C260.103 407.129 258.511 407.047 257.027 406.549C255.543 406.051 254.224 405.155 253.214 403.96C252.203 402.764 251.54 401.315 251.296 399.768C251.052 398.222 251.237 396.639 251.83 395.19C252.099 394.526 252.448 393.898 252.87 393.32Z" fill="white" stroke="#263238" stroke-linecap="round" stroke-linejoin="round"/>
<path d="M233.34 417.25C234.608 415.367 236.572 414.065 238.8 413.63C241.028 413.195 243.337 413.662 245.22 414.93C245.45 415.08 245.67 415.25 245.89 415.42C247.098 416.417 248.009 417.725 248.524 419.203C249.039 420.681 249.14 422.273 248.814 423.804C248.488 425.335 247.748 426.748 246.675 427.888C245.603 429.028 244.238 429.852 242.729 430.27C241.221 430.689 239.626 430.685 238.12 430.261C236.613 429.836 235.251 429.006 234.183 427.862C233.115 426.717 232.381 425.302 232.062 423.769C231.742 422.237 231.849 420.646 232.37 419.17C232.613 418.492 232.938 417.847 233.34 417.25Z" fill="white" stroke="#263238" stroke-linecap="round" stroke-linejoin="round"/>
<path d="M207.636 427.963L221.708 429.345L222.24 423.932L208.168 422.549L207.636 427.963Z" fill="#263238" stroke="#263238" stroke-linecap="round" stroke-linejoin="round"/>
<path d="M206.78 421L213.72 421.68L212.91 429.9L205.97 429.22C204.88 429.114 203.877 428.579 203.181 427.733C202.486 426.887 202.154 425.8 202.26 424.71C202.369 423.619 202.906 422.616 203.753 421.921C204.6 421.225 205.689 420.894 206.78 421Z" fill="white" stroke="#263238" stroke-linecap="round" stroke-linejoin="round"/>
<path d="M220.68 424.5C221.779 422.862 223.191 421.457 224.834 420.365C226.476 419.274 228.318 418.516 230.254 418.137C232.19 417.759 234.181 417.765 236.115 418.157C238.048 418.548 239.885 419.318 241.52 420.42C241.93 420.7 242.32 420.99 242.7 421.3C244.814 423.047 246.409 425.341 247.311 427.931C248.213 430.521 248.387 433.309 247.815 435.991C247.243 438.673 245.947 441.148 244.067 443.145C242.187 445.142 239.795 446.585 237.152 447.318C234.509 448.05 231.716 448.044 229.076 447.3C226.436 446.556 224.051 445.103 222.179 443.098C220.308 441.093 219.022 438.613 218.462 435.928C217.901 433.243 218.087 430.456 219 427.87C219.414 426.68 219.979 425.547 220.68 424.5Z" fill="white" stroke="#263238" stroke-linecap="round" stroke-linejoin="round"/>
<path d="M204.52 440.08L223.12 426.17L226.11 430.16L207.51 444.06L204.52 440.08Z" fill="#263238" stroke="#263238" stroke-linecap="round" stroke-linejoin="round"/>
<path d="M202.59 439.87L207.7 436L212.24 442L207.13 445.83C206.328 446.43 205.32 446.688 204.328 446.545C203.336 446.403 202.441 445.872 201.84 445.07C201.264 444.276 201.02 443.289 201.16 442.318C201.3 441.347 201.813 440.469 202.59 439.87Z" fill="white" stroke="#263238" stroke-linecap="round" stroke-linejoin="round"/>
<path d="M228.54 430.46C228.776 429.433 228.702 428.359 228.327 427.374C227.953 426.389 227.294 425.538 226.434 424.928C225.575 424.318 224.553 423.978 223.5 423.949C222.446 423.92 221.408 424.205 220.517 424.768C219.626 425.33 218.921 426.144 218.494 427.107C218.066 428.071 217.934 429.139 218.114 430.177C218.294 431.216 218.779 432.177 219.506 432.939C220.234 433.702 221.171 434.231 222.2 434.46C223.571 434.765 225.007 434.516 226.194 433.766C227.382 433.017 228.225 431.829 228.54 430.46Z" fill="white" stroke="#263238" stroke-linecap="round" stroke-linejoin="round"/>
<path d="M238.4 454.06L241.16 434.98L245.25 435.56L242.5 454.64L238.4 454.06Z" fill="#263238" stroke="#263238" stroke-linecap="round" stroke-linejoin="round"/>
<path d="M237.15 455.07L237.9 449.82L244.11 450.71L243.36 455.95C243.302 456.359 243.165 456.752 242.955 457.107C242.745 457.462 242.468 457.773 242.138 458.021C241.809 458.269 241.433 458.449 241.034 458.552C240.634 458.655 240.218 458.678 239.81 458.62C238.987 458.501 238.245 458.061 237.746 457.395C237.247 456.73 237.033 455.893 237.15 455.07Z" fill="white" stroke="#263238" stroke-linecap="round" stroke-linejoin="round"/>
<path d="M246.85 434.31C246.379 433.576 245.701 432.999 244.903 432.65C244.104 432.301 243.219 432.197 242.361 432.351C241.503 432.505 240.71 432.909 240.082 433.513C239.453 434.117 239.018 434.894 238.831 435.746C238.644 436.597 238.714 437.485 239.031 438.297C239.348 439.109 239.899 439.808 240.613 440.307C241.328 440.807 242.175 441.083 243.046 441.101C243.918 441.119 244.775 440.879 245.51 440.41C246.496 439.778 247.191 438.781 247.442 437.637C247.693 436.493 247.48 435.297 246.85 434.31Z" fill="white" stroke="#263238" stroke-linecap="round" stroke-linejoin="round"/>
<path d="M219.99 451.52L232.39 431.88L236.6 434.52L224.21 454.17L219.99 451.52Z" fill="#263238" stroke="#263238" stroke-linecap="round" stroke-linejoin="round"/>
<path d="M218.12 452L221.51 446.6L227.92 450.6L224.52 456.01C223.985 456.856 223.137 457.457 222.16 457.68C221.184 457.903 220.159 457.73 219.31 457.2C218.464 456.667 217.864 455.82 217.641 454.846C217.418 453.871 217.59 452.848 218.12 452Z" fill="white" stroke="#263238" stroke-linecap="round" stroke-linejoin="round"/>
<path d="M239 433.94C238.852 432.899 238.398 431.925 237.695 431.142C236.992 430.359 236.073 429.803 235.054 429.543C234.035 429.283 232.961 429.332 231.97 429.684C230.978 430.035 230.113 430.673 229.485 431.516C228.857 432.36 228.493 433.371 228.44 434.422C228.387 435.472 228.647 436.515 229.188 437.417C229.728 438.319 230.524 439.041 231.476 439.49C232.427 439.939 233.49 440.096 234.53 439.94C235.917 439.735 237.167 438.988 238.005 437.863C238.842 436.739 239.2 435.328 239 433.94Z" fill="white" stroke="#263238" stroke-linecap="round" stroke-linejoin="round"/>
<path d="M216.028 378.249C225.428 372.199 228.142 359.674 222.092 350.275C216.042 340.876 203.517 338.161 194.118 344.211C184.719 350.262 182.004 362.786 188.054 372.186C194.105 381.585 206.629 384.3 216.028 378.249Z" fill="white" stroke="#263238" stroke-linecap="round" stroke-linejoin="round"/>
<path d="M213.998 365.327C216.257 360.403 214.096 354.58 209.171 352.321C204.247 350.062 198.423 352.223 196.165 357.148C193.906 362.072 196.067 367.895 200.991 370.154C205.916 372.413 211.739 370.252 213.998 365.327Z" fill="#263238" stroke="#263238" stroke-linecap="round" stroke-linejoin="round"/>
<path d="M164.04 321.12C181.995 321.12 196.55 306.565 196.55 288.61C196.55 270.655 181.995 256.1 164.04 256.1C146.085 256.1 131.53 270.655 131.53 288.61C131.53 306.565 146.085 321.12 164.04 321.12Z" fill="#0077B6" stroke="#263238" stroke-linecap="round" stroke-linejoin="round"/>
<path d="M210.52 310.26C217.502 301.507 221.871 290.961 223.126 279.834C224.38 268.708 222.468 257.454 217.611 247.366C212.753 237.278 205.147 228.765 195.666 222.808C186.186 216.851 175.217 213.691 164.02 213.691C152.823 213.691 141.854 216.851 132.374 222.808C122.893 228.765 115.287 237.278 110.429 247.366C105.572 257.454 103.66 268.708 104.915 279.834C106.169 290.961 110.538 301.507 117.52 310.26H210.52Z" fill="white" stroke="#263238" stroke-linecap="round" stroke-linejoin="round"/>
<path d="M200.42 250.72H126.16C121.642 250.72 117.98 254.382 117.98 258.9V285.22C117.98 289.738 121.642 293.4 126.16 293.4H200.42C204.938 293.4 208.6 289.738 208.6 285.22V258.9C208.6 254.382 204.938 250.72 200.42 250.72Z" fill="#0077B6" stroke="#263238" stroke-linecap="round" stroke-linejoin="round"/>
<path d="M127.78 270.33C128.762 267.58 130.552 265.191 132.916 263.476C135.279 261.761 138.105 260.8 141.024 260.719C143.943 260.638 146.818 261.441 149.272 263.022C151.727 264.603 153.647 266.889 154.78 269.58" stroke="#263238" stroke-width="5" stroke-linecap="round" stroke-linejoin="round"/>
<path d="M172.57 270.33C173.552 267.58 175.342 265.191 177.706 263.476C180.069 261.761 182.895 260.8 185.814 260.719C188.733 260.638 191.608 261.441 194.062 263.022C196.517 264.603 198.437 266.889 199.57 269.58" stroke="#263238" stroke-width="5" stroke-linecap="round" stroke-linejoin="round"/>
<path d="M156.2 280.22C156.451 282.203 157.417 284.026 158.917 285.348C160.416 286.67 162.346 287.399 164.345 287.399C166.344 287.399 168.274 286.67 169.774 285.348C171.273 284.026 172.239 282.203 172.49 280.22H156.2Z" fill="white" stroke="#263238" stroke-linecap="round" stroke-linejoin="round"/>
<path d="M241 283.6C239.351 283.6 237.769 282.945 236.602 281.778C235.436 280.612 234.78 279.03 234.78 277.38V263.23C234.779 262.412 234.939 261.602 235.251 260.847C235.563 260.091 236.021 259.404 236.599 258.825C237.176 258.247 237.862 257.788 238.618 257.474C239.373 257.161 240.183 257 241 257C241.818 256.999 242.628 257.159 243.384 257.471C244.139 257.783 244.826 258.241 245.405 258.818C245.984 259.396 246.443 260.082 246.756 260.837C247.069 261.593 247.23 262.402 247.23 263.22V277.37C247.232 278.189 247.071 278.999 246.759 279.756C246.446 280.512 245.987 281.199 245.409 281.778C244.83 282.357 244.142 282.816 243.386 283.128C242.63 283.441 241.819 283.601 241 283.6Z" fill="#263238" stroke="#263238" stroke-linecap="round" stroke-linejoin="round"/>
<path d="M85.3804 283.6C84.5627 283.601 83.7528 283.441 82.997 283.129C82.2412 282.817 81.5544 282.359 80.9757 281.782C80.3971 281.204 79.938 280.518 79.6248 279.763C79.3116 279.007 79.1504 278.198 79.1504 277.38V263.23C79.1491 262.412 79.3093 261.601 79.6219 260.844C79.9346 260.088 80.3934 259.401 80.9722 258.822C81.551 258.243 82.2383 257.784 82.9947 257.472C83.7512 257.159 84.5619 256.999 85.3804 257C86.1972 257 87.006 257.161 87.7607 257.473C88.5153 257.786 89.201 258.244 89.7786 258.822C90.3562 259.399 90.8143 260.085 91.1269 260.84C91.4395 261.594 91.6004 262.403 91.6004 263.22V277.37C91.6017 278.188 91.4418 278.998 91.1298 279.753C90.8178 280.509 90.3599 281.196 89.7821 281.775C89.2044 282.353 88.5183 282.812 87.763 283.126C87.0077 283.439 86.1981 283.6 85.3804 283.6Z" fill="#263238" stroke="#263238" stroke-linecap="round" stroke-linejoin="round"/>
<path d="M105.32 219.75C99.8181 227.879 96.8847 237.474 96.9 247.29V257.57" stroke="#263238" stroke-width="14" stroke-linecap="round" stroke-linejoin="round"/>
<path d="M223.4 219.79C218.898 213.082 212.814 207.585 205.684 203.785C198.555 199.985 190.599 197.998 182.52 198H146.17C138.103 197.994 130.157 199.972 123.034 203.76C115.91 207.548 109.827 213.028 105.32 219.72" stroke="#263238" stroke-width="7" stroke-linecap="round" stroke-linejoin="round"/>
<path d="M231.78 257.57V247.29C231.796 237.492 228.877 227.914 223.4 219.79" stroke="#263238" stroke-width="14" stroke-linecap="round" stroke-linejoin="round"/>
<path d="M101.86 246.5H93.5203C88.6933 246.5 84.7803 250.413 84.7803 255.24V284.13C84.7803 288.957 88.6933 292.87 93.5203 292.87H101.86C106.687 292.87 110.6 288.957 110.6 284.13V255.24C110.6 250.413 106.687 246.5 101.86 246.5Z" fill="white" stroke="#263238" stroke-linecap="round" stroke-linejoin="round"/>
<path d="M99.0104 246.5H96.3804V292.87H99.0104V246.5Z" fill="#0077B6" stroke="#263238" stroke-linecap="round" stroke-linejoin="round"/>
<path d="M233.58 246.5H225.24C220.413 246.5 216.5 250.413 216.5 255.24V284.13C216.5 288.957 220.413 292.87 225.24 292.87H233.58C238.407 292.87 242.32 288.957 242.32 284.13V255.24C242.32 250.413 238.407 246.5 233.58 246.5Z" fill="white" stroke="#263238" stroke-linecap="round" stroke-linejoin="round"/>
<path d="M230.73 246.5H228.1V292.87H230.73V246.5Z" fill="#0077B6" stroke="#263238" stroke-linecap="round" stroke-linejoin="round"/>
<path d="M164.25 242.29C168.806 242.291 173.289 241.151 177.291 238.975C181.292 236.799 184.686 233.655 187.16 229.83L192.8 221.1C183.863 216.164 173.806 213.613 163.596 213.692C153.387 213.771 143.37 216.477 134.51 221.55L143 232.09C145.554 235.271 148.789 237.838 152.467 239.604C156.144 241.369 160.171 242.287 164.25 242.29Z" fill="#0077B6" stroke="#263238" stroke-linecap="round" stroke-linejoin="round"/>
<path d="M165.66 297.72C165.66 297.522 165.602 297.329 165.492 297.164C165.382 297 165.226 296.872 165.043 296.796C164.86 296.72 164.659 296.701 164.465 296.739C164.271 296.778 164.093 296.873 163.953 297.013C163.813 297.153 163.718 297.331 163.679 297.525C163.641 297.719 163.661 297.92 163.736 298.103C163.812 298.285 163.94 298.442 164.105 298.551C164.269 298.661 164.462 298.72 164.66 298.72C164.925 298.72 165.18 298.615 165.367 298.427C165.555 298.24 165.66 297.985 165.66 297.72Z" fill="#263238"/>
<path d="M165.66 301.08C165.66 300.882 165.602 300.689 165.492 300.524C165.382 300.36 165.226 300.232 165.043 300.156C164.86 300.08 164.659 300.061 164.465 300.099C164.271 300.138 164.093 300.233 163.953 300.373C163.813 300.513 163.718 300.691 163.679 300.885C163.641 301.079 163.661 301.28 163.736 301.463C163.812 301.645 163.94 301.802 164.105 301.911C164.269 302.021 164.462 302.08 164.66 302.08C164.925 302.08 165.18 301.975 165.367 301.787C165.555 301.6 165.66 301.345 165.66 301.08Z" fill="#263238"/>
<path d="M161.85 300.56C162.033 300.442 162.172 300.268 162.247 300.064C162.322 299.86 162.328 299.637 162.265 299.429C162.201 299.221 162.072 299.039 161.896 298.911C161.72 298.783 161.508 298.716 161.29 298.72C161.108 298.838 160.968 299.012 160.894 299.216C160.819 299.42 160.813 299.643 160.876 299.851C160.939 300.059 161.068 300.241 161.244 300.369C161.42 300.497 161.633 300.564 161.85 300.56Z" fill="#263238"/>
<path d="M167.86 300.56C168.015 300.557 168.167 300.519 168.304 300.447C168.441 300.376 168.56 300.274 168.651 300.148C168.742 300.023 168.803 299.879 168.829 299.726C168.854 299.574 168.844 299.417 168.799 299.269C168.754 299.121 168.675 298.985 168.569 298.873C168.463 298.761 168.332 298.674 168.186 298.621C168.041 298.568 167.885 298.549 167.732 298.566C167.578 298.583 167.43 298.636 167.3 298.72C167.146 298.723 166.994 298.761 166.856 298.833C166.719 298.904 166.6 299.007 166.509 299.132C166.418 299.257 166.357 299.401 166.332 299.554C166.306 299.707 166.316 299.863 166.361 300.011C166.406 300.159 166.485 300.295 166.591 300.407C166.698 300.519 166.829 300.606 166.974 300.659C167.119 300.712 167.275 300.731 167.429 300.714C167.583 300.697 167.73 300.644 167.86 300.56Z" fill="#263238"/>
<path d="M204 335.24C191.27 332.37 163.71 331.34 163.71 331.34C157.07 331.55 138.59 332.34 125.86 335.25C123.45 335.797 121.353 337.273 120.024 339.357C118.695 341.44 118.241 343.964 118.76 346.38L130.55 401.54C131.129 404.215 132.605 406.611 134.733 408.331C136.861 410.052 139.513 410.994 142.25 411H187.7C190.437 410.994 193.089 410.052 195.217 408.331C197.345 406.611 198.821 404.215 199.4 401.54L211.18 346.38C211.697 343.951 211.233 341.417 209.887 339.329C208.542 337.242 206.426 335.772 204 335.24Z" fill="white" stroke="#263238" stroke-linecap="round" stroke-linejoin="round"/>
<path d="M198.2 334.18C184.39 332.12 163.74 331.34 163.74 331.34C153.629 331.63 143.541 332.464 133.52 333.84L146.88 411H183.19L198.2 334.18Z" fill="#0077B6" stroke="#263238" stroke-linecap="round" stroke-linejoin="round"/>
<path d="M175.66 348.11H153.54C149.023 348.11 145.36 351.772 145.36 356.29V367.09C145.36 371.608 149.023 375.27 153.54 375.27H175.66C180.178 375.27 183.84 371.608 183.84 367.09V356.29C183.84 351.772 180.178 348.11 175.66 348.11Z" fill="white" stroke="#263238" stroke-linecap="round" stroke-linejoin="round"/>
<path d="M158.14 359.3H151.91V365.53H158.14V359.3Z" fill="white" stroke="#263238" stroke-linecap="round" stroke-linejoin="round"/>
<path d="M167.71 359.3H161.48V365.53H167.71V359.3Z" fill="white" stroke="#263238" stroke-linecap="round" stroke-linejoin="round"/>
<path d="M177.29 359.3H171.06V365.53H177.29V359.3Z" fill="white" stroke="#263238" stroke-linecap="round" stroke-linejoin="round"/>
<path d="M77.0601 393.56H187.9C189.226 393.56 190.498 394.087 191.436 395.025C192.373 395.962 192.9 397.234 192.9 398.56V460.83H72.0601V398.56C72.0601 397.234 72.5868 395.962 73.5245 395.025C74.4622 394.087 75.734 393.56 77.0601 393.56Z" fill="white" stroke="#263238" stroke-linecap="round" stroke-linejoin="round"/>
<path d="M192.9 415.94C177.72 419.79 162.14 429.59 133.11 443.39C105.11 456.71 82.1901 456.48 72.0601 455.45V460.83H192.9V415.94Z" fill="#263238" stroke="#263238" stroke-linecap="round" stroke-linejoin="round"/>
<path d="M192.9 457.1H72.0601V460.84H192.9V457.1Z" fill="white" stroke="#263238" stroke-linecap="round" stroke-linejoin="round"/>
<path d="M138.71 427.2C138.71 428.432 138.345 429.637 137.66 430.661C136.975 431.686 136.003 432.484 134.864 432.956C133.726 433.427 132.473 433.551 131.265 433.31C130.056 433.07 128.946 432.477 128.075 431.605C127.203 430.734 126.61 429.624 126.37 428.415C126.129 427.207 126.253 425.954 126.724 424.816C127.196 423.678 127.994 422.705 129.019 422.02C130.043 421.335 131.248 420.97 132.48 420.97C134.132 420.97 135.717 421.626 136.885 422.795C138.054 423.963 138.71 425.548 138.71 427.2Z" fill="white" stroke="#263238" stroke-linecap="round" stroke-linejoin="round"/>
</svg>
