<svg width="51" height="50" viewBox="0 0 51 50" fill="none" xmlns="http://www.w3.org/2000/svg">
<path fill-rule="evenodd" clip-rule="evenodd" d="M8.83301 10.4167V39.5833C8.83301 43.0351 11.6312 45.8333 15.083 45.8333H35.9163C39.3681 45.8333 42.1663 43.0351 42.1663 39.5833V18.75C42.1663 15.2982 39.3681 12.5 35.9163 12.5H10.9163C9.76575 12.5 8.83301 11.5673 8.83301 10.4167ZM15.6038 25C15.6038 24.1371 16.3034 23.4375 17.1663 23.4375H33.833C34.696 23.4375 35.3955 24.1371 35.3955 25C35.3955 25.8629 34.696 26.5625 33.833 26.5625H17.1663C16.3034 26.5625 15.6038 25.8629 15.6038 25ZM15.6038 32.2917C15.6038 31.4287 16.3034 30.7292 17.1663 30.7292H28.6247C29.4876 30.7292 30.1872 31.4287 30.1872 32.2917C30.1872 33.1546 29.4876 33.8542 28.6247 33.8542H17.1663C16.3034 33.8542 15.6038 33.1546 15.6038 32.2917Z" fill="#0077B6"/>
<path d="M9.68464 8.51479C10.4106 8.84038 10.9163 9.56947 10.9163 10.4167H35.9163C36.6357 10.4167 37.3338 10.5078 37.9997 10.6792V8.97092C37.9997 6.43529 35.7539 4.48754 33.2438 4.84613L10.7488 8.05969C10.3478 8.11697 9.98448 8.27863 9.68464 8.51479Z" fill="#0077B6"/>
</svg>
