<svg width="51" height="50" viewBox="0 0 51 50" fill="none" xmlns="http://www.w3.org/2000/svg">
<path fill-rule="evenodd" clip-rule="evenodd" d="M8.83398 10.4167V39.5833C8.83398 43.0351 11.6322 45.8333 15.084 45.8333H35.9173C39.3691 45.8333 42.1673 43.0351 42.1673 39.5833V18.75C42.1673 15.2982 39.3691 12.5 35.9173 12.5H10.9173C9.76672 12.5 8.83398 11.5673 8.83398 10.4167ZM15.6048 25C15.6048 24.1371 16.3044 23.4375 17.1673 23.4375H33.834C34.6969 23.4375 35.3965 24.1371 35.3965 25C35.3965 25.8629 34.6969 26.5625 33.834 26.5625H17.1673C16.3044 26.5625 15.6048 25.8629 15.6048 25ZM15.6048 32.2917C15.6048 31.4287 16.3044 30.7292 17.1673 30.7292H28.6257C29.4886 30.7292 30.1882 31.4287 30.1882 32.2917C30.1882 33.1546 29.4886 33.8542 28.6257 33.8542H17.1673C16.3044 33.8542 15.6048 33.1546 15.6048 32.2917Z" fill="#AEC6D3"/>
<path d="M9.68562 8.51479C10.4116 8.84038 10.9173 9.56947 10.9173 10.4167H35.9173C36.6367 10.4167 37.3348 10.5078 38.0007 10.6792V8.97092C38.0007 6.43529 35.7549 4.48754 33.2447 4.84613L10.7498 8.05969C10.3488 8.11697 9.98546 8.27863 9.68562 8.51479Z" fill="#AEC6D3"/>
</svg>
