<svg width="241" height="241" viewBox="0 0 241 241" fill="none" xmlns="http://www.w3.org/2000/svg">
<path d="M201.327 24.9869C186.65 15.8578 169.057 14.8649 153.555 22.466C140.354 28.92 130.082 39.8951 116.866 46.3539C98.8099 55.189 78.9853 60.0186 60.7319 68.4825C42.4786 76.9465 25.0061 90.2111 18.4605 109.24C10.7485 131.716 13.4574 158.144 25.2519 178.692C44.4259 212.09 82.4557 223.952 119.068 223.518C196.434 222.607 236.286 128.906 223.662 61.5658C220.905 46.9757 214.186 32.9832 201.327 24.9869Z" fill="#0077B6"/>
<path opacity="0.7" d="M201.327 24.9869C186.65 15.8578 169.057 14.8649 153.555 22.466C140.354 28.92 130.082 39.8951 116.866 46.3539C98.8099 55.189 78.9853 60.0186 60.7319 68.4825C42.4786 76.9465 25.0061 90.2111 18.4605 109.24C10.7485 131.716 13.4574 158.144 25.2519 178.692C44.4259 212.09 82.4557 223.952 119.068 223.518C196.434 222.607 236.286 128.906 223.662 61.5658C220.905 46.9757 214.186 32.9832 201.327 24.9869Z" fill="white"/>
<path d="M58.1336 149.55L54.0848 150.283L53.2895 145.897L48.4792 146.769L49.2745 151.155L45.2305 151.888L46.1318 156.867L50.1758 156.134L50.9711 160.52L55.7815 159.653L54.9862 155.262L59.035 154.529L58.1336 149.55Z" stroke="#0077B6" stroke-linecap="round" stroke-linejoin="round"/>
<path d="M98.5542 82.3593L94.6741 80.9905L96.1587 76.7874L91.5507 75.1583L90.0662 79.3613L86.1861 77.9924L84.5039 82.7642L88.3792 84.1331L86.8946 88.341L91.5025 89.9653L92.9919 85.7623L96.8672 87.1312L98.5542 82.3593Z" stroke="#0077B6" stroke-linecap="round" stroke-linejoin="round"/>
<path d="M196.42 132.593L192.785 134.517L190.698 130.574L186.375 132.859L188.462 136.801L184.828 138.724L187.194 143.197L190.829 141.274L192.916 145.212L197.239 142.927L195.152 138.985L198.786 137.062L196.42 132.593Z" stroke="#0077B6" stroke-linecap="round" stroke-linejoin="round"/>
<path d="M41.2252 139.1C42.8544 139.1 44.1751 137.78 44.1751 136.151C44.1751 134.521 42.8544 133.201 41.2252 133.201C39.5961 133.201 38.2754 134.521 38.2754 136.151C38.2754 137.78 39.5961 139.1 41.2252 139.1Z" stroke="#0077B6" stroke-linecap="round" stroke-linejoin="round"/>
<path d="M87.1745 96.7133C87.1745 96.8677 87.1287 97.0187 87.0429 97.1471C86.9571 97.2755 86.8351 97.3756 86.6924 97.4347C86.5498 97.4938 86.3928 97.5093 86.2413 97.4791C86.0898 97.449 85.9507 97.3746 85.8415 97.2654C85.7323 97.1562 85.6579 97.0171 85.6278 96.8656C85.5977 96.7142 85.6131 96.5572 85.6722 96.4145C85.7313 96.2718 85.8314 96.1499 85.9598 96.0641C86.0882 95.9783 86.2392 95.9325 86.3936 95.9325C86.6007 95.9325 86.7993 96.0147 86.9458 96.1612C87.0922 96.3076 87.1745 96.5062 87.1745 96.7133Z" stroke="#0077B6" stroke-linecap="round" stroke-linejoin="round"/>
<path d="M51.4438 83.3185C51.4438 83.8638 51.2821 84.3969 50.9791 84.8503C50.6762 85.3037 50.2456 85.657 49.7418 85.8657C49.238 86.0744 48.6837 86.129 48.1489 86.0226C47.614 85.9162 47.1228 85.6536 46.7372 85.2681C46.3516 84.8825 46.089 84.3912 45.9827 83.8564C45.8763 83.3216 45.9309 82.7672 46.1396 82.2635C46.3482 81.7597 46.7016 81.3291 47.155 81.0261C47.6084 80.7232 48.1414 80.5615 48.6867 80.5615C49.4176 80.5628 50.1181 80.8536 50.6348 81.3704C51.1516 81.8872 51.4425 82.5877 51.4438 83.3185Z" stroke="#0077B6" stroke-linecap="round" stroke-linejoin="round"/>
<path d="M172.922 120.664C172.922 120.973 172.831 121.275 172.659 121.532C172.487 121.788 172.243 121.988 171.958 122.107C171.673 122.225 171.359 122.256 171.056 122.196C170.753 122.135 170.475 121.987 170.256 121.768C170.038 121.55 169.889 121.271 169.829 120.969C169.769 120.666 169.8 120.352 169.918 120.066C170.036 119.781 170.236 119.537 170.493 119.365C170.75 119.194 171.052 119.102 171.361 119.102C171.775 119.102 172.172 119.267 172.465 119.56C172.758 119.852 172.922 120.25 172.922 120.664Z" stroke="#0077B6" stroke-linecap="round" stroke-linejoin="round"/>
<path d="M157.137 73.0664C159.067 73.0664 160.631 71.5019 160.631 69.5719C160.631 67.6419 159.067 66.0774 157.137 66.0774C155.207 66.0774 153.642 67.6419 153.642 69.5719C153.642 71.5019 155.207 73.0664 157.137 73.0664Z" stroke="#0077B6" stroke-linecap="round" stroke-linejoin="round"/>
<path d="M135.62 100.984C135.804 101.259 141.332 102.362 144.2 106.532C145.869 108.927 147.268 111.499 148.374 114.2C148.374 114.2 153.17 117.054 155.628 119.406C158.086 121.758 161.017 124.881 163.278 126.52C165.538 128.159 170.189 131.268 171.361 134.907C171.361 134.907 164.386 154.009 162.415 158.231C160.443 162.453 155.58 171.414 155.58 171.414L146.904 208.272H96.5784L94.8625 195.629C94.8625 195.629 79.4385 192.602 72.9942 186.953C72.9942 186.953 72.3869 172.975 75.0812 160.506C77.7756 148.037 86.9384 122.11 93.1466 114.191C93.1466 114.191 103.061 109.448 111.81 107.925C111.81 107.925 117.488 103.437 121.204 102.96C124.92 102.483 135.62 100.984 135.62 100.984Z" fill="white"/>
<path d="M95.5424 201.327C100.011 202.18 103.905 202.917 108.455 202.864C113.005 202.811 117.652 201.789 121.373 199.182C122.092 198.583 122.906 198.111 123.783 197.784C125.759 197.23 127.716 198.536 129.678 199.143C132.165 199.914 134.893 199.548 137.332 198.623C139.771 197.697 141.964 196.256 144.138 194.82C143.816 199.254 143.712 203.696 143.824 208.147L146.924 208.272L154.862 173.342C154.862 173.342 141.284 189.113 134.666 193.822L121.97 190.554C121.97 190.554 120.775 191.547 118.259 192.048C118.259 192.048 117.107 196.478 110.629 196.487C104.151 196.497 94.8628 195.629 94.8628 195.629L95.5424 201.327Z" fill="#0077B6"/>
<path opacity="0.5" d="M95.5424 201.327C100.011 202.18 103.905 202.917 108.455 202.864C113.005 202.811 117.652 201.789 121.373 199.182C122.092 198.583 122.906 198.111 123.783 197.784C125.759 197.23 127.716 198.536 129.678 199.143C132.165 199.914 134.893 199.548 137.332 198.623C139.771 197.697 141.964 196.256 144.138 194.82C143.816 199.254 143.712 203.696 143.824 208.147L146.924 208.272L154.862 173.342C154.862 173.342 141.284 189.113 134.666 193.822L121.97 190.554C121.97 190.554 120.775 191.547 118.259 192.048C118.259 192.048 117.107 196.478 110.629 196.487C104.151 196.497 94.8628 195.629 94.8628 195.629L95.5424 201.327Z" fill="white"/>
<path d="M82.5333 136.151C82.5333 136.151 76.6384 164.767 76.9372 174.595C76.9372 174.595 84.9481 172.349 90.5393 174.595C90.5393 174.595 81.0246 173.534 76.9276 177.897C72.8306 182.259 85.4397 193.721 110.668 191.393C110.668 191.393 115.7 192.969 118.254 192.043C118.254 192.043 117.57 196.603 110.624 196.482C103.708 196.208 83.4732 196.039 72.9897 186.958C72.9945 186.963 71.6738 160.655 82.5333 136.151Z" fill="#0077B6"/>
<path opacity="0.6" d="M82.5333 136.151C82.5333 136.151 76.6384 164.767 76.9372 174.595C76.9372 174.595 84.9481 172.349 90.5393 174.595C90.5393 174.595 81.0246 173.534 76.9276 177.897C72.8306 182.259 85.4397 193.721 110.668 191.393C110.668 191.393 115.7 192.969 118.254 192.043C118.254 192.043 117.57 196.603 110.624 196.482C103.708 196.208 83.4732 196.039 72.9897 186.958C72.9945 186.963 71.6738 160.655 82.5333 136.151Z" fill="white"/>
<path d="M94.5879 141.636C94.5879 141.636 96.3279 154.307 99.138 156.958C101.948 159.609 115.044 158.742 120.23 161.6C120.23 161.6 125.113 153.141 133.943 147.849L121.97 166.7L111.622 164.256L98.9885 162.328L97.9281 164.767H96.0291C96.0291 164.767 95.817 151.242 94.5879 141.636Z" fill="#0077B6"/>
<path opacity="0.5" d="M94.5879 141.636C94.5879 141.636 96.3279 154.307 99.138 156.958C101.948 159.609 115.044 158.742 120.23 161.6C120.23 161.6 125.113 153.141 133.943 147.849L121.97 166.7L111.622 164.256L98.9885 162.328L97.9281 164.767H96.0291C96.0291 164.767 95.817 151.242 94.5879 141.636Z" fill="white"/>
<path d="M144.084 115.825C149.497 119.011 150.105 122.602 151.218 125.166C148.403 125.725 145.492 126.323 143.169 128.005C140.277 130.106 138.71 133.586 137.496 136.965C136.346 140.163 135.381 143.423 134.604 146.73C137.22 142.004 140.939 137.979 145.444 134.999C148.042 133.283 151.252 131.899 154.216 132.868C151.729 133.924 148.914 135.35 148.389 138.001C148.285 138.441 148.304 138.901 148.442 139.332C148.885 140.58 150.437 140.918 151.613 141.525C153.908 142.706 155.103 145.381 155.204 147.974C155.305 150.567 154.51 153.074 153.724 155.527C153.034 157.677 152.343 159.826 151.652 161.976C150.77 164.723 149.873 167.509 148.278 169.919C146.682 172.329 144.287 174.349 141.438 174.821C140.247 175.051 139.015 174.912 137.905 174.421C137.064 173.964 136.282 173.406 135.577 172.758C132.16 169.999 128.053 168.225 123.701 167.63C129.302 171.332 131.952 178.056 134.276 184.355C133.209 182.488 131.672 180.933 129.817 179.844C129.342 179.513 128.777 179.335 128.198 179.333C126.675 179.453 126.193 181.396 125.277 182.611C124.178 184.057 122.168 184.572 120.365 184.341C118.563 184.11 116.904 183.266 115.285 182.413L94.7951 171.847L93.3491 176.185C93.3491 176.185 109.67 189.199 134.676 193.803C134.676 193.803 150.919 180.967 156.674 169.587C162.429 158.207 171.37 134.883 171.37 134.883C171.37 134.883 168.098 128.684 162.487 125.45C162.487 125.45 158.299 123.469 157.417 121.021C156.534 118.572 148.663 114.345 148.663 114.345C148.663 114.345 149.685 116.957 144.084 115.825Z" fill="#0077B6"/>
<path opacity="0.6" d="M144.084 115.825C149.497 119.011 150.105 122.602 151.218 125.166C148.403 125.725 145.492 126.323 143.169 128.005C140.277 130.106 138.71 133.586 137.496 136.965C136.346 140.163 135.381 143.423 134.604 146.73C137.22 142.004 140.939 137.979 145.444 134.999C148.042 133.283 151.252 131.899 154.216 132.868C151.729 133.924 148.914 135.35 148.389 138.001C148.285 138.441 148.304 138.901 148.442 139.332C148.885 140.58 150.437 140.918 151.613 141.525C153.908 142.706 155.103 145.381 155.204 147.974C155.305 150.567 154.51 153.074 153.724 155.527C153.034 157.677 152.343 159.826 151.652 161.976C150.77 164.723 149.873 167.509 148.278 169.919C146.682 172.329 144.287 174.349 141.438 174.821C140.247 175.051 139.015 174.912 137.905 174.421C137.064 173.964 136.282 173.406 135.577 172.758C132.16 169.999 128.053 168.225 123.701 167.63C129.302 171.332 131.952 178.056 134.276 184.355C133.209 182.488 131.672 180.933 129.817 179.844C129.342 179.513 128.777 179.335 128.198 179.333C126.675 179.453 126.193 181.396 125.277 182.611C124.178 184.057 122.168 184.572 120.365 184.341C118.563 184.11 116.904 183.266 115.285 182.413L94.7951 171.847L93.3491 176.185C93.3491 176.185 109.67 189.199 134.676 193.803C134.676 193.803 150.919 180.967 156.674 169.587C162.429 158.207 171.37 134.883 171.37 134.883C171.37 134.883 168.098 128.684 162.487 125.45C162.487 125.45 158.299 123.469 157.417 121.021C156.534 118.572 148.663 114.345 148.663 114.345C148.663 114.345 149.685 116.957 144.084 115.825Z" fill="white"/>
<path d="M142.364 71.4565C142.364 71.4565 143.458 58.698 137.958 57.4785C132.459 56.259 129.369 51.2125 129.369 51.2125L109.858 56.6591L106.831 68.391L108.759 74.3292C108.759 74.3292 109.163 79.8385 109.241 82.5618C109.318 85.2851 109.241 87.3818 111.304 90.6883C113.366 93.9948 115.285 97.2772 119.743 100.135V107.65C119.743 107.65 116.986 115.694 118.509 120.63C118.509 120.63 119.42 121.594 121.936 120.148C124.452 118.702 135.216 111.511 138.97 104.001L140.137 84.9091C140.137 84.9091 143.236 85.3911 144.571 82.5666C146.533 79.8047 146.456 76.585 145.694 73.9629C144.933 71.3408 141.655 73.0375 141.655 73.0375L142.364 71.4565Z" fill="#FFEDCF"/>
<path d="M119.956 90.1629C120.507 89.5622 121.187 89.0933 121.945 88.7913C122.702 88.4892 123.518 88.3617 124.332 88.4181C124.332 88.4181 126.679 84.7115 129.152 85.3911C129.152 85.3911 129.914 89.3194 126.949 90.8666C123.093 92.8766 119.956 90.1629 119.956 90.1629Z" fill="#FF8F8F"/>
<path d="M112.706 55.0348C112.706 55.0348 108.036 61.1706 108.306 67.5668C108.576 73.9629 109.506 78.4985 109.236 83.4342C108.966 88.3699 114.172 96.6362 119.507 99.9668C123.494 102.459 128.492 102.035 132.372 99.4848C136.71 96.5928 139.096 91.3968 139.968 86.4081C140.055 85.9261 140.123 85.4441 140.171 84.9236" stroke="#263238" stroke-linecap="round" stroke-linejoin="round"/>
<path d="M119.508 99.9716C119.508 99.9716 120.264 106.883 119.508 109.25C118.674 111.848 117.666 117.897 118.544 120.63C119.421 123.363 135.833 111.877 139.004 103.996C139.004 103.996 139.443 88.6832 140.537 84.8561" stroke="#263238" stroke-linecap="round" stroke-linejoin="round"/>
<path d="M119.054 89.9942C119.054 89.9942 126.52 92.1054 129.576 84.3982" stroke="#263238" stroke-linecap="round" stroke-linejoin="round"/>
<path d="M119.657 101.635C119.657 101.635 121.247 106.565 124.679 106.859C128.111 107.153 136.695 100.275 139.621 92.1728V88.1192C139.621 88.1192 137.211 98.7232 130.155 100.651C123.098 102.579 119.797 100.126 119.797 100.126L119.657 101.635Z" fill="#263238"/>
<path d="M129.147 85.3911C125.831 85.1598 124.327 88.4181 124.327 88.4181C123.51 88.3184 122.681 88.4259 121.916 88.7308C121.151 89.0358 120.475 89.5282 119.951 90.1629C120.768 90.8958 121.772 91.3874 122.852 91.5832C123.932 91.7789 125.045 91.671 126.067 91.2715C129.836 89.9605 129.147 85.3911 129.147 85.3911Z" stroke="#263238" stroke-linecap="round" stroke-linejoin="round"/>
<path d="M120.833 70.854C120.874 72.3832 120.806 73.9134 120.63 75.433C120.452 76.7971 119.821 78.1033 119.295 79.3854C118.813 80.5518 118.008 82.3449 118.678 83.574C119.44 84.967 121.97 83.574 121.97 83.574" stroke="#263238" stroke-linecap="round" stroke-linejoin="round"/>
<path d="M123.527 83.2848C124.38 83.4004 125.59 83.2848 125.831 81.805" stroke="#263238" stroke-linecap="round" stroke-linejoin="round"/>
<path d="M126.284 69.0128C127.109 68.226 128.205 67.7871 129.345 67.7871C130.485 67.7871 131.581 68.226 132.406 69.0128" stroke="#263238" stroke-width="2" stroke-linecap="round" stroke-linejoin="round"/>
<path d="M116.557 70.2177C116.557 70.2177 114.297 67.3257 111.337 70.2177" stroke="#263238" stroke-width="2" stroke-linecap="round" stroke-linejoin="round"/>
<path d="M138.397 77.5297C138.397 77.5297 140.976 71.336 144.34 72.6663C146.658 73.5869 146.798 77.5875 145.569 80.3783C144.34 83.1691 143.723 86.0129 139.626 84.4223" stroke="#263238" stroke-linecap="round" stroke-linejoin="round"/>
<path d="M138.855 76.5802C138.855 76.5802 136.377 75.7029 135.92 71.6782C135.462 67.6535 137.929 63.624 137.014 60.732C136.098 57.84 128.882 59.286 127.239 54.2443C127.239 54.2443 121.821 58.2834 111.333 57.4158C111.333 57.4158 109.12 61.1851 108.735 63.489C108.218 67.0914 108.231 70.7499 108.773 74.3485C108.773 74.4738 108.817 74.5943 108.841 74.7196C109.593 78.6431 105.848 69.3791 105.949 65.4218C106.05 61.4646 103.664 56.4374 106.773 52.6922C109.882 48.9471 121.281 46.754 123.527 44.9947C125.773 43.2354 130.14 47.9204 135.187 49.646C140.233 51.3716 144.417 53.4297 143.781 60.5874C143.145 67.7451 143.815 68.7043 143.844 72.4735C143.844 72.4832 141.511 71.6059 138.855 76.5802Z" fill="#263238"/>
<path d="M129.355 74.228C129.355 75.192 128.984 75.9921 128.521 75.9921C128.058 75.9921 127.692 75.2016 127.692 74.228C127.692 73.2543 128.063 72.4687 128.521 72.4687C128.979 72.4687 129.355 73.264 129.355 74.228Z" fill="#263238"/>
<path d="M116.557 74.228C116.557 75.192 116.186 75.9921 115.728 75.9921C115.271 75.9921 114.899 75.2016 114.899 74.228C114.899 73.2543 115.271 72.4687 115.728 72.4687C116.186 72.4687 116.557 73.264 116.557 74.228Z" fill="#263238"/>
<path d="M126.284 76.5801C126.284 76.5801 128.005 78.4069 130.184 78.6672" stroke="#263238" stroke-linecap="round" stroke-linejoin="round"/>
<path d="M114.562 78.6672C114.562 78.6672 117.709 78.4455 118.418 76.5801" stroke="#263238" stroke-linecap="round" stroke-linejoin="round"/>
<path d="M121.879 121.801C124.221 120.312 127.321 120.871 129.885 121.927C131.292 122.51 132.632 123.243 134.035 123.855C134.728 124.161 135.444 124.416 136.175 124.616C137.934 125.074 137.303 122.891 137.202 121.912C137.057 120.51 136.956 119.102 136.787 117.709C136.718 117.421 136.752 117.117 136.884 116.851C137.057 116.637 137.298 116.489 137.568 116.432C140.658 115.468 143.988 115.892 147.208 115.95C147.5 115.984 147.796 115.929 148.056 115.791C148.538 115.478 148.485 114.769 148.355 114.21C147.242 109.448 143.313 104.71 139.043 102.329" stroke="#263238" stroke-linecap="round" stroke-linejoin="round"/>
<path d="M119.777 103.1C117.651 103.987 115.468 104.907 113.636 106.267C112.972 106.751 112.36 107.304 111.81 107.915C111.366 108.337 111.088 108.902 111.024 109.51C111.036 109.793 111.111 110.07 111.243 110.32C111.376 110.57 111.563 110.788 111.79 110.956C112.114 111.223 112.47 111.446 112.851 111.622C113.738 112.041 114.779 112.451 115.155 113.342C115.246 113.529 115.28 113.739 115.251 113.945C115.203 114.126 115.11 114.291 114.981 114.427C114.249 115.318 112.957 116.008 113.053 117.16C113.116 118.051 114.017 118.606 114.817 119.001C115.617 119.396 116.552 119.806 116.827 120.659" stroke="#263238" stroke-linecap="round" stroke-linejoin="round"/>
<path d="M107.192 57.9027C107.506 55.9747 109.52 54.7311 111.458 54.4178C113.396 54.1045 115.386 54.4178 117.338 54.2491C118.971 54.0878 120.55 53.5779 121.969 52.7538C123.387 51.9297 124.612 50.8108 125.561 49.4725" stroke="white" stroke-linecap="round" stroke-linejoin="round"/>
<path d="M109.385 52.485C112.885 50.4172 117.801 52.5669 121.214 50.3594C122.179 49.6563 123.02 48.796 123.701 47.8144" stroke="white" stroke-linecap="round" stroke-linejoin="round"/>
<path d="M154.023 131.586C141.491 134.088 136.816 143.308 136.816 143.308L121.97 166.69" stroke="#263238" stroke-linecap="round" stroke-linejoin="round"/>
<path d="M143.429 129.06C144.469 128.097 145.647 127.295 146.924 126.679" stroke="#263238" stroke-linecap="round" stroke-linejoin="round"/>
<path d="M134.666 146.711C134.666 146.711 136.247 138.267 140.787 132.044" stroke="#263238" stroke-linecap="round" stroke-linejoin="round"/>
<path d="M96.0292 164.728C96.0292 164.728 95.3785 138.859 93.1372 134.907" stroke="#263238" stroke-linecap="round" stroke-linejoin="round"/>
<path d="M148.374 114.2C148.374 114.2 155.604 118.538 158.814 122.616C162.025 126.694 169.611 129.403 171.346 134.907C171.346 134.907 161.355 166.391 150.886 177.771C140.417 189.151 134.652 193.822 134.652 193.822C134.652 193.822 109.467 189.445 93.1323 175.728L98.9742 162.304C98.9742 162.304 115.444 164.386 121.956 166.7C128.468 169.013 134.652 183.025 134.652 183.025" stroke="#263238" stroke-linecap="round" stroke-linejoin="round"/>
<path d="M121.97 166.7C121.97 166.7 133.5 168.941 137.245 174.19" stroke="#263238" stroke-linecap="round" stroke-linejoin="round"/>
<path d="M155.147 172.098L146.924 208.272H96.5787L94.8628 195.629" stroke="#263238" stroke-linecap="round" stroke-linejoin="round"/>
<path d="M118.259 192.048C115.478 197.745 111.81 196.487 111.81 196.487C83.4441 197.562 72.9943 186.963 72.9943 186.963C72.9943 186.963 71.5483 172.055 77.125 151.936C82.7018 131.817 93.1467 114.2 93.1467 114.2C97.7787 111.12 108.113 108.715 111.029 108.079L111.81 107.915" stroke="#263238" stroke-linecap="round" stroke-linejoin="round"/>
<path d="M111.824 196.487C111.824 196.487 110.325 196.241 110.706 186.303" stroke="#263238" stroke-linecap="round" stroke-linejoin="round"/>
<path d="M93.9129 176.364C93.9129 176.364 86.8275 173.867 78.0503 179.94" stroke="#263238" stroke-linecap="round" stroke-linejoin="round"/>
<path d="M79.6411 174.19C79.6411 174.19 88.9244 171.428 93.1371 175.853" stroke="#263238" stroke-linecap="round" stroke-linejoin="round"/>
<path d="M92.1347 175.602L93.3397 176.205L97.9283 164.743C97.9283 164.743 93.1758 163.967 85.647 173.342C87.9979 173.369 90.2758 174.163 92.1347 175.602Z" fill="#FFEDCF" stroke="#263238" stroke-miterlimit="10"/>
<path d="M110.691 186.303V191.397C110.691 191.397 117.184 193.325 121.989 190.554L110.691 186.303Z" fill="#FFEDCF" stroke="#263238" stroke-miterlimit="10"/>
<path d="M145.882 115.897C145.887 115.991 145.877 116.085 145.853 116.176C145.651 116.972 140.701 135.659 124.857 143.973C124.72 144.047 124.566 144.085 124.409 144.084C124.194 144.084 123.985 144.012 123.815 143.879C123.646 143.746 123.525 143.56 123.474 143.351C123.422 143.142 123.442 142.922 123.53 142.725C123.619 142.529 123.77 142.367 123.961 142.267C138.421 134.685 143.516 117.406 143.959 115.815L145.882 115.897Z" fill="#263238"/>
<path d="M111.79 110.942C109.286 116.663 107.934 122.821 107.814 129.065C107.814 129.571 107.814 130.087 107.814 130.612C107.814 130.743 107.814 130.873 107.814 131.003C107.67 131.008 107.527 131.022 107.385 131.046C106.863 131.128 106.358 131.291 105.886 131.528C105.886 130.82 105.886 130.13 105.886 129.451C106.093 118.635 109.322 111.275 111.043 108.093L111.824 107.929C111.381 108.351 111.102 108.917 111.038 109.525C111.053 109.802 111.127 110.072 111.257 110.317C111.387 110.561 111.569 110.775 111.79 110.942Z" fill="#263238"/>
<path d="M130.772 139.626C131.899 141.192 130.974 143.795 128.699 145.439C126.424 147.082 123.667 147.14 122.534 145.574C121.402 144.007 122.327 141.404 124.602 139.761C126.877 138.117 129.658 138.059 130.772 139.626Z" fill="white" stroke="#263238" stroke-linecap="round" stroke-linejoin="round"/>
<path d="M127.967 138.696C128.767 139.804 128.111 141.645 126.521 142.807C124.93 143.969 122.959 144.012 122.183 142.903C121.407 141.795 122.038 139.954 123.629 138.792C125.219 137.63 127.166 137.592 127.967 138.696Z" fill="white" stroke="#263238" stroke-linecap="round" stroke-linejoin="round"/>
<path d="M115.227 158.26C115.022 158.396 114.772 158.449 114.529 158.407C114.286 158.365 114.068 158.231 113.921 158.034C113.773 157.836 113.707 157.59 113.736 157.345C113.765 157.1 113.886 156.876 114.075 156.717C114.157 156.65 117.391 153.898 115.974 144.629C115.854 143.843 115.699 143.005 115.492 142.122C114.88 139.312 113.935 135.755 112.002 133.143C111.543 132.454 110.913 131.895 110.174 131.52C109.435 131.145 108.613 130.967 107.785 131.003C107.641 131.008 107.498 131.022 107.356 131.046C106.834 131.128 106.329 131.291 105.857 131.528C104.417 132.272 103.324 133.548 102.811 135.085L102.637 135.567C101.544 138.523 100.65 141.549 99.9621 144.624C99.1909 148.408 98.9306 152.375 100.3 155.146C100.666 155.907 101.189 156.581 101.833 157.127C102.477 157.673 103.229 158.077 104.04 158.313C104.257 158.384 104.442 158.531 104.562 158.727C104.681 158.922 104.727 159.154 104.691 159.38C104.655 159.606 104.54 159.812 104.366 159.961C104.191 160.11 103.97 160.192 103.741 160.193C103.639 160.192 103.539 160.176 103.442 160.144C102.388 159.828 101.411 159.296 100.573 158.583C99.7352 157.869 99.0544 156.989 98.5739 155.999C97.0315 152.881 97.234 148.634 98.0148 144.624C98.7071 141.326 99.6448 138.084 100.82 134.926L100.994 134.444C101.373 133.297 102.007 132.251 102.85 131.385C103.692 130.519 104.721 129.856 105.857 129.446C106.25 129.31 106.655 129.21 107.067 129.147C107.313 129.113 107.549 129.089 107.799 129.075C108.928 129.044 110.046 129.296 111.051 129.809C112.057 130.322 112.917 131.079 113.555 132.01C115.704 134.902 116.726 138.724 117.377 141.722C117.603 142.754 117.777 143.723 117.907 144.639C119.43 155.03 115.415 158.125 115.227 158.26Z" fill="#263238" stroke="#263238" stroke-miterlimit="10"/>
<path d="M103.066 160.024C103.066 160.024 106.561 161.47 107.448 160.024C108.334 158.578 107.616 157.898 106.406 157.783C105.201 157.721 103.992 157.721 102.787 157.783L103.066 160.024Z" fill="#263238" stroke="#263238" stroke-miterlimit="10"/>
<path d="M104.671 159.542C104.608 159.735 104.486 159.904 104.321 160.023C104.157 160.143 103.959 160.207 103.756 160.207C103.654 160.207 103.553 160.191 103.457 160.159C102.403 159.842 101.426 159.311 100.588 158.597C99.7498 157.884 99.0691 157.004 98.5886 156.014C97.0462 152.895 97.2486 148.649 98.0295 144.639H99.9575C99.1863 148.422 98.926 152.389 100.295 155.161C100.662 155.921 101.184 156.596 101.829 157.141C102.473 157.687 103.225 158.091 104.035 158.327C104.157 158.365 104.27 158.426 104.369 158.507C104.467 158.589 104.548 158.689 104.607 158.802C104.666 158.915 104.702 159.038 104.713 159.165C104.724 159.293 104.71 159.42 104.671 159.542Z" fill="white" stroke="#263238" stroke-linecap="round" stroke-linejoin="round"/>
<path d="M112.008 157.214C111.862 157.386 111.755 157.588 111.693 157.804C111.631 158.021 111.615 158.249 111.646 158.472C111.742 158.802 111.951 159.088 112.237 159.28C112.522 159.472 112.866 159.558 113.208 159.523C113.892 159.432 114.518 159.088 114.962 158.559C115.444 158.019 117.117 154.486 115.57 155.093C114.447 155.517 112.76 156.235 112.008 157.214Z" fill="#263238" stroke="#263238" stroke-miterlimit="10"/>
<path d="M115.227 158.26C115.022 158.396 114.772 158.449 114.529 158.407C114.286 158.365 114.069 158.231 113.921 158.034C113.774 157.836 113.707 157.59 113.736 157.345C113.765 157.1 113.886 156.876 114.075 156.717C114.157 156.65 117.391 153.898 115.974 144.629H117.902C119.43 155.03 115.415 158.125 115.227 158.26Z" fill="white" stroke="#263238" stroke-linecap="round" stroke-linejoin="round"/>
<path opacity="0.2" d="M123.874 73.0664C123.874 73.0664 129.943 69.9141 135.519 73.0664C135.519 73.0664 135.611 77.7177 133.505 79.6312C132.757 80.3109 129.335 80.4265 128.039 80.3108C122.775 79.8337 123.874 73.0664 123.874 73.0664Z" fill="white"/>
<path opacity="0.2" d="M120.067 73.0664C120.067 73.0664 113.998 69.9141 108.426 73.0664C108.426 73.0664 108.335 77.7177 110.436 79.6312C111.183 80.3109 114.61 80.4265 115.902 80.3108C121.166 79.8337 120.067 73.0664 120.067 73.0664Z" fill="white"/>
<path d="M123.874 73.0664C123.874 73.0664 129.943 69.9141 135.519 73.0664C135.519 73.0664 135.611 77.7177 133.505 79.6312C132.757 80.3109 129.335 80.4265 128.039 80.3108C122.775 79.8337 123.874 73.0664 123.874 73.0664Z" stroke="#263238" stroke-miterlimit="10"/>
<path d="M120.067 73.0664C120.067 73.0664 113.998 69.9141 108.426 73.0664C108.426 73.0664 108.335 77.7177 110.436 79.6312C111.183 80.3109 114.61 80.4265 115.902 80.3108C121.166 79.8337 120.067 73.0664 120.067 73.0664Z" stroke="#263238" stroke-miterlimit="10"/>
<path d="M120.066 73.0664C120.066 73.0664 121.426 72.0686 123.874 73.0664" stroke="#263238" stroke-miterlimit="10"/>
<path d="M135.52 73.0664L138.055 74.2425" stroke="#263238" stroke-miterlimit="10"/>
<path d="M38.4731 221.103L56.312 204.252H197.895L208.614 221.103H38.4731Z" fill="white" stroke="#263238" stroke-linecap="round" stroke-linejoin="round"/>
<path d="M208.614 221.103H38.4731V225.639H208.614V221.103Z" fill="#263238" stroke="#263238" stroke-linecap="round" stroke-linejoin="round"/>
<path d="M56.312 216.939V213.444H84.268V216.939H78.8744H56.312Z" fill="white" stroke="#263238" stroke-miterlimit="10"/>
<path d="M56.312 213.444L72.8253 202.368L94.8624 202.888L84.268 213.444H56.312Z" fill="white" stroke="#263238" stroke-linecap="round" stroke-linejoin="round"/>
<path d="M84.2681 216.939L94.8624 206.325V202.888L84.2681 213.444V216.939Z" fill="white" stroke="#263238" stroke-linecap="round" stroke-linejoin="round"/>
<path d="M83.5114 212.562C83.5114 212.562 81.2798 213.005 81.2798 214.938C81.2798 216.871 83.2078 217.44 83.2078 217.44" stroke="#263238" stroke-width="2" stroke-linecap="round" stroke-linejoin="round"/>
<path d="M81.2795 212.562C81.2795 212.562 79.0479 213.005 79.0479 214.938C79.0479 216.871 80.9759 217.44 80.9759 217.44" stroke="#263238" stroke-width="2" stroke-linecap="round" stroke-linejoin="round"/>
<path d="M79.0481 212.562C79.0481 212.562 76.8164 213.005 76.8164 214.938C76.8164 216.871 78.7444 217.44 78.7444 217.44" stroke="#263238" stroke-width="2" stroke-linecap="round" stroke-linejoin="round"/>
<path d="M76.8161 212.562C76.8161 212.562 74.5845 213.005 74.5845 214.938C74.5845 216.871 76.5125 217.44 76.5125 217.44" stroke="#263238" stroke-width="2" stroke-linecap="round" stroke-linejoin="round"/>
<path d="M74.5847 212.562C74.5847 212.562 72.353 213.005 72.353 214.938C72.353 216.871 74.281 217.44 74.281 217.44" stroke="#263238" stroke-width="2" stroke-linecap="round" stroke-linejoin="round"/>
<path d="M72.3528 212.562C72.3528 212.562 70.1211 213.005 70.1211 214.938C70.1211 216.871 72.0491 217.44 72.0491 217.44" stroke="#263238" stroke-width="2" stroke-linecap="round" stroke-linejoin="round"/>
<path d="M70.1213 212.562C70.1213 212.562 67.8896 213.005 67.8896 214.938C67.8896 216.871 69.8176 217.44 69.8176 217.44" stroke="#263238" stroke-width="2" stroke-linecap="round" stroke-linejoin="round"/>
<path d="M67.8899 212.562C67.8899 212.562 65.6582 213.005 65.6582 214.938C65.6582 216.871 67.5862 217.44 67.5862 217.44" stroke="#263238" stroke-width="2" stroke-linecap="round" stroke-linejoin="round"/>
<path d="M65.383 212.562C65.383 212.562 63.1514 213.005 63.1514 214.938C63.1514 216.871 65.0794 217.44 65.0794 217.44" stroke="#263238" stroke-width="2" stroke-linecap="round" stroke-linejoin="round"/>
<path d="M62.8718 212.562C62.8718 212.562 60.6401 213.005 60.6401 214.938C60.6401 216.871 62.5681 217.44 62.5681 217.44" stroke="#263238" stroke-width="2" stroke-linecap="round" stroke-linejoin="round"/>
<path d="M60.0813 212.562C60.0813 212.562 57.8496 213.005 57.8496 214.938C57.8496 216.871 59.7776 217.44 59.7776 217.44" stroke="#263238" stroke-width="2" stroke-linecap="round" stroke-linejoin="round"/>
<path d="M74.2282 205.081C72.6887 205.931 71.4684 207.259 70.7529 208.865C72.7821 208.224 74.3872 206.778 75.9248 205.332L74.2571 209.468C75.0248 209.405 75.767 209.163 76.4236 208.76C77.0801 208.357 77.6325 207.805 78.0359 207.149C77.9038 207.206 77.7852 207.29 77.6879 207.396C77.5906 207.502 77.5168 207.628 77.4713 207.764C77.4258 207.901 77.4097 208.045 77.4239 208.189C77.4381 208.332 77.4825 208.47 77.5539 208.595C78.9517 208.393 79.8435 207.043 80.5472 205.819C80.6764 206.5 80.7266 207.194 80.6966 207.887C81.8655 208.054 83.0579 207.903 84.1477 207.448" stroke="#263238" stroke-width="0.75" stroke-linecap="round" stroke-linejoin="round"/>
<path d="M196.95 187.373H148.359V214.051H196.95V187.373Z" fill="white" stroke="#263238" stroke-linecap="round" stroke-linejoin="round"/>
<path d="M148.172 214.047L140.358 206.619V179.94L148.172 187.373V214.047Z" fill="white" stroke="#263238" stroke-linecap="round" stroke-linejoin="round"/>
<path d="M196.95 187.373L189.137 179.94H140.551L148.36 187.373H196.95Z" fill="white" stroke="#263238" stroke-linecap="round" stroke-linejoin="round"/>
<path d="M179.082 197.379H174.788V192.887H168.734V197.379H164.049V203.433H168.734V207.92H174.788V203.433H179.082V197.379Z" fill="#0077B6" stroke="#263238" stroke-miterlimit="10"/>
<path d="M172.233 187.373L164.42 179.94" stroke="#263238" stroke-linecap="round" stroke-linejoin="round"/>
<path d="M69.527 73.9844C75.1947 68.3167 75.1947 59.1276 69.527 53.4599C63.8593 47.7922 54.6702 47.7922 49.0025 53.4599C43.3348 59.1276 43.3348 68.3167 49.0025 73.9844C54.6702 79.6521 63.8593 79.6521 69.527 73.9844Z" fill="white" stroke="#263238" stroke-linecap="round" stroke-linejoin="round"/>
<path d="M71.336 61.4984C71.3359 62.4699 71.0312 63.4169 70.4649 64.2063C69.8986 64.9957 69.0991 65.5877 68.1789 65.8991L61.696 68.0825L53.8057 70.748C52.6433 71.1301 51.3771 71.0373 50.2828 70.4899C49.1886 69.9424 48.3551 68.9846 47.964 67.8253C47.5729 66.6659 47.6558 65.399 48.1948 64.3005C48.7338 63.2021 49.6851 62.3612 50.8414 61.9611L58.0087 59.5511L65.2098 57.1411C65.9065 56.9068 66.6488 56.8413 67.3758 56.9499C68.1027 57.0586 68.7934 57.3383 69.3911 57.7661C69.9888 58.1939 70.4764 58.7575 70.8137 59.4106C71.151 60.0637 71.3283 60.7875 71.3312 61.5225L71.336 61.4984Z" fill="white"/>
<path d="M71.3361 61.4984C71.336 62.4699 71.0313 63.4169 70.465 64.2063C69.8987 64.9957 69.0992 65.5877 68.179 65.8991L61.6961 68.0825C61.5232 64.8887 60.2156 61.8615 58.0088 59.5463L65.2099 57.1363C65.9065 56.902 66.6489 56.8364 67.3758 56.9451C68.1028 57.0538 68.7935 57.3335 69.3912 57.7613C69.9889 58.1891 70.4765 58.7527 70.8137 59.4058C71.151 60.0588 71.3284 60.7827 71.3313 61.5177L71.3361 61.4984Z" fill="#0077B6"/>
<path d="M71.336 61.4984C71.3359 62.4699 71.0312 63.4169 70.4649 64.2063C69.8986 64.9957 69.0991 65.5877 68.1789 65.8991L61.696 68.0825L53.8057 70.748C52.6433 71.1301 51.3771 71.0373 50.2828 70.4899C49.1886 69.9424 48.3551 68.9846 47.964 67.8253C47.5729 66.6659 47.6558 65.399 48.1948 64.3005C48.7338 63.2021 49.6851 62.3612 50.8414 61.9611L58.0087 59.5511L65.2098 57.1411C65.9065 56.9068 66.6488 56.8413 67.3758 56.9499C68.1027 57.0586 68.7934 57.3383 69.3911 57.7661C69.9888 58.1939 70.4764 58.7575 70.8137 59.4106C71.151 60.0637 71.3283 60.7875 71.3312 61.5225L71.336 61.4984Z" stroke="#263238" stroke-linecap="round" stroke-linejoin="round"/>
<path d="M61.6961 68.0825C61.5486 64.8828 60.2373 61.8471 58.0088 59.5463" stroke="#263238" stroke-linecap="round" stroke-linejoin="round"/>
<path d="M69.7842 59.768C70.0885 60.2806 70.2422 60.8687 70.2276 61.4646" stroke="white" stroke-linecap="round" stroke-linejoin="round"/>
<path d="M59.8403 60.25L65.6243 58.322C66.1431 58.1441 66.6949 58.0834 67.24 58.1442C67.785 58.2051 68.3098 58.386 68.7766 58.6739" stroke="white" stroke-linecap="round" stroke-linejoin="round"/>
<path d="M157.876 44.0335C165.257 40.9094 168.709 32.3929 165.584 25.0115C162.46 17.6301 153.944 14.1789 146.562 17.303C139.181 20.4271 135.73 28.9435 138.854 36.3249C141.978 43.7063 150.494 47.1576 157.876 44.0335Z" fill="white" stroke="#263238" stroke-linecap="round" stroke-linejoin="round"/>
<path d="M157.224 36.7429L144.566 32.5061C143.514 32.1523 142.645 31.3951 142.151 30.4008C141.656 29.4066 141.577 28.2568 141.93 27.2041C142.284 26.1516 143.041 25.2827 144.035 24.7883C145.029 24.2939 146.179 24.2145 147.232 24.5675L159.889 28.7995C160.941 29.1544 161.809 29.9118 162.303 30.9056C162.797 31.8995 162.877 33.0487 162.526 34.1015C162.172 35.1541 161.415 36.0233 160.421 36.5185C159.427 37.0137 158.277 37.0944 157.224 36.7429Z" fill="#0077B6"/>
<path d="M147.95 32.1687L150.071 27.1029" stroke="#263238" stroke-linecap="round" stroke-linejoin="round"/>
<path d="M154.925 34.4871L157.036 29.4358" stroke="#263238" stroke-linecap="round" stroke-linejoin="round"/>
<path d="M149.699 32.4675C149.936 32.4675 150.128 32.2755 150.128 32.0386C150.128 31.8016 149.936 31.6096 149.699 31.6096C149.463 31.6096 149.271 31.8016 149.271 32.0386C149.271 32.2755 149.463 32.4675 149.699 32.4675Z" fill="#263238"/>
<path d="M153.917 33.3014C153.917 33.3862 153.892 33.4692 153.845 33.5397C153.798 33.6103 153.731 33.6652 153.652 33.6977C153.574 33.7302 153.488 33.7387 153.404 33.7221C153.321 33.7056 153.245 33.6647 153.185 33.6047C153.125 33.5447 153.084 33.4683 153.067 33.3851C153.051 33.3019 153.059 33.2156 153.092 33.1372C153.124 33.0588 153.179 32.9918 153.25 32.9447C153.32 32.8976 153.403 32.8724 153.488 32.8724C153.602 32.8724 153.711 32.9176 153.791 32.9981C153.872 33.0785 153.917 33.1876 153.917 33.3014Z" fill="#263238"/>
<path d="M151.363 28.6501C151.599 28.6501 151.792 28.458 151.792 28.2211C151.792 27.9842 151.599 27.7921 151.363 27.7921C151.126 27.7921 150.934 27.9842 150.934 28.2211C150.934 28.458 151.126 28.6501 151.363 28.6501Z" fill="#263238"/>
<path d="M155.518 29.4454C155.518 29.5302 155.492 29.6132 155.445 29.6837C155.398 29.7543 155.331 29.8093 155.253 29.8417C155.174 29.8742 155.088 29.8827 155.005 29.8661C154.922 29.8496 154.845 29.8087 154.785 29.7487C154.725 29.6887 154.684 29.6123 154.668 29.5291C154.651 29.4459 154.66 29.3596 154.692 29.2812C154.725 29.2028 154.78 29.1359 154.85 29.0887C154.921 29.0416 155.004 29.0164 155.089 29.0164C155.202 29.0164 155.312 29.0616 155.392 29.1421C155.472 29.2225 155.518 29.3316 155.518 29.4454Z" fill="#263238"/>
<path d="M157.224 36.7429L144.566 32.5061C143.514 32.1523 142.645 31.3951 142.151 30.4008C141.656 29.4066 141.577 28.2568 141.93 27.2041C142.284 26.1516 143.041 25.2827 144.035 24.7883C145.029 24.2939 146.179 24.2145 147.232 24.5675L159.889 28.7995C160.941 29.1544 161.809 29.9118 162.303 30.9056C162.797 31.8995 162.877 33.0487 162.526 34.1015C162.172 35.1541 161.415 36.0233 160.421 36.5185C159.427 37.0137 158.277 37.0944 157.224 36.7429Z" stroke="#263238" stroke-linecap="round" stroke-linejoin="round"/>
<path d="M97.4315 44.3922C105.447 44.3922 111.944 37.8945 111.944 29.8792C111.944 21.8639 105.447 15.3662 97.4315 15.3662C89.4162 15.3662 82.9185 21.8639 82.9185 29.8792C82.9185 37.8945 89.4162 44.3922 97.4315 44.3922Z" fill="white" stroke="#263238" stroke-linecap="round" stroke-linejoin="round"/>
<path d="M105.746 30.2503V36.1982C105.746 37.7069 104.782 38.9312 103.601 38.9312H91.2621C90.0764 38.9312 89.1172 37.7069 89.1172 36.1982V30.2503C89.1172 28.7417 90.0812 27.5174 91.2621 27.5174H93.2913V24.0663H101.485V27.5174H103.587C104.782 27.5174 105.746 28.7417 105.746 30.2503Z" fill="white" stroke="#263238" stroke-linecap="round" stroke-linejoin="round"/>
<path d="M105.741 30.9348H89.1172V34.6221H105.741V30.9348Z" fill="#0077B6" stroke="#263238" stroke-miterlimit="10"/>
<path d="M94.4242 20.0271H100.517C101.204 20.0271 101.864 20.3003 102.35 20.7867C102.837 21.273 103.11 21.9325 103.11 22.6203V25.3147H91.8262V22.6203C91.8262 22.2794 91.8934 21.9418 92.024 21.6268C92.1546 21.3119 92.3461 21.0258 92.5874 20.7849C92.8287 20.5441 93.1151 20.3532 93.4303 20.2231C93.7455 20.0931 94.0832 20.0265 94.4242 20.0271Z" fill="#0077B6" stroke="#263238" stroke-miterlimit="10"/>
<path d="M93.7974 20.191V25.3147" stroke="#263238" stroke-linecap="round" stroke-linejoin="round"/>
<path d="M96.4629 20.0271V25.3147" stroke="#263238" stroke-linecap="round" stroke-linejoin="round"/>
<path d="M99.1284 20.0271V25.3147" stroke="#263238" stroke-linecap="round" stroke-linejoin="round"/>
<path d="M101.794 20.326V25.3147" stroke="#263238" stroke-linecap="round" stroke-linejoin="round"/>
<path d="M60.2494 109.219C61.5461 101.309 56.1851 93.8459 48.2754 92.5492C40.3656 91.2525 32.9024 96.6135 31.6057 104.523C30.309 112.433 35.6699 119.896 43.5797 121.193C51.4894 122.49 58.9527 117.129 60.2494 109.219Z" fill="white" stroke="#263238" stroke-linecap="round" stroke-linejoin="round"/>
<path d="M53.2895 110.615C54.8702 107.272 52.6968 102.929 48.4349 100.913C44.173 98.8978 39.4366 99.9736 37.8559 103.316C36.2751 106.659 38.4486 111.002 42.7105 113.018C46.9723 115.033 51.7087 113.958 53.2895 110.615Z" fill="#0077B6" stroke="#263238" stroke-linecap="round" stroke-linejoin="round"/>
<path d="M53.8169 109.478C55.2997 106.343 53.0469 102.167 48.785 100.151C44.5232 98.1357 39.8661 99.0438 38.3832 102.179C36.9004 105.315 39.1532 109.491 43.4151 111.506C47.6769 113.522 52.334 112.614 53.8169 109.478Z" fill="#0077B6" stroke="#263238" stroke-linecap="round" stroke-linejoin="round"/>
<path d="M48.5617 101.538L43.2935 108.946" stroke="#263238" stroke-linecap="round" stroke-linejoin="round"/>
<path d="M45.3901 100.338C46.0962 100.433 46.7917 100.595 47.4676 100.82" stroke="white" stroke-linecap="round" stroke-linejoin="round"/>
<path d="M40.7097 107.313C40.7097 107.313 38.0202 104.367 40.6471 101.529C41.2533 100.911 42.0427 100.505 42.898 100.372" stroke="white" stroke-linecap="round" stroke-linejoin="round"/>
<path d="M213.122 109.227C214.419 101.318 209.058 93.8543 201.148 92.5576C193.239 91.2609 185.775 96.6219 184.479 104.532C183.182 112.441 188.543 119.905 196.453 121.201C204.362 122.498 211.826 117.137 213.122 109.227Z" fill="white" stroke="#263238" stroke-linecap="round" stroke-linejoin="round"/>
<path d="M207.13 108.334C207.019 108.493 206.908 108.657 206.792 108.816C204.619 111.829 201.269 114.639 198.786 115.193V115.155C196.376 114.615 193.133 111.94 190.959 109.019C190.838 108.86 190.723 108.696 190.612 108.537C188.52 105.539 187.638 102.391 189.966 101.09C194.699 98.4485 198.786 104.112 198.786 104.112C198.786 104.112 202.883 98.4919 207.607 101.128C209.872 102.391 209.096 105.409 207.13 108.334Z" fill="#0077B6" stroke="#263238" stroke-miterlimit="10"/>
<path d="M207.13 108.334C207.019 108.493 206.908 108.657 206.793 108.816H205.597L204.228 110.624L203.298 105.264L201.852 108.908H198.435L196.685 111.824L195.335 105.92L193.595 108.999H190.959C190.838 108.84 190.723 108.677 190.612 108.517H193.316L195.528 104.599L196.887 110.552L198.174 108.407H201.548L203.476 103.471L204.508 109.428L205.351 108.315L207.13 108.334Z" fill="white"/>
<path d="M184.828 78.3973C192.843 78.3973 199.341 71.8996 199.341 63.8843C199.341 55.869 192.843 49.3713 184.828 49.3713C176.813 49.3713 170.315 55.869 170.315 63.8843C170.315 71.8996 176.813 78.3973 184.828 78.3973Z" fill="white" stroke="#263238" stroke-linecap="round" stroke-linejoin="round"/>
<path d="M183.738 57.1749C183.878 57.4882 183.006 58.1822 181.81 58.7269C180.615 59.2716 179.497 59.4595 179.357 59.1414C179.217 58.8233 180.085 58.1341 181.285 57.5894C182.485 57.0447 183.594 56.876 183.738 57.1749Z" fill="white" stroke="#263238" stroke-linecap="round" stroke-linejoin="round"/>
<path d="M190.27 70.6371L185.927 72.7386L182.032 64.7182L179.343 59.1752L183.686 57.0688L186.308 62.4769L190.27 70.6371Z" fill="white" stroke="#263238" stroke-linecap="round" stroke-linejoin="round"/>
<path d="M180.147 60.8284L182.032 59.956L180.147 60.8284Z" fill="#0077B6"/>
<path d="M180.147 60.8284L182.032 59.956" stroke="#263238" stroke-linecap="round" stroke-linejoin="round"/>
<path d="M180.967 62.5733L182.851 61.7008L180.967 62.5733Z" fill="#0077B6"/>
<path d="M180.967 62.5733L182.851 61.7008" stroke="#263238" stroke-linecap="round" stroke-linejoin="round"/>
<path d="M187.59 71.9337L189.831 74.8739L188.713 71.389L187.59 71.9337Z" fill="white" stroke="#263238" stroke-linecap="round" stroke-linejoin="round"/>
<path d="M190.27 70.6371C189.253 71.655 187.956 72.3465 186.544 72.623L185.927 72.7387L182.032 64.7182L186.308 62.4769L190.27 70.6371Z" fill="#0077B6" stroke="#263238" stroke-miterlimit="10"/>
<path d="M182.852 66.2413L184.625 65.4219" stroke="#263238" stroke-linecap="round" stroke-linejoin="round"/>
<path d="M183.825 68.1066L185.565 67.3113L183.825 68.1066Z" fill="#0077B6"/>
<path d="M183.825 68.1066L185.565 67.3113" stroke="#263238" stroke-linecap="round" stroke-linejoin="round"/>
<path d="M180.846 58.4425L179.473 55.3529L180.552 54.7408L182.032 57.8689L180.846 58.4425Z" fill="white" stroke="#263238" stroke-linecap="round" stroke-linejoin="round"/>
<path d="M183.204 54.3648L182.876 53.6418L177.092 56.2301L177.42 56.9531C177.555 57.2616 178.957 56.9242 180.557 56.2108C182.158 55.4975 183.339 54.6684 183.204 54.3648Z" fill="white" stroke="#263238" stroke-linecap="round" stroke-linejoin="round"/>
<path d="M182.876 53.6418C182.741 53.3381 181.333 53.6707 179.738 54.3841C178.142 55.0974 176.957 55.9265 177.092 56.2301C177.226 56.5338 178.634 56.2012 180.229 55.483C181.825 54.7649 183.01 53.9455 182.876 53.6418Z" fill="white" stroke="#263238" stroke-linecap="round" stroke-linejoin="round"/>
</svg>
