<svg width="34" height="34" viewBox="0 0 34 34" fill="none" xmlns="http://www.w3.org/2000/svg">
<path d="M31.1668 12.0417C31.1668 6.95605 27.0441 2.83334 21.9585 2.83334C19.0078 2.83334 16.3812 4.22493 14.696 6.38521C21.8835 6.6631 27.6252 12.5777 27.6252 19.8333C27.6252 19.9896 27.6225 20.1453 27.6172 20.3003L28.0879 20.4262C29.4569 20.7925 30.7093 19.5401 30.343 18.1711L30.1626 17.4967C30.0168 16.9519 30.1044 16.3764 30.3388 15.8634C30.8705 14.6993 31.1668 13.4051 31.1668 12.0417Z" fill="#0077B6"/>
<path fill-rule="evenodd" clip-rule="evenodd" d="M25.5002 19.8333C25.5002 26.0926 20.4261 31.1667 14.1668 31.1667C12.4165 31.1667 10.7589 30.7699 9.27898 30.0614C8.77033 29.8179 8.19407 29.7324 7.64929 29.8781L5.91241 30.3429C4.54343 30.7092 3.29101 29.4567 3.6573 28.0878L4.12203 26.3509C4.26779 25.8061 4.1823 25.2298 3.93878 24.7212C3.23027 23.2413 2.8335 21.5836 2.8335 19.8333C2.8335 13.5741 7.9076 8.5 14.1668 8.5C20.4261 8.5 25.5002 13.5741 25.5002 19.8333ZM9.2085 21.25C9.9909 21.25 10.6252 20.6157 10.6252 19.8333C10.6252 19.0509 9.9909 18.4167 9.2085 18.4167C8.42609 18.4167 7.79183 19.0509 7.79183 19.8333C7.79183 20.6157 8.42609 21.25 9.2085 21.25ZM14.1668 21.25C14.9492 21.25 15.5835 20.6157 15.5835 19.8333C15.5835 19.0509 14.9492 18.4167 14.1668 18.4167C13.3844 18.4167 12.7502 19.0509 12.7502 19.8333C12.7502 20.6157 13.3844 21.25 14.1668 21.25ZM19.1252 21.25C19.9076 21.25 20.5418 20.6157 20.5418 19.8333C20.5418 19.0509 19.9076 18.4167 19.1252 18.4167C18.3428 18.4167 17.7085 19.0509 17.7085 19.8333C17.7085 20.6157 18.3428 21.25 19.1252 21.25Z" fill="#0077B6"/>
</svg>
