<svg width="51" height="50" viewBox="0 0 51 50" fill="none" xmlns="http://www.w3.org/2000/svg">
<path d="M6.23806 30.6583L7.31647 34.683C8.57532 39.3811 9.20474 41.7302 10.6317 43.2537C11.7583 44.4566 13.2164 45.2985 14.8216 45.6727C16.8544 46.1467 19.2035 45.5173 23.9016 44.2584C28.5996 42.9996 30.9487 42.3702 32.4722 40.9432C32.5986 40.8248 32.7211 40.7027 32.8395 40.5772C32.1432 40.5187 31.441 40.4067 30.7273 40.2648C29.2771 39.9764 27.5539 39.5147 25.516 38.9686L25.2935 38.909L25.2419 38.8952C23.0245 38.3011 21.1719 37.8036 19.6926 37.2693C18.137 36.7073 16.7235 36.0145 15.5233 34.8904C13.8692 33.3412 12.7117 31.3363 12.1971 29.1292C11.8237 27.5277 11.9304 25.9572 12.2216 24.329C12.5006 22.7688 13.0016 20.8989 13.602 18.6586L13.602 18.6586L14.7153 14.5036L14.7544 14.3575C10.7533 15.4353 8.64729 16.073 7.24282 17.3885C6.03988 18.5151 5.19804 19.9732 4.82378 21.5784C4.34979 23.6112 4.97921 25.9603 6.23806 30.6583Z" fill="#0077B6"/>
<path fill-rule="evenodd" clip-rule="evenodd" d="M43.8949 22.3238L42.8165 26.3485C41.5577 31.0466 40.9282 33.3956 39.5013 34.9191C38.3746 36.1221 36.9165 36.9639 35.3114 37.3382C35.1109 37.3849 34.9072 37.4209 34.6986 37.4467C32.7922 37.6818 30.466 37.0585 26.2314 35.9239C21.5334 34.665 19.1843 34.0356 17.6608 32.6087C16.4578 31.482 15.616 30.0239 15.2418 28.4188C14.7678 26.3859 15.3972 24.0369 16.656 19.3388L17.7344 15.3141C17.9154 14.6386 18.0835 14.0112 18.2428 13.4284C19.1908 9.95743 19.8279 8.04787 21.0496 6.74346C22.1763 5.54052 23.6344 4.69868 25.2395 4.32442C27.2724 3.85043 29.6214 4.47985 34.3195 5.7387C39.0176 6.99755 41.3667 7.62697 42.8902 9.05389C44.0931 10.1806 44.9349 11.6387 45.3092 13.2438C45.7832 15.2767 45.1538 17.6257 43.8949 22.3238ZM23.5265 20.4289C23.7499 19.5954 24.6066 19.1007 25.4402 19.3241L35.5019 22.0201C36.3354 22.2434 36.8301 23.1002 36.6068 23.9338C36.3834 24.7673 35.5266 25.262 34.6931 25.0386L24.6314 22.3426C23.7978 22.1192 23.3032 21.2625 23.5265 20.4289ZM21.9081 26.4653C22.1314 25.6318 22.9882 25.1371 23.8217 25.3604L29.8588 26.9781C30.6923 27.2014 31.187 28.0582 30.9636 28.8917C30.7403 29.7253 29.8835 30.2199 29.05 29.9966L23.0129 28.379C22.1794 28.1556 21.6847 27.2988 21.9081 26.4653Z" fill="#0077B6"/>
</svg>
