<svg width="51" height="50" viewBox="0 0 51 50" fill="none" xmlns="http://www.w3.org/2000/svg">
<path d="M6.23903 30.6583L7.31745 34.683C8.5763 39.3811 9.20572 41.7302 10.6326 43.2537C11.7593 44.4566 13.2174 45.2985 14.8225 45.6727C16.8554 46.1467 19.2044 45.5173 23.9025 44.2584C28.6006 42.9996 30.9497 42.3702 32.4732 40.9432C32.5996 40.8248 32.7221 40.7027 32.8404 40.5772C32.1442 40.5187 31.442 40.4067 30.7283 40.2648C29.2781 39.9764 27.5549 39.5147 25.517 38.9686L25.2945 38.909L25.2429 38.8952C23.0255 38.3011 21.1729 37.8036 19.6936 37.2693C18.138 36.7073 16.7245 36.0145 15.5242 34.8904C13.8702 33.3412 12.7127 31.3363 12.1981 29.1292C11.8246 27.5277 11.9314 25.9572 12.2225 24.329C12.5015 22.7688 13.0026 20.8989 13.6029 18.6586L13.603 18.6586L14.7163 14.5036L14.7554 14.3575C10.7543 15.4353 8.64826 16.073 7.2438 17.3885C6.04085 18.5151 5.19902 19.9732 4.82476 21.5784C4.35076 23.6112 4.98019 25.9603 6.23903 30.6583Z" fill="#AEC6D3"/>
<path fill-rule="evenodd" clip-rule="evenodd" d="M43.894 22.3238L42.8155 26.3485C41.5567 31.0466 40.9273 33.3956 39.5003 34.9191C38.3737 36.1221 36.9156 36.9639 35.3104 37.3382C35.1099 37.3849 34.9062 37.4209 34.6976 37.4467C32.7912 37.6818 30.465 37.0585 26.2305 35.9239C21.5324 34.665 19.1833 34.0356 17.6598 32.6087C16.4569 31.482 15.615 30.0239 15.2408 28.4188C14.7668 26.3859 15.3962 24.0369 16.655 19.3388L17.7335 15.3141C17.9145 14.6386 18.0826 14.0112 18.2418 13.4284C19.1898 9.95743 19.8269 8.04787 21.0487 6.74346C22.1753 5.54052 23.6334 4.69868 25.2386 4.32442C27.2714 3.85043 29.6205 4.47985 34.3186 5.7387C39.0166 6.99755 41.3657 7.62697 42.8892 9.05389C44.0921 10.1806 44.934 11.6387 45.3082 13.2438C45.7822 15.2767 45.1528 17.6257 43.894 22.3238ZM23.5255 20.4289C23.7489 19.5954 24.6057 19.1007 25.4392 19.3241L35.5009 22.0201C36.3345 22.2434 36.8291 23.1002 36.6058 23.9338C36.3824 24.7673 35.5257 25.262 34.6921 25.0386L24.6304 22.3426C23.7968 22.1192 23.3022 21.2625 23.5255 20.4289ZM21.9071 26.4653C22.1304 25.6318 22.9872 25.1371 23.8207 25.3604L29.8578 26.9781C30.6913 27.2014 31.186 28.0582 30.9626 28.8917C30.7393 29.7253 29.8825 30.2199 29.049 29.9966L23.0119 28.379C22.1784 28.1556 21.6837 27.2988 21.9071 26.4653Z" fill="#AEC6D3"/>
</svg>
