<svg width="25" height="25" viewBox="0 0 25 25" fill="none" xmlns="http://www.w3.org/2000/svg">
<path d="M24.43 10.1173H23.45V10.0668H12.5V14.9335H19.376C18.3728 17.7665 15.6773 19.8002 12.5 19.8002C8.46856 19.8002 5.19998 16.5316 5.19998 12.5002C5.19998 8.46874 8.46856 5.20016 12.5 5.20016C14.3609 5.20016 16.0539 5.90218 17.3429 7.04889L20.7843 3.60755C18.6113 1.5824 15.7047 0.333496 12.5 0.333496C5.78094 0.333496 0.333313 5.78112 0.333313 12.5002C0.333313 19.2192 5.78094 24.6668 12.5 24.6668C19.219 24.6668 24.6666 19.2192 24.6666 12.5002C24.6666 11.6844 24.5827 10.8881 24.43 10.1173Z" fill="#FFC107"/>
<path d="M1.73605 6.83719L5.73341 9.76875C6.81503 7.09086 9.43451 5.20016 12.4999 5.20016C14.3608 5.20016 16.0538 5.90218 17.3429 7.04889L20.7842 3.60755C18.6112 1.5824 15.7046 0.333496 12.4999 0.333496C7.82669 0.333496 3.77397 2.97184 1.73605 6.83719Z" fill="#FF3D00"/>
<path d="M12.5 24.6668C15.6427 24.6668 18.4982 23.4641 20.6572 21.5083L16.8916 18.3219C15.6292 19.2825 14.0863 19.8018 12.5 19.8001C9.33546 19.8001 6.64846 17.7823 5.63619 14.9663L1.66864 18.0232C3.68222 21.9634 7.77144 24.6668 12.5 24.6668Z" fill="#4CAF50"/>
<path d="M24.43 10.1174H23.45V10.0669H12.5V14.9336H19.376C18.8961 16.2819 18.0318 17.4601 16.8897 18.3226L16.8916 18.3214L20.6571 21.5078C20.3907 21.7499 24.6667 18.5836 24.6667 12.5002C24.6667 11.6845 24.5827 10.8881 24.43 10.1174Z" fill="#1976D2"/>
</svg>
