<svg width="50" height="50" viewBox="0 0 50 50" fill="none" xmlns="http://www.w3.org/2000/svg">
<path fill-rule="evenodd" clip-rule="evenodd" d="M22.5932 16.8639C21.983 17.4741 21.983 18.4634 22.5932 19.0736L26.1759 22.6562H9.11475C8.2518 22.6562 7.55225 23.3558 7.55225 24.2187C7.55225 25.0817 8.2518 25.7812 9.11475 25.7812H26.1759L22.5932 29.3639C21.983 29.9741 21.983 30.9634 22.5932 31.5736C23.2034 32.1838 24.1927 32.1838 24.8029 31.5736L31.0529 25.3236C31.6631 24.7134 31.6631 23.7241 31.0529 23.1139L24.8029 16.8639C24.1927 16.2537 23.2034 16.2537 22.5932 16.8639Z" fill="#0077B6"/>
<path d="M25.7814 12.2447C25.7814 13.1779 26.3527 13.9943 27.0126 14.6542L33.2626 20.9042C35.0932 22.7348 35.0932 25.7027 33.2626 27.5333L27.0126 33.7833C26.3527 34.4432 25.7814 35.2596 25.7814 36.1928V40.8854C34.9862 40.8854 42.4481 33.4235 42.4481 24.2187C42.4481 15.014 34.9862 7.55208 25.7814 7.55208V12.2447Z" fill="#0077B6"/>
</svg>
