<svg width="494" height="679" viewBox="0 0 494 679" fill="none" xmlns="http://www.w3.org/2000/svg">
<path d="M292.275 306.526C276.771 303.871 260.874 308.722 245.534 303.904C245.824 303.784 246.099 303.63 246.354 303.445C246.354 303.445 246.354 303.052 246.583 302.855L245.534 303.904C231.375 293.841 215.281 284.631 218.723 263.391C223.705 232.712 214.035 208.85 188.764 190.429C182.209 185.546 177.391 180.924 167.721 181.842C150.775 183.448 136.55 167.518 137.435 150.474C137.967 142.633 141.555 135.315 147.427 130.092C153.299 124.87 160.987 122.161 168.836 122.548C172.936 122.761 176.946 123.836 180.602 125.705C184.258 127.574 187.479 130.194 190.053 133.393C192.627 136.592 194.497 140.299 195.54 144.27C196.583 148.241 196.776 152.388 196.106 156.44C195.362 159.073 195.433 161.871 196.311 164.463C197.189 167.055 198.832 169.32 201.023 170.96C210.332 179.547 218.296 189.708 228.064 197.64C238.848 206.392 242.125 216.717 241.175 229.893C240.388 239.726 241.503 249.56 240.88 259.393C240.269 264.276 241.12 269.23 243.326 273.629C245.531 278.028 248.992 281.674 253.27 284.107C266.068 288.353 279.922 288.168 292.602 283.582L292.307 284.074C296.536 281.124 295.061 276.699 295.061 272.831C295.017 211.123 294.995 149.535 294.995 88.0664C294.995 84.5592 296.142 80.626 292.766 77.7743C280.081 73.7755 263.267 80.1671 253.434 92.7863C248.641 99.1791 245.81 106.828 245.286 114.8C244.763 122.773 246.568 130.726 250.484 137.691C252.857 141.991 255.888 145.895 259.465 149.261C265.659 154.538 267.036 159.455 261.038 165.65C255.04 171.845 249.5 171.32 242.912 165.978C236.211 160.41 230.752 153.497 226.89 145.688C223.027 137.878 220.846 129.345 220.488 120.64C220.129 111.934 221.602 103.251 224.809 95.1498C228.017 87.0491 232.889 79.7117 239.11 73.6116C259.301 53.9453 283.621 47.3899 311.22 53.4865C315.579 54.4698 320.037 55.6825 322.331 60.2058C322.102 61.2219 321.84 62.2052 321.61 63.2213C318.037 67.0562 319.643 71.7761 319.643 76.0699C319.512 142.935 319.512 209.79 319.643 276.633C315.284 276.83 308.925 275.585 308.335 281.124C307.385 289.875 301.78 290.662 295.224 292.858C287.85 295.382 286.112 300.495 292.275 306.526ZM177.292 151.261C177.109 148.66 175.935 146.228 174.013 144.465C172.091 142.703 169.567 141.744 166.96 141.786C164.352 141.828 161.86 142.868 159.996 144.691C158.132 146.514 157.037 148.983 156.938 151.589C156.446 157.816 159.625 162.176 165.787 162.602C171.95 163.028 176.801 160.012 177.292 151.261Z" fill="#288BCB"/>
<path d="M397.816 89.8689C382.247 32.1155 330.689 17.9885 283.457 25.3962C255.542 29.5556 229.097 40.5818 206.496 57.485C201.842 60.9594 197.745 64.0404 199.941 71.4481C202.661 80.1013 196.663 84.0673 188.927 85.6078C177.75 87.8039 165.983 86.9845 155.233 91.2455C154.01 81.2642 150.657 71.6622 145.399 63.0899C168.048 58.5994 184.732 43.7186 203.022 31.2633C226.359 15.4975 252.679 7.23761 281.359 2.74714C308.367 -1.48112 333.803 -1.54667 358.648 7.69649C397.98 22.2168 419.22 51.6835 424.956 92.9171C424.874 93.5591 424.874 94.209 424.956 94.851C424.956 96.916 425.12 99.0137 425.218 101.079C425.218 111.698 425.021 122.351 424.759 132.971C424.759 135.593 426.038 139.297 422.334 140.313C419.58 141.067 418.335 138.182 417.089 136.085C415.951 134.119 414.228 132.557 412.16 131.616C410.092 130.676 407.782 130.405 405.552 130.84C400.373 132.02 402.93 137.789 402.864 141.46C402.602 156.898 402.864 172.369 402.864 187.807C401.013 177.755 400.178 167.543 400.373 157.324C399.717 139.035 402.34 120.679 398.833 102.488C398.833 100.784 398.832 99.2104 398.57 97.3748C402.372 94.2938 405.781 91.4094 397.816 89.8689Z" fill="#29396C"/>
<path d="M43.8564 447.14C28.2873 431.702 17.1758 412.691 15.4714 391.419C13.2753 364.05 4.29439 338.222 1.27889 311.41C-3.96546 264.997 6.19547 222.879 45.2659 192.199C54.5418 184.923 48.1175 174.369 52.3457 166.273C56.5084 172.172 51.9852 179.383 55.6234 186.431C56.0044 185.041 56.2999 183.628 56.5084 182.202C57.6229 161.094 60.9661 159.258 78.2069 169.616L80.2719 170.894C79.8786 176.139 78.043 181.842 79.3869 186.594C83.4513 200.623 77.3875 208.096 65.9155 215.274C41.7915 230.352 32.8761 254.869 29.8606 281.583C27.1947 301.539 30.4904 321.838 39.3332 339.926C41.6949 344.693 42.5085 350.079 41.6604 355.331C37.8582 385.093 46.9703 410.758 66.8988 432.849C65.6626 435.38 64.7487 438.056 64.1783 440.814C63.2933 451.795 59.2617 454.384 50.6413 446.485C48.1502 444.19 45.8886 443.404 43.8564 447.14Z" fill="#29396C"/>
<path d="M292.275 306.526C286.113 300.495 287.85 295.382 295.126 292.858C301.452 290.662 307.156 289.875 308.237 281.124C308.827 275.584 315.186 276.83 319.545 276.633C319.545 292.235 319.545 307.815 319.545 323.374C319.545 338.101 319.545 352.829 319.545 367.557C309.942 367.557 304.238 376.931 294.897 377.39H292.307C271.723 373.392 256.548 381.127 243.994 397.548C235.497 408.03 226.122 417.767 215.969 426.654C210.299 431.932 209.414 435.439 213.97 442.584C227.081 462.84 214.265 487.39 191.255 488.046C175.785 488.505 165.984 481.228 161.756 466.053C157.724 451.991 163.854 439.503 178.964 431.047C184.012 428.064 181.947 423.114 182.012 418.952C182.242 405.153 182.012 391.321 182.012 377.489C186.109 384.044 182.406 391.681 186.732 399.122C190.48 395.633 193.018 391.04 193.976 386.011C194.599 381.487 196.401 379.455 200.925 379.783L201.613 409.283L201.056 410.364L201.646 409.315C216.126 397.436 229.359 384.115 241.142 369.557C250.975 358.412 261.235 352.676 275.984 354.741C281.272 355.168 286.581 355.267 291.881 355.036C297.421 338.648 296.47 322.489 292.34 306.166L292.275 306.526ZM188.142 448.386C186.802 448.493 185.498 448.874 184.311 449.504C183.124 450.135 182.079 451.003 181.24 452.053C180.402 453.104 179.787 454.315 179.435 455.612C179.083 456.909 179.001 458.265 179.193 459.595C179.62 466.348 183.651 470.412 190.141 470.051C191.585 470.044 193.012 469.736 194.331 469.148C195.65 468.56 196.833 467.704 197.804 466.634C198.774 465.565 199.512 464.305 199.971 462.936C200.429 461.566 200.598 460.116 200.466 458.678C200.138 452.319 196.238 448.32 188.142 448.386Z" fill="#1F84C7"/>
<path d="M385.723 552.256C417.058 560.877 433.938 585.033 432.627 619.056C431.754 633.164 426.167 646.57 416.762 657.123C407.357 667.675 394.68 674.762 380.765 677.245C366.849 679.729 352.503 677.466 340.028 670.819C327.553 664.171 317.674 653.526 311.974 640.591C311.974 637.641 312.531 634.593 309.221 632.855L308.893 632.069C312.761 629.216 315.805 625.39 317.716 620.981C319.627 616.571 320.338 611.734 319.775 606.961C319.185 596.342 324.593 587.525 333.312 581.133C344.555 572.906 352.651 561.794 360.943 550.912C365.881 549.385 371.147 549.261 376.152 550.552C381.527 558.451 381.986 558.517 385.723 552.256ZM405.782 615.025C405.782 592.638 390.541 576.38 369.006 576.118C345.669 575.856 329.346 591.753 329.346 614.762C329.311 624.898 333.304 634.633 340.447 641.825C347.59 649.017 357.297 653.077 367.433 653.112C377.569 653.146 387.304 649.153 394.496 642.011C401.688 634.868 405.748 625.161 405.782 615.025Z" fill="#023E8A"/>
<path d="M76.9938 263.85C76.9203 256.437 79.325 249.212 83.8261 243.321C88.3272 237.43 94.6669 233.212 101.839 231.335C108.715 229.088 116.16 229.324 122.88 232.001C129.6 234.678 135.168 239.627 138.615 245.987C139.88 249.129 142.227 251.716 145.233 253.279C148.239 254.842 151.704 255.278 155.004 254.509C165.263 253.165 172.67 257.393 179.881 264.571C197.515 282.14 215.936 299.053 234.029 316.097C240.093 321.767 243.862 327.471 236.488 334.649C229.932 341.204 223.999 338.156 218.427 332.813C202.345 317.211 186.186 301.631 169.95 286.073C158.117 274.667 146.613 274.929 135.927 286.761C131.467 291.843 125.571 295.453 119.017 297.115C112.463 298.777 105.559 298.413 99.2167 296.07C92.6675 293.609 87.0281 289.202 83.0557 283.443C79.0832 277.683 76.9679 270.847 76.9938 263.85ZM110.164 251.395C102.527 252.313 97.9057 256.377 98.0368 264.08C98.2007 272.274 102.724 277.19 111.148 276.732C119.571 276.273 123.636 271.225 123.144 262.965C122.652 254.705 117.605 251.755 110.164 251.395Z" fill="#288BCB"/>
<path d="M398.997 102.357C402.504 120.548 399.882 138.903 400.538 157.193C400.343 167.412 401.178 177.624 403.029 187.676C403.029 172.238 403.029 156.767 403.029 141.329C403.029 137.658 400.538 131.889 405.717 130.709C407.946 130.274 410.256 130.545 412.324 131.485C414.393 132.425 416.116 133.987 417.254 135.954C418.5 138.051 419.745 140.936 422.498 140.182C426.202 139.166 424.858 135.462 424.924 132.84C425.186 122.22 425.252 111.567 425.383 100.948C429.611 111.076 426.989 121.663 427.349 132.02C427.808 146.999 428.005 162.011 427.349 176.958C426.891 186.103 428.693 192.461 438.231 195.28C440.677 196.526 442.893 198.177 444.787 200.164C448.819 211.275 437.183 218.06 437.117 228.057C413.944 211.865 396.146 224.19 383.264 249.658C374.742 246.38 368.678 238.743 359.632 236.35C365.35 219.617 376.539 205.299 391.393 195.706C393.846 194.363 395.846 192.323 397.141 189.843C398.436 187.364 398.968 184.557 398.669 181.776C398.637 155.325 398.899 128.841 398.997 102.357Z" fill="#023E8A"/>
<path d="M200.794 379.913C196.271 379.52 194.468 381.618 193.845 386.141C192.887 391.171 190.35 395.764 186.602 399.252C182.275 391.811 185.979 384.207 181.882 377.619C181.882 391.451 181.882 405.283 181.882 419.082C181.882 423.245 183.881 428.194 178.833 431.177C179.096 414.788 179.391 398.4 179.587 382.241C179.587 379.881 179.981 377.258 177.621 375.685C172.114 371.752 142.647 376.341 137.829 381.913C132.995 387.8 126.145 391.681 118.61 392.802C111.075 393.923 103.392 392.203 97.0543 387.977C90.7036 383.574 86.2104 376.973 84.4429 369.45C82.6754 361.928 83.7591 354.017 87.4845 347.247C91.21 340.476 97.3128 335.327 104.614 332.794C111.914 330.262 119.895 330.525 127.013 333.534C136.026 337.27 139.533 345.989 145.138 352.839C144.926 353.187 144.803 353.58 144.778 353.987C144.778 354.282 145.138 354.839 145.302 354.839C160.773 354.511 176.408 357.822 191.682 353.069C206.923 357.822 200.106 370.146 200.794 379.913ZM125.144 362.836C124.915 356.019 121.342 351.659 114.885 351.233C113.456 350.977 111.989 351.04 110.587 351.417C109.185 351.795 107.885 352.479 106.779 353.419C105.673 354.359 104.788 355.532 104.19 356.854C103.591 358.177 103.292 359.615 103.315 361.066C102.889 368.245 106.297 372.801 113.869 373.096C120.785 373.26 124.095 369.195 125.144 362.836Z" fill="#288BCB"/>
<path d="M235.767 553.928C224.59 554.879 222.656 561.631 223.672 571.53C226.294 594.769 239.438 607.289 263.005 608.142L280.115 608.699C288.637 611.223 285.392 617.68 284.769 623.088C283.95 630.037 278.214 627.48 274.313 628.136C268.053 629.119 261.202 625.94 255.499 630.43C226.229 628.169 205.448 608.043 200.564 577.757C199.352 570.186 202.007 559.73 189.158 559.14C184.703 555.285 181.902 549.864 181.334 544C180.767 538.136 182.477 532.279 186.11 527.641C198.631 526.658 211.151 532.689 223.64 527.477C235.964 528.198 231.113 537.933 230.195 543.079C229.441 549.11 230.654 551.798 235.767 553.928Z" fill="#1B509D"/>
<path d="M365.499 313.344C362.222 347.629 356.453 381.848 360.55 416.428C362.287 431.014 367.302 444.125 382.314 450.516C376.676 453.368 375.529 458.94 373.923 464.25C354.945 457.694 347.701 441.961 343.834 424.229C337.278 393.713 342.588 363.198 345.178 332.715C345.8 325.439 347.341 318.228 348.455 311.017C353.995 312.131 359.567 314.425 365.499 313.344Z" fill="#2163AD"/>
<path d="M437.215 228.057C437.215 218.224 448.916 211.275 444.885 200.164C460.028 209.735 467.829 224.484 474.646 240.381C482.12 257.851 485.102 276.436 488.872 294.66C489.543 297.036 489.618 299.541 489.093 301.953C488.567 304.365 487.455 306.611 485.856 308.492C480.048 310.871 473.752 311.815 467.501 311.245C460.946 309.672 460.093 304.493 459.241 299.085C457.274 286.663 455.177 274.24 453.21 261.817C451.093 249.305 445.557 237.621 437.215 228.057Z" fill="#263F7A"/>
<path d="M467.501 311.377C473.752 311.947 480.048 311.003 485.857 308.624C489.134 338.549 494.018 368.344 493.559 398.63C493.466 408.407 492.245 418.14 489.921 427.638C485.725 444.78 476.351 457.957 459.864 465.397C460.268 462.569 459.827 459.685 458.596 457.108C457.366 454.53 455.401 452.374 452.948 450.91C459.015 447.796 464.137 443.113 467.78 437.349C471.423 431.584 473.455 424.948 473.663 418.132C476.388 382.432 474.315 346.527 467.501 311.377Z" fill="#295BA7"/>
<path d="M43.8564 447.14C45.7575 443.403 48.1503 444.19 50.6085 446.484C59.2289 454.384 63.2605 451.794 64.1455 440.814C64.7159 438.056 65.6299 435.38 66.866 432.849C80.2391 445.337 94.7266 455.793 113.41 458.841C119.342 459.792 124.095 462.119 124.619 469.265C125.144 477.066 129.733 483.555 132.65 490.57C125.308 496.142 125.177 508.925 113.311 510.007C104.429 488.013 83.6152 479.655 65.5549 468.052C56.774 462.89 49.3387 455.724 43.8564 447.14Z" fill="#293C72"/>
<path d="M319.413 367.557C319.413 352.851 319.413 338.123 319.413 323.373H321.445L322.298 446.386C321.477 465.27 316.138 483.682 306.728 500.075C298.257 493.588 290.819 485.851 284.669 477.131L290.274 453.466L292.044 450.549L291.782 451.008C298.338 438.356 293.028 424.786 294.863 411.675C300.796 411.052 306.991 409.086 312.628 410.134C319.184 411.314 319.38 408.397 319.38 403.874C319.402 391.79 319.413 379.684 319.413 367.557Z" fill="#1F70B7"/>
<path d="M145.498 63.0896C150.755 71.6619 154.109 81.2639 155.331 91.2452C137.65 97.9153 121.521 108.133 107.935 121.269L78.2065 111.862C95.0769 89.0605 118.579 72.0265 145.498 63.0896Z" fill="#023E8A"/>
<path d="M365.499 313.344C359.566 314.426 354.092 312.131 348.454 311.017C346.527 309.876 344.963 308.209 343.948 306.213C342.932 304.216 342.506 301.971 342.718 299.741C345.603 279.026 349.471 258.573 358.583 239.497L360.353 240.185L359.73 236.481C368.776 238.874 374.84 246.511 383.362 249.789C377.893 265.791 374.629 282.464 373.66 299.348C373.652 302.193 372.893 304.985 371.46 307.443C370.027 309.9 367.971 311.936 365.499 313.344Z" fill="#263F7A"/>
<path d="M78.2067 111.83L107.936 121.27C93.7759 135.069 85.6471 152.244 80.2717 170.927L78.2067 169.649C60.9659 159.193 57.6226 161.127 56.5082 182.235C56.3308 183.648 56.0681 185.049 55.7216 186.431C52.0833 179.515 56.6065 172.173 52.4438 166.273C56.9343 146.213 64.4731 127.563 78.2067 111.83Z" fill="#023E8A"/>
<path d="M284.735 477.164C290.885 485.884 298.323 493.62 306.794 500.108C299.16 516.843 286.394 530.712 270.346 539.703C271.723 528.329 262.939 520.954 259.268 511.547H259.431C262.086 512.072 262.709 510.269 263.103 508.269C271.556 498.822 278.821 488.376 284.735 477.164Z" fill="#2163AD"/>
<path d="M186.241 527.509C182.608 532.147 180.898 538.005 181.466 543.869C182.033 549.732 184.834 555.153 189.289 559.008C172.329 556.539 156.283 549.768 142.68 539.342C142.877 527.608 143.052 515.884 143.205 504.172C155.301 515.528 170.125 523.566 186.241 527.509Z" fill="#21468C"/>
<path d="M360.943 550.913C352.65 561.795 344.554 572.906 333.312 581.133C324.593 587.525 319.185 596.342 319.775 606.962C320.337 611.734 319.627 616.571 317.715 620.981C315.804 625.391 312.76 629.216 308.893 632.069L300.141 629.742C309.974 624.333 310.499 616.926 304.664 608.207C309.548 586.836 318.332 568.153 338.949 557.402C345.59 553.361 353.172 551.124 360.943 550.913Z" fill="#023E8A"/>
<path d="M259.268 511.547C262.939 520.954 271.723 528.329 270.347 539.703C260.139 547.168 248.273 552.049 235.767 553.928C230.654 551.929 229.211 549.241 230.359 543.079C231.244 537.933 236.095 528.198 223.803 527.477C236.459 524.264 248.46 518.873 259.268 511.547Z" fill="#295BA7"/>
<path d="M373.922 464.249C375.528 458.94 376.676 453.367 382.313 450.516C394.998 445.698 404.012 448.615 407.158 458.546C407.901 460.765 408.16 463.117 407.919 465.444C407.677 467.771 406.94 470.019 405.757 472.037C404.573 474.055 402.972 475.797 401.06 477.145C399.148 478.493 396.969 479.416 394.67 479.851C382.739 481.818 376.938 474.705 373.922 464.249Z" fill="#023E8A"/>
<path d="M452.949 450.778C455.431 452.253 457.415 454.436 458.647 457.047C459.879 459.657 460.303 462.576 459.865 465.43C457.604 476.377 450.655 482.179 439.806 480.048C429.973 478.147 425.81 470.707 427.219 460.677C428.858 449.041 439.216 445.075 452.949 450.778Z" fill="#293C72"/>
<path d="M143.205 504.074C143.052 515.786 142.877 527.51 142.681 539.244C130.445 532.265 120.269 522.179 113.181 510.007C125.046 508.925 125.178 496.142 132.52 490.57C136.147 495.071 139.709 499.573 143.205 504.074Z" fill="#263F7A"/>
<path d="M304.828 608.207C310.662 616.925 310.236 624.333 300.305 629.741C285.503 631.756 270.51 631.943 255.662 630.298C261.496 625.808 268.216 628.987 274.476 628.004C278.475 627.348 284.113 629.905 284.932 622.956C285.555 617.548 288.8 611.091 280.278 608.567L304.828 608.207Z" fill="#21468C"/>
<path d="M292.603 77.7737C295.88 80.6253 294.831 84.5586 294.831 88.0657C294.831 149.643 294.831 211.22 294.831 272.798C294.831 276.666 296.306 281.09 292.078 284.04C292.253 215.274 292.428 146.518 292.603 77.7737Z" fill="#1F70B7"/>
<path d="M294.995 411.773C293.159 424.884 298.6 438.388 291.914 451.106C291.914 426.61 292.023 402.148 292.241 377.718H294.831C294.995 388.928 294.995 400.334 294.995 411.773Z" fill="#2163AD"/>
<path d="M191.583 353.07C176.309 357.822 160.674 354.512 145.204 354.84C145.204 354.84 144.679 354.283 144.679 353.988C144.704 353.581 144.828 353.188 145.04 352.84L191.583 353.07Z" fill="#1A7ABF"/>
<path d="M292.21 306.231C296.34 322.62 297.29 339.008 291.751 355.102C291.926 338.823 292.079 322.532 292.21 306.231Z" fill="#1F70B7"/>
<path d="M292.373 283.549C279.693 288.135 265.838 288.32 253.04 284.073L292.373 283.549Z" fill="#1A7ABF"/>
<path d="M385.722 552.256C381.986 558.516 381.527 558.451 376.151 550.552L385.722 552.256Z" fill="#023E8A"/>
<path d="M397.817 89.8691C405.782 91.4097 402.373 94.2941 398.735 97.244C398.08 96.1452 397.66 94.9223 397.502 93.6529C397.344 92.3834 397.452 91.095 397.817 89.8691Z" fill="#023E8A"/>
<path d="M309.221 632.855C312.498 634.592 312.105 637.641 311.974 640.591C310.962 639.592 310.189 638.377 309.712 637.038C309.235 635.699 309.067 634.269 309.221 632.855Z" fill="#023E8A"/>
<path d="M359.73 236.481L360.353 240.185L358.583 239.497L359.73 236.481Z" fill="#023E8A"/>
<path d="M263.103 508.401C262.644 510.334 262.087 512.137 259.432 511.678L263.103 508.401Z" fill="#295BA7"/>
<path d="M292.11 450.581L290.34 453.498C290.248 453.19 290.22 452.866 290.261 452.547C290.301 452.228 290.409 451.921 290.575 451.645C290.742 451.37 290.965 451.133 291.23 450.95C291.494 450.767 291.794 450.641 292.11 450.581Z" fill="#2163AD"/>
<path d="M425.218 94.7197C425.136 94.0778 425.136 93.4279 425.218 92.7859C425.841 93.4087 425.907 94.0314 425.218 94.7197Z" fill="#023E8A"/>
<path d="M321.512 63.2209V323.406H319.479C319.479 307.848 319.479 292.268 319.479 276.666C319.479 209.844 319.479 142.99 319.479 76.1024C319.545 71.7758 317.939 67.0559 321.512 63.2209Z" fill="#1A7ABF"/>
<path d="M245.535 303.904L246.584 302.855C246.584 303.052 246.584 303.314 246.354 303.445C246.1 303.63 245.825 303.784 245.535 303.904Z" fill="#1F84C7"/>
<path d="M294.995 411.774C294.995 400.334 294.995 388.83 294.995 377.489C304.337 376.931 310.04 367.393 319.644 367.655C319.644 379.783 319.644 391.921 319.644 404.071C319.644 408.594 319.644 411.511 312.891 410.331C307.057 409.184 300.862 411.151 294.995 411.774Z" fill="#1A7ABF"/>
<path d="M201.515 409.381L200.925 410.43L201.483 409.348L201.515 409.381Z" fill="#288BCB"/>
<path d="M405.782 615.024C405.747 625.161 401.687 634.868 394.495 642.01C387.303 649.153 377.569 653.146 367.432 653.111C357.296 653.077 347.589 649.017 340.447 641.825C333.304 634.633 329.311 624.898 329.345 614.762C329.345 591.818 345.734 575.856 369.006 576.118C390.54 576.38 405.913 592.638 405.782 615.024ZM387.689 615.024C387.571 609.872 385.617 604.932 382.18 601.092C378.743 597.252 374.048 594.766 368.94 594.08C363.372 594.128 358.024 596.263 353.953 600.061C349.881 603.86 347.381 609.047 346.947 614.598C347.269 619.766 349.428 624.648 353.035 628.362C356.641 632.077 361.457 634.38 366.613 634.855C371.984 634.778 377.13 632.687 381.033 628.996C384.936 625.306 387.312 620.284 387.689 614.926V615.024Z" fill="#1F70B7"/>
<path d="M387.688 614.927C387.247 620.255 384.831 625.226 380.914 628.864C376.996 632.503 371.861 634.546 366.514 634.593C361.359 634.118 356.543 631.815 352.936 628.101C349.33 624.386 347.17 619.504 346.848 614.337C347.283 608.785 349.782 603.598 353.854 599.8C357.926 596.001 363.273 593.867 368.842 593.818C373.994 594.487 378.735 596.987 382.195 600.863C385.656 604.739 387.606 609.731 387.688 614.927Z" fill="#29396C"/>
</svg>
