<svg width="64" height="64" viewBox="0 0 64 64" fill="none" xmlns="http://www.w3.org/2000/svg">
<path fill-rule="evenodd" clip-rule="evenodd" d="M46.6355 11.8145C45.7969 11.0957 44.5343 11.1928 43.8154 12.0315L27.8154 30.6981C27.1735 31.4471 27.1735 32.5523 27.8154 33.3013L43.8154 51.968C44.5343 52.8066 45.7969 52.9037 46.6355 52.1849C47.4742 51.466 47.5713 50.2034 46.8525 49.3648L31.9681 31.9997L46.8525 14.6346C47.5713 13.796 47.4742 12.5334 46.6355 11.8145ZM35.9683 11.8148C35.1297 11.096 33.8671 11.1931 33.1482 12.0317L17.1482 30.6984C16.5063 31.4474 16.5063 32.5526 17.1482 33.3016L33.1482 51.9682C33.8671 52.8069 35.1297 52.904 35.9683 52.1852C36.807 51.4663 36.9041 50.2037 36.1853 49.3651L21.3009 32L36.1853 14.6349C36.9041 13.7963 36.807 12.5337 35.9683 11.8148Z" fill="#0077B6"/>
</svg>
