<svg width="241" height="241" viewBox="0 0 241 241" fill="none" xmlns="http://www.w3.org/2000/svg">
<path d="M218.317 78.8118C218.317 78.8118 184.124 20.1139 136.377 10.3678C94.2021 1.76412 53.0586 18.9715 44.05 62.5299C40.8399 78.0454 35.9717 95.1082 28.626 108.918C20.3982 124.399 7.47099 136.811 14.0985 168.367C20.726 199.924 56.876 230.82 84.7742 232.955C112.672 235.091 140.893 211.853 164.343 190.539C187.792 169.225 258.352 153.025 218.317 78.8118Z" fill="#0077B6"/>
<path opacity="0.7" d="M218.317 78.8118C218.317 78.8118 184.124 20.1139 136.377 10.3678C94.2021 1.76412 53.0586 18.9715 44.05 62.5299C40.8399 78.0454 35.9717 95.1082 28.626 108.918C20.3982 124.399 7.47099 136.811 14.0985 168.367C20.726 199.924 56.876 230.82 84.7742 232.955C112.672 235.091 140.893 211.853 164.343 190.539C187.792 169.225 258.352 153.025 218.317 78.8118Z" fill="white"/>
<path d="M107.004 34.598C107.004 34.598 91.6567 46.3491 90.0998 52.2199C88.543 58.0907 90.6975 68.4055 90.0998 70.4443C89.5022 72.4832 79.9104 78.2334 79.7899 86.5046C79.6694 94.7757 83.3856 102.931 113.236 106.522C143.086 110.113 154.471 93.214 154.471 84.1042C154.471 74.9944 146.802 69.2393 145.482 64.9254C144.161 60.6115 149.68 52.8176 141.765 43.2354C133.851 33.6533 113.236 24.4085 107.004 34.598Z" fill="#263238" stroke="#263238" stroke-linejoin="round"/>
<path d="M173.587 141.062C173.587 141.062 176.359 164.868 176.937 171.221C177.516 177.574 176.012 181.275 171.505 183.589C166.998 185.903 164.574 187.402 159.937 182.664C155.3 177.925 158.549 168.796 158.318 165.21C158.086 161.624 154.852 147.858 154.852 147.858L173.587 141.062Z" fill="white" stroke="#263238" stroke-linejoin="round"/>
<path d="M174.132 147.738L156.597 153.589L154.866 147.878L173.587 141.057L174.132 147.738Z" fill="#263238" stroke="#263238" stroke-linejoin="round"/>
<path d="M162.954 163.827C162.954 163.827 171.042 161.745 174.855 169.259L162.954 163.827Z" fill="white"/>
<path d="M162.954 163.827C162.954 163.827 171.042 161.745 174.855 169.259" stroke="#263238" stroke-linejoin="round"/>
<path d="M146.451 171.794L151.097 144.672L173.626 138.479C173.626 138.479 172.811 119.893 167.933 112.643C163.056 105.394 150.398 101.307 142.387 98.7329C134.377 96.159 126.824 94.6407 126.824 94.6407C126.824 94.6407 112.421 92.6549 106.035 96.1638C106.035 96.1638 84.2003 105.746 80.3684 107.616C76.5365 109.486 72.2419 111.593 70.6127 120.592C68.9836 129.591 68.1738 137.659 68.1738 137.659L83.1544 145.14L87.6852 171.794L86.7212 179.338L69.962 212.803H164.559L147.545 178.822L146.451 171.794Z" fill="#ABABAB" stroke="#263238" stroke-linejoin="round"/>
<path d="M122.163 137.211C122.674 137.211 123.088 136.797 123.088 136.286C123.088 135.774 122.674 135.36 122.163 135.36C121.652 135.36 121.237 135.774 121.237 136.286C121.237 136.797 121.652 137.211 122.163 137.211Z" stroke="#263238" stroke-linejoin="round"/>
<path d="M122.163 151.372C122.674 151.372 123.088 150.958 123.088 150.447C123.088 149.936 122.674 149.521 122.163 149.521C121.652 149.521 121.237 149.936 121.237 150.447C121.237 150.958 121.652 151.372 122.163 151.372Z" stroke="#263238" stroke-linejoin="round"/>
<path d="M122.163 165.528C122.674 165.528 123.088 165.114 123.088 164.603C123.088 164.092 122.674 163.678 122.163 163.678C121.652 163.678 121.237 164.092 121.237 164.603C121.237 165.114 121.652 165.528 122.163 165.528Z" stroke="#263238" stroke-linejoin="round"/>
<path d="M123.088 178.759C123.088 178.942 123.034 179.121 122.932 179.274C122.831 179.426 122.686 179.544 122.517 179.614C122.348 179.684 122.162 179.703 121.982 179.667C121.803 179.631 121.638 179.543 121.508 179.414C121.379 179.284 121.291 179.119 121.255 178.94C121.219 178.76 121.238 178.574 121.308 178.405C121.378 178.236 121.496 178.092 121.649 177.99C121.801 177.888 121.98 177.834 122.163 177.834C122.408 177.834 122.644 177.931 122.817 178.105C122.991 178.279 123.088 178.514 123.088 178.759Z" stroke="#263238" stroke-linejoin="round"/>
<path d="M122.163 193.841C122.674 193.841 123.088 193.427 123.088 192.916C123.088 192.405 122.674 191.99 122.163 191.99C121.652 191.99 121.237 192.405 121.237 192.916C121.237 193.427 121.652 193.841 122.163 193.841Z" stroke="#263238" stroke-linejoin="round"/>
<path d="M123.088 207.077C123.088 207.26 123.034 207.439 122.932 207.591C122.831 207.743 122.686 207.862 122.517 207.932C122.348 208.002 122.162 208.02 121.982 207.985C121.803 207.949 121.638 207.861 121.508 207.731C121.379 207.602 121.291 207.437 121.255 207.257C121.219 207.078 121.238 206.892 121.308 206.723C121.378 206.554 121.496 206.409 121.649 206.307C121.801 206.206 121.98 206.151 122.163 206.151C122.408 206.151 122.644 206.249 122.817 206.422C122.991 206.596 123.088 206.831 123.088 207.077Z" stroke="#263238" stroke-linejoin="round"/>
<path d="M118.798 130.998V202.238" stroke="#263238" stroke-linejoin="round"/>
<path d="M151.362 135.649L150.143 142.802L154.62 135.182" stroke="#263238" stroke-linejoin="round"/>
<path d="M84.6485 135.649L85.8679 142.802L81.3901 135.182" stroke="#263238" stroke-linejoin="round"/>
<path d="M99.0121 116.967C99.0121 116.967 96.0478 121.835 97.5324 121.411C99.0169 120.987 107.269 115.487 107.269 115.487C107.269 115.487 104.092 120.355 106.633 122.047C109.173 123.739 119.536 128.651 119.536 128.651C119.536 128.651 131.822 123.744 132.034 121.835C132.246 119.926 131.61 119.083 131.61 118.027C131.61 116.972 130.337 115.699 132.882 116.543C135.427 117.386 144.735 122.471 144.098 121.204C143.462 119.936 133.157 99.5137 131.75 98.8197C130.342 98.1256 111.289 97.4893 107.9 99.3981C104.512 101.307 99.0121 116.967 99.0121 116.967Z" fill="#263238" stroke="#263238" stroke-linejoin="round"/>
<path d="M65.2962 131.557L63.5176 140.185L84.5858 150.538L86.6391 143.202L65.2962 131.557Z" fill="#ABABAB" stroke="#263238" stroke-linejoin="round"/>
<path d="M150.143 142.802L152.114 150.403L177.086 142.923L173.717 133.919L150.143 142.802Z" fill="#ABABAB" stroke="#263238" stroke-linejoin="round"/>
<path d="M107.64 90.2208C107.64 90.2208 102.242 96.7663 101.663 97.8123C101.085 98.8582 96.7999 115.892 95.055 119.261C93.3102 122.63 95.9853 121.58 97.841 119.493C99.6967 117.406 107.481 112.745 107.25 114.147C107.018 115.55 104.926 118.909 106.204 119.608C107.481 120.307 117.936 129.017 118.861 129.017C119.786 129.017 133.032 120.539 133.495 119.377C133.957 118.215 130.94 113.593 132.453 113.8C133.967 114.007 144.985 124.139 146.272 123.325C147.559 122.51 140.464 106.021 137.114 98.5883C136.085 96.1846 134.433 94.0993 132.328 92.5478C130.223 90.9963 127.742 90.0349 125.141 89.7629C123.266 89.652 107.64 90.2208 107.64 90.2208Z" fill="#ABABAB" stroke="#263238" stroke-linejoin="round"/>
<path d="M107.968 87.671C107.968 87.671 105.876 97.0796 105.876 99.6342C105.876 102.189 117.357 132.015 119.56 128.651C121.763 125.286 131.774 100.695 131.774 98.8197C131.774 96.9447 130.844 86.9721 130.844 86.9721C130.844 86.9721 122.717 92.4332 119.232 92.7802C115.747 93.1272 107.968 87.671 107.968 87.671Z" fill="white" stroke="#263238" stroke-linejoin="round"/>
<path d="M107.341 89.0591C107.341 89.0591 104.112 101.702 107.543 102.666C110.975 103.63 130.583 90.2834 130.583 90.2834L107.341 89.0591Z" fill="#263238" stroke="#263238" stroke-linejoin="round"/>
<path d="M110.378 48.6242C109.677 52.5603 108.468 56.3889 106.782 60.0138C104.145 65.4074 98.8676 69.7213 98.8676 69.7213C98.8676 69.7213 98.0289 72.3579 99.1086 74.0593C99.7638 75.0775 100.672 75.9079 101.745 76.4693C101.745 76.4693 104.502 84.7404 105.601 86.7793C106.7 88.8182 114.475 96.7278 116.509 97.5665C118.543 98.4051 122.505 98.2895 124.182 97.3303C125.86 96.3711 132.174 89.0254 133.032 86.8661C133.89 84.7067 135.924 75.9584 135.924 75.9584C135.924 75.9584 137.485 75.4764 138.445 73.0664C139.054 71.4092 139.418 69.6716 139.524 67.909C139.524 67.909 136.285 67.3113 131.369 65.981C126.452 64.6507 125.498 63.8265 125.498 63.8265C125.498 63.8265 121.541 63.947 116.624 60.3464C111.708 56.7459 110.378 48.6242 110.378 48.6242Z" fill="white" stroke="#263238" stroke-linejoin="round"/>
<path d="M115.034 50.5425C115.034 50.5425 115.516 57.0158 118.629 59.5318C121.743 62.0479 123.666 61.5707 123.666 61.5707C123.666 61.5707 117.55 56.1771 115.034 50.5425Z" fill="white" stroke="#263238" stroke-linejoin="round"/>
<path d="M107.968 73.0808C109.014 73.6433 110.18 73.9476 111.368 73.9686C112.556 73.9896 113.732 73.7265 114.798 73.2013" stroke="#263238" stroke-width="2" stroke-linejoin="round"/>
<path d="M123.787 73.0808C124.834 73.6433 126 73.9476 127.187 73.9686C128.375 73.9896 129.551 73.7265 130.617 73.2013" stroke="#263238" stroke-width="2" stroke-linejoin="round"/>
<path d="M114.793 67.6873C114.793 67.6873 111.197 65.8846 107.24 69.1333" stroke="#263238" stroke-linejoin="round"/>
<path d="M123.903 67.6873C123.903 67.6873 127.499 65.8846 131.456 69.1333" stroke="#263238" stroke-linejoin="round"/>
<path d="M116.47 82.7883C116.47 82.7883 117.55 84.2343 118.991 84.35C120.432 84.4657 121.883 84.109 122.587 83.1498" stroke="#263238" stroke-linejoin="round"/>
<path d="M114.075 87.1071C114.075 87.1071 116.967 89.0351 119.709 88.7844C122.452 88.5338 125.103 86.6251 125.103 86.6251" stroke="#263238" stroke-linejoin="round"/>
<path d="M166.188 167.061C166.188 167.061 163.648 163.017 162.492 161.513C161.335 160.01 158.795 159.32 155.556 155.85C152.317 152.379 151.049 155.734 152.09 158.048C153.131 160.361 155.903 162.207 157.175 163.017C158.448 163.827 159.489 166.02 159.489 167.061C159.489 168.102 158.795 170.527 158.795 170.527C157.724 169.169 156.581 167.869 155.372 166.632C152.553 163.596 150.475 161.166 149.897 163.711C149.318 166.256 150.379 167.524 152.307 169.259C154.235 170.994 156.351 173.187 156.582 173.65C156.814 174.113 157.508 177.694 158.549 178.388C159.59 179.082 160.858 179.54 160.858 180.119C160.858 180.697 159.937 182.779 162.13 185.319C164.323 187.86 166.984 187.517 168.396 183.816C169.808 180.114 169.664 173.419 168.28 170.18C166.897 166.941 166.188 167.061 166.188 167.061Z" fill="white" stroke="#263238" stroke-linejoin="round"/>
<path d="M165.148 166.02C165.148 166.02 162.145 169.028 158.795 170.527C155.445 172.026 153.247 172.725 153.011 173.997C152.775 175.27 153.127 176.407 155.782 176.19C158.438 175.973 166.531 172.816 167.919 171.105C169.307 169.394 168.502 164.174 165.148 166.02Z" fill="white" stroke="#263238" stroke-linejoin="round"/>
<path d="M169.225 177.193C169.225 177.193 169.77 178.504 167.346 180.697C164.921 182.89 160.178 185.319 158.216 185.782C156.255 186.245 154.635 185.3 155.903 184.047C157.171 182.794 160.872 180.119 160.872 180.119C163.746 179.421 166.544 178.441 169.225 177.193Z" fill="white" stroke="#263238" stroke-linejoin="round"/>
<path d="M167.924 171.11C167.924 171.11 169.886 170.3 170.464 174.344C171.042 178.388 162.839 180.47 159.605 180.702C156.37 180.933 154.172 179.661 154.635 178.624C155.098 177.588 155.556 177.468 159.489 175.848C163.422 174.229 167.924 171.11 167.924 171.11Z" fill="white" stroke="#263238" stroke-linejoin="round"/>
<path d="M66.8002 133.996C66.8002 133.996 61.4596 135.967 63.1996 141.077C64.9396 146.186 65.6385 147.584 66.2218 150.717C66.805 153.85 64.7131 156.178 62.7369 167.673C60.7607 179.169 67.6147 181.608 71.0996 183.7C74.5845 185.792 79.8093 174.06 80.3877 170.575C80.9661 167.09 76.7872 156.756 75.9774 151.184C75.1677 145.612 74.0012 142.47 76.6715 138.652C79.3418 134.835 74.9315 133.543 73.5385 132.733C72.1455 131.923 66.8002 133.996 66.8002 133.996Z" fill="white" stroke="#263238" stroke-linejoin="round"/>
<path d="M70.1694 150.268C74.0013 150.268 76.5559 146.552 76.5559 146.552C77.7877 146.153 78.8897 145.431 79.7468 144.46C80.9662 142.952 80.9711 140.166 80.9711 140.166C80.9711 140.166 83.892 135.977 86.0803 134.705C88.2685 133.432 89.7965 132.613 90.4954 130.41C91.1943 128.207 90.1435 127.036 87.3576 129.364C84.5716 131.692 83.2943 132.15 83.2943 132.15L73.6543 134.126" fill="white"/>
<path d="M70.1694 150.268C74.0013 150.268 76.5559 146.552 76.5559 146.552C77.7877 146.153 78.8897 145.431 79.7468 144.46C80.9662 142.952 80.9711 140.166 80.9711 140.166C80.9711 140.166 83.892 135.977 86.0803 134.705C88.2685 133.432 89.7965 132.613 90.4954 130.41C91.1943 128.207 90.1435 127.036 87.3576 129.364C84.5716 131.692 83.2943 132.15 83.2943 132.15L73.6543 134.126" stroke="#263238" stroke-linejoin="round"/>
<path d="M85.321 132.495L71.8921 138.618L82.7718 162.48L96.2007 156.358L85.321 132.495Z" fill="white" stroke="#263238" stroke-linejoin="round"/>
<path d="M79.6841 137.216L88.7939 157.19" stroke="#263238" stroke-linejoin="round"/>
<path d="M76.7437 144.118C77.0067 144.236 77.3057 144.247 77.5763 144.147C77.8468 144.047 78.0671 143.844 78.1897 143.583L79.5634 140.633C79.679 140.369 79.6872 140.071 79.5865 139.801C79.4857 139.531 79.2838 139.311 79.0236 139.187C78.7602 139.071 78.4621 139.062 78.1923 139.162C77.9225 139.262 77.702 139.463 77.5776 139.722L76.2087 142.672C76.0915 142.935 76.0819 143.234 76.1819 143.504C76.2818 143.774 76.4835 143.994 76.7437 144.118Z" fill="#263238" stroke="#263238" stroke-linejoin="round"/>
<path d="M78.9126 148.875C79.1758 148.992 79.4744 149.002 79.7445 148.902C80.0147 148.802 80.2351 148.601 80.3586 148.34L81.7275 145.39C81.846 145.127 81.8562 144.828 81.7561 144.558C81.656 144.287 81.4536 144.067 81.1925 143.944C80.9293 143.827 80.6308 143.818 80.3606 143.918C80.0904 144.018 79.87 144.219 79.7465 144.48L78.3776 147.429C78.2605 147.693 78.2508 147.991 78.3508 148.261C78.4508 148.531 78.6524 148.752 78.9126 148.875Z" fill="#263238" stroke="#263238" stroke-linejoin="round"/>
<path d="M81.0816 153.628C81.3446 153.746 81.6436 153.757 81.9142 153.656C82.1847 153.556 82.405 153.354 82.5276 153.093L83.8965 150.143C84.0149 149.88 84.0252 149.581 83.9251 149.31C83.825 149.04 83.6225 148.82 83.3614 148.697C83.0983 148.58 82.7997 148.57 82.5296 148.67C82.2594 148.77 82.039 148.972 81.9154 149.232L80.5466 152.182C80.4294 152.445 80.4198 152.744 80.5198 153.014C80.6197 153.284 80.8214 153.504 81.0816 153.628Z" fill="#263238" stroke="#263238" stroke-linejoin="round"/>
<path d="M83.2506 158.385C83.5138 158.502 83.8123 158.512 84.0825 158.412C84.3526 158.312 84.573 158.11 84.6966 157.85L86.0655 154.9C86.1826 154.637 86.1922 154.339 86.0923 154.068C85.9923 153.798 85.7907 153.578 85.5304 153.454C85.2673 153.337 84.9687 153.328 84.6985 153.428C84.4284 153.528 84.208 153.729 84.0844 153.989L82.7156 156.939C82.5971 157.202 82.5868 157.501 82.6869 157.772C82.787 158.042 82.9895 158.263 83.2506 158.385Z" fill="#263238" stroke="#263238" stroke-linejoin="round"/>
<path d="M82.9855 141.274C83.2486 141.391 83.5472 141.401 83.8174 141.301C84.0875 141.201 84.3079 140.999 84.4315 140.739L85.8003 137.789C85.9175 137.526 85.9271 137.228 85.8272 136.957C85.7272 136.687 85.5256 136.467 85.2653 136.343C85.0022 136.226 84.7036 136.217 84.4334 136.317C84.1633 136.417 83.9429 136.618 83.8193 136.878L82.4456 139.828C82.3288 140.092 82.3199 140.391 82.4208 140.661C82.5217 140.932 82.7244 141.152 82.9855 141.274Z" fill="#263238" stroke="#263238" stroke-linejoin="round"/>
<path d="M85.1498 146.046C85.4136 146.163 85.7126 146.172 85.9829 146.071C86.2531 145.97 86.4731 145.767 86.5958 145.506L87.9695 142.561C88.0867 142.298 88.0963 141.999 87.9963 141.729C87.8964 141.459 87.6947 141.239 87.4345 141.115C87.3029 141.053 87.1604 141.018 87.0152 141.012C86.87 141.005 86.7249 141.028 86.5883 141.077C86.4517 141.127 86.3263 141.203 86.2192 141.301C86.1121 141.4 86.0255 141.518 85.9644 141.65L84.5955 144.6C84.4809 144.866 84.4748 145.166 84.5783 145.436C84.6819 145.706 84.887 145.925 85.1498 146.046Z" fill="#263238" stroke="#263238" stroke-linejoin="round"/>
<path d="M87.3189 150.784C87.5821 150.901 87.8806 150.911 88.1508 150.811C88.421 150.711 88.6413 150.509 88.7649 150.249L90.1386 147.299C90.2554 147.035 90.2643 146.736 90.1634 146.466C90.0625 146.196 89.8598 145.976 89.5987 145.853C89.3354 145.737 89.0373 145.728 88.7675 145.828C88.4977 145.928 88.2772 146.129 88.1527 146.388L86.7839 149.338C86.6667 149.601 86.6571 149.9 86.7571 150.17C86.857 150.44 87.0587 150.661 87.3189 150.784Z" fill="#263238" stroke="#263238" stroke-linejoin="round"/>
<path d="M89.4878 155.541C89.751 155.659 90.0496 155.668 90.3197 155.568C90.5899 155.468 90.8103 155.267 90.9338 155.006L92.3027 152.057C92.4211 151.794 92.4314 151.495 92.3313 151.224C92.2312 150.953 92.0288 150.733 91.7677 150.611C91.5047 150.492 91.2057 150.482 90.9351 150.582C90.6646 150.682 90.4443 150.884 90.3217 151.146L88.9528 154.095C88.8357 154.359 88.826 154.657 88.926 154.927C89.026 155.197 89.2276 155.418 89.4878 155.541Z" fill="#263238" stroke="#263238" stroke-linejoin="round"/>
<path d="M74.5845 129.942C74.5845 129.942 77.7175 126.694 79.3418 127.272C80.9662 127.851 85.1258 132.15 85.2656 133.196C85.4054 134.242 86.8948 137.611 86.3115 137.842C85.7283 138.074 81.9012 135.635 80.2721 133.986C78.6429 132.338 74.5845 129.942 74.5845 129.942Z" fill="white" stroke="#263238" stroke-linejoin="round"/>
<path d="M68.3135 134.478C68.3135 134.478 70.8681 128.901 72.6081 128.901C74.3481 128.901 80.6238 131.692 81.4335 132.854C82.2433 134.015 85.9643 137.616 85.0341 138.079C84.1038 138.541 82.1421 137.597 80.7394 136.57C80.0309 136.027 79.2941 135.521 78.5319 135.056L74.5843 133.895" fill="white"/>
<path d="M68.3135 134.478C68.3135 134.478 70.8681 128.901 72.6081 128.901C74.3481 128.901 80.6238 131.692 81.4335 132.854C82.2433 134.015 85.9643 137.616 85.0341 138.079C84.1038 138.541 82.1421 137.597 80.7394 136.57C80.0309 136.027 79.2941 135.521 78.5319 135.056L74.5843 133.895" stroke="#263238" stroke-linejoin="round"/>
<path d="M64.2456 136.565C64.2456 136.565 66.8002 130.988 68.5451 130.988C70.2899 130.988 76.5559 133.774 77.3705 134.936C78.1851 136.098 81.9013 139.698 80.971 140.166C80.0408 140.633 78.079 139.684 76.6716 138.652C75.9645 138.111 75.2292 137.607 74.4688 137.143L70.5164 135.982" fill="white"/>
<path d="M64.2456 136.565C64.2456 136.565 66.8002 130.988 68.5451 130.988C70.2899 130.988 76.5559 133.774 77.3705 134.936C78.1851 136.098 81.9013 139.698 80.971 140.166C80.0408 140.633 78.079 139.684 76.6716 138.652C75.9645 138.111 75.2292 137.607 74.4688 137.143L70.5164 135.982" stroke="#263238" stroke-linejoin="round"/>
<path d="M63.1995 139.12C63.1995 139.12 61.9222 136.329 63.1995 135.746C64.4768 135.162 72.7239 133.191 73.5384 132.728C74.353 132.266 75.8617 132.96 74.0204 135.047C72.1792 137.134 66.7037 138.421 66.1253 138.532" fill="white"/>
<path d="M63.1995 139.12C63.1995 139.12 61.9222 136.329 63.1995 135.746C64.4768 135.162 72.7239 133.191 73.5384 132.728C74.353 132.266 75.8617 132.96 74.0204 135.047C72.1792 137.134 66.7037 138.421 66.1253 138.532" stroke="#263238" stroke-linejoin="round"/>
<path d="M47.2796 98.8678L40.7485 103.35C40.7485 103.35 37.3119 105.331 35.5333 108.522L28.3467 127.802C28.3467 127.802 27.508 128.829 26.6066 128.569C26.0272 128.401 25.4589 128.196 24.9052 127.957C24.4133 127.701 23.8742 127.549 23.3212 127.51C22.7682 127.471 22.2131 127.546 21.6902 127.73C20.1045 128.39 18.7404 129.759 18.3934 132.275C18.0463 134.791 18.8754 136.758 20.5431 137.466C22.2108 138.175 23.758 138.064 25.1751 136.941C26.5922 135.818 27.749 133.316 28.0671 132.468C28.2888 131.856 28.6069 130.94 28.7612 130.477L34.5886 115.849L35.6441 115.502C35.6441 115.502 39.1338 108.932 40.681 107.77C42.2283 106.609 46.7205 103.177 47.429 101.986C48.1376 100.796 47.2796 98.8678 47.2796 98.8678ZM24.9823 136.179C24.2882 136.854 22.6687 137.37 20.813 136.589C18.9573 135.808 18.6922 133.572 18.9525 132.15C19.2128 130.728 20.76 128.386 22.2927 128.429C23.8255 128.472 25.5318 129.036 26.2692 130.424C27.0067 131.813 26.3946 133.798 26.3946 133.798C25.9222 134.96 25.6764 135.5 24.9823 136.179Z" fill="white" stroke="black" stroke-linejoin="round"/>
<path d="M40.4883 131.89C39.2303 130.771 36.7431 130.964 36.7431 130.964C36.5833 130.955 36.4269 130.914 36.2836 130.843C36.1403 130.771 36.013 130.671 35.9097 130.549C35.8064 130.427 35.7291 130.285 35.6826 130.131C35.6361 129.978 35.6214 129.817 35.6394 129.658C35.7406 128.463 38.8591 109.949 38.8591 109.949L39.3411 107.539L45.477 95.918L46.306 93.749C46.306 93.749 45.9493 93.4309 45.7517 93.455L44.272 95.0552C44.272 95.0552 36.1021 105.5 35.9141 106.286C35.7261 107.071 35.5333 108.522 35.5333 108.522L34.6031 114.788C34.6031 114.788 36.2419 116.041 36.2756 116.861C36.3093 117.603 33.8656 132.965 33.3836 136.035C33.3409 136.209 33.3119 136.386 33.2968 136.565C33.2053 138.146 34.0295 140.86 36.372 140.807C38.7145 140.754 40.3581 139.491 41.327 137.327C42.2958 135.162 41.7415 133.032 40.4883 131.89ZM40.6473 137.192C39.8665 138.936 38.5362 139.949 36.6371 139.992C34.738 140.035 34.0632 137.838 34.1355 136.565C34.1795 135.858 34.3647 135.167 34.6801 134.533C34.9955 133.899 35.4347 133.335 35.9719 132.873C36.4989 132.386 37.1829 132.104 37.8999 132.078C38.6455 132.109 39.3644 132.364 39.9629 132.81C40.9703 133.721 41.4523 135.442 40.6425 137.201L40.6473 137.192Z" fill="white" stroke="black" stroke-linejoin="round"/>
<path d="M36.8828 106.353L39.3555 107.529" stroke="black" stroke-linejoin="round"/>
<path d="M38.1457 110.744C38.0752 110.894 37.9628 111.02 37.8221 111.106C37.6814 111.193 37.5185 111.237 37.3533 111.233C37.188 111.229 37.0275 111.177 36.8912 111.084C36.7549 110.99 36.6488 110.859 36.5857 110.706C36.5225 110.553 36.5051 110.386 36.5356 110.223C36.5661 110.061 36.6431 109.911 36.7573 109.791C36.8715 109.671 37.018 109.588 37.1789 109.55C37.3398 109.512 37.5083 109.522 37.6637 109.578C37.772 109.623 37.8704 109.689 37.9533 109.771C38.0361 109.854 38.1018 109.953 38.1466 110.061C38.1914 110.169 38.2143 110.286 38.2142 110.403C38.214 110.52 38.1908 110.636 38.1457 110.744Z" fill="white" stroke="black" stroke-linejoin="round"/>
<path d="M38.1457 110.744L36.5503 110.171" stroke="black" stroke-linejoin="round"/>
<path d="M40.1798 105.703C40.1424 105.42 40.0273 105.153 39.8473 104.931C39.5436 104.541 39.0953 104.213 39.399 103.591C39.7027 102.97 44.5323 95.3251 44.5323 95.3251L45.1011 95.7734" fill="white"/>
<path d="M40.1798 105.703C40.1424 105.42 40.0273 105.153 39.8473 104.931C39.5436 104.541 39.0953 104.213 39.399 103.591C39.7027 102.97 44.5323 95.3251 44.5323 95.3251L45.1011 95.7734" stroke="black" stroke-linejoin="round"/>
<path d="M81.6266 28.7802C80.0456 24.9242 77.3271 22.3552 75.5534 23.0782C75.2949 23.1833 75.0652 23.3485 74.8834 23.5602L45.7031 44.5416L51.4293 58.5678L81.2795 37.114C83.0533 36.3814 83.2076 32.6555 81.6266 28.7802Z" fill="white" stroke="black" stroke-linejoin="round"/>
<path d="M79.3755 30.366C77.7946 26.51 75.0713 23.9361 73.2975 24.6591C73.0368 24.7738 72.8071 24.9489 72.6275 25.17L43.4473 46.1419L49.1638 60.1729L79.0478 38.7094C80.7974 37.9864 80.9758 34.2557 79.3755 30.366Z" fill="white" stroke="black" stroke-linejoin="round"/>
<path d="M52.0176 50.716C49.9064 45.5393 46.2722 42.1268 43.9007 43.0956C43.5496 43.2433 43.2413 43.4771 43.0042 43.7752L34.2222 50.0123L41.8763 68.7621L51.5742 61.8454C53.9263 60.8766 54.1336 55.912 52.0176 50.716Z" fill="white" stroke="black" stroke-linejoin="round"/>
<path d="M42.334 57.6327C44.4452 62.8142 44.262 67.7933 41.852 68.7621C39.442 69.7309 35.8607 66.3184 33.7399 61.1417C31.6191 55.965 31.8119 50.9811 34.2219 50.0123C36.6319 49.0435 40.218 52.4561 42.334 57.6327Z" fill="white" stroke="black" stroke-linejoin="round"/>
<path d="M41.3776 67.5516C43.4429 66.7084 43.6243 62.3687 41.7829 57.8587C39.9414 53.3486 36.7745 50.3761 34.7092 51.2193C32.6439 52.0626 32.4625 56.4023 34.3039 60.9123C36.1454 65.4223 39.3124 68.3949 41.3776 67.5516Z" fill="white" stroke="black" stroke-linejoin="round"/>
<path d="M55.6521 46.7208L54.0356 44.4754L50.9492 46.6973L52.5657 48.9427L55.6521 46.7208Z" fill="white" stroke="black" stroke-linejoin="round"/>
<path d="M208.384 51.039L203.305 34.5985L174.089 43.6254L179.169 60.0659L208.384 51.039Z" fill="white" stroke="black" stroke-linejoin="round"/>
<path d="M203.766 43.8138L179.314 51.3716" stroke="black" stroke-linejoin="round"/>
<path d="M201.513 42.9454L201.708 42.6355C202.034 42.12 201.879 41.4384 201.364 41.1131L197.85 38.896C197.334 38.5707 196.653 38.7249 196.328 39.2405L196.132 39.5503C195.807 40.0658 195.961 40.7475 196.477 41.0728L199.99 43.2899C200.506 43.6152 201.188 43.4609 201.513 42.9454Z" fill="white" stroke="black" stroke-linejoin="round"/>
<path d="M195.676 44.7328L195.872 44.423C196.197 43.9075 196.043 43.2258 195.528 42.9005L192.014 40.6828C191.499 40.3574 190.817 40.5115 190.492 41.027L190.296 41.3368C189.971 41.8523 190.125 42.534 190.64 42.8593L194.154 45.077C194.669 45.4024 195.351 45.2483 195.676 44.7328Z" fill="white" stroke="black" stroke-linejoin="round"/>
<path d="M189.855 46.5325L190.051 46.2227C190.376 45.7072 190.222 45.0255 189.707 44.7002L186.193 42.4825C185.678 42.1571 184.996 42.3112 184.671 42.8267L184.475 43.1365C184.15 43.652 184.304 44.3336 184.819 44.659L188.333 46.8767C188.848 47.2021 189.53 47.048 189.855 46.5325Z" fill="white" stroke="black" stroke-linejoin="round"/>
<path d="M184.043 48.3362L184.239 48.0264C184.564 47.5108 184.41 46.8292 183.894 46.5039L180.38 44.2868C179.865 43.9615 179.183 44.1158 178.858 44.6313L178.662 44.9411C178.337 45.4567 178.491 46.1383 179.007 46.4636L182.521 48.6807C183.036 49.006 183.718 48.8518 184.043 48.3362Z" fill="white" stroke="black" stroke-linejoin="round"/>
<path d="M203.874 50.5867L204.069 50.2769C204.394 49.7614 204.24 49.0797 203.725 48.7544L200.211 46.5367C199.696 46.2113 199.014 46.3654 198.689 46.8809L198.493 47.1907C198.168 47.7062 198.322 48.3878 198.837 48.7132L202.351 50.9309C202.866 51.2563 203.548 51.1022 203.874 50.5867Z" fill="white" stroke="black" stroke-linejoin="round"/>
<path d="M198.038 52.3719L198.234 52.0622C198.559 51.5467 198.405 50.865 197.889 50.5396L194.376 48.3219C193.86 47.9965 193.179 48.1506 192.853 48.6661L192.658 48.9759C192.332 49.4914 192.487 50.1731 193.002 50.4985L196.516 52.7162C197.031 53.0416 197.713 52.8874 198.038 52.3719Z" fill="white" stroke="black" stroke-linejoin="round"/>
<path d="M192.213 54.169L192.409 53.8593C192.734 53.3438 192.58 52.6621 192.065 52.3367L188.551 50.119C188.036 49.7936 187.354 49.9478 187.029 50.4633L186.833 50.773C186.508 51.2885 186.662 51.9702 187.177 52.2956L190.691 54.5133C191.206 54.8387 191.888 54.6845 192.213 54.169Z" fill="white" stroke="black" stroke-linejoin="round"/>
<path d="M186.393 55.9687L186.588 55.6589C186.913 55.1434 186.759 54.4618 186.244 54.1364L182.73 51.9187C182.215 51.5933 181.533 51.7474 181.208 52.2629L181.012 52.5727C180.687 53.0882 180.841 53.7699 181.357 54.0953L184.87 56.313C185.386 56.6383 186.067 56.4842 186.393 55.9687Z" fill="white" stroke="black" stroke-linejoin="round"/>
<path d="M191.904 97.364L188.814 100.198L184.891 94.6696L186.742 92.973L191.904 97.364Z" fill="white" stroke="black" stroke-linejoin="round"/>
<path d="M190.39 97.1953L189.012 98.4629C188.694 98.7563 188.437 99.1095 188.257 99.5022C188.076 99.895 187.974 100.32 187.957 100.752C187.941 101.184 188.01 101.615 188.16 102.02C188.31 102.426 188.539 102.797 188.833 103.114L210.408 126.38L212.745 130.583L221.831 121.464L217.628 119.131L194.878 97.229C194.273 96.6558 193.474 96.3336 192.641 96.3273C191.808 96.321 191.003 96.6313 190.39 97.1953Z" fill="white" stroke="black" stroke-linejoin="round"/>
<path d="M206.98 122.703L211.246 117.7L194.95 101.856L191.017 105.491L206.98 122.703Z" fill="white" stroke="black" stroke-linejoin="round"/>
<path d="M205.891 189.551H194.106V212.803H205.891V189.551Z" fill="white" stroke="#263238" stroke-linejoin="round"/>
<path d="M203.708 196.699H196.285V205.655H203.708V196.699Z" fill="white" stroke="#263238" stroke-linejoin="round"/>
<path d="M203.269 183.493H196.724V189.465H203.269V183.493Z" fill="white" stroke="#263238" stroke-linejoin="round"/>
<path d="M201.033 174.041H198.96L198.271 183.531H201.727L201.033 174.041Z" fill="white" stroke="#263238" stroke-linejoin="round"/>
<path d="M203.269 186.37H196.724V189.465H203.269V186.37Z" fill="white" stroke="#263238" stroke-linejoin="round"/>
<path d="M186.11 196.897H168.541V212.803H186.11V196.897Z" fill="white" stroke="#263238" stroke-linejoin="round"/>
<path d="M186.11 203.471H168.541V212.803H186.11V203.471Z" fill="white" stroke="#263238" stroke-linejoin="round"/>
<path d="M182.746 205.144H168.541V211.135H182.746V205.144Z" fill="white" stroke="#263238" stroke-linejoin="round"/>
<path d="M60.9874 185.339H43.4185V212.803H60.9874V185.339Z" fill="white" stroke="#263238" stroke-linejoin="round"/>
<path d="M52.0942 185.604V212.658" stroke="#263238" stroke-linejoin="round"/>
<path d="M49.4001 187.922H44.7681V195.249H49.4001V187.922Z" stroke="#263238" stroke-linejoin="round"/>
<path d="M48.605 189.185H45.5684V193.986H48.605V189.185Z" stroke="#263238" stroke-linejoin="round"/>
<path d="M59.2668 187.922H54.6348V195.249H59.2668V187.922Z" stroke="#263238" stroke-linejoin="round"/>
<path d="M58.4712 189.185H55.4346V193.986H58.4712V189.185Z" stroke="#263238" stroke-linejoin="round"/>
<path d="M54.6444 189.754H49.3906V193.128H54.6444V189.754Z" stroke="#263238" stroke-linejoin="round"/>
<path d="M49.4001 200.406H44.7681V207.732H49.4001V200.406Z" stroke="#263238" stroke-linejoin="round"/>
<path d="M48.605 201.669H45.5684V206.469H48.605V201.669Z" stroke="#263238" stroke-linejoin="round"/>
<path d="M59.2668 200.406H54.6348V207.732H59.2668V200.406Z" stroke="#263238" stroke-linejoin="round"/>
<path d="M58.4712 201.669H55.4346V206.469H58.4712V201.669Z" stroke="#263238" stroke-linejoin="round"/>
<path d="M54.6444 202.238H49.3906V205.612H54.6444V202.238Z" stroke="#263238" stroke-linejoin="round"/>
<path d="M152.62 152.249H83.6655V212.808H152.62V152.249Z" fill="#263238" stroke="#263238" stroke-linejoin="round"/>
<path d="M152.62 170.657H83.6655V212.803H152.62V170.657Z" fill="#0077B6" stroke="#263238" stroke-linejoin="round"/>
<path d="M129.379 187.238H122.703V180.663H113.583V187.238H106.908V196.222H113.583V202.802H122.703V196.222H129.379V187.238Z" fill="white" stroke="#263238" stroke-linejoin="round"/>
<path d="M152.519 149.02H83.8003V155.117H152.519V149.02Z" fill="#0077B6" stroke="#263238" stroke-linejoin="round"/>
<path d="M19.9453 212.803H221.47" stroke="#263238" stroke-linejoin="round"/>
</svg>
