<svg width="51" height="50" viewBox="0 0 51 50" fill="none" xmlns="http://www.w3.org/2000/svg">
<path d="M40.8164 15.868L32.5689 8.44531C30.2192 6.33057 29.0444 5.27321 27.6029 4.72004L27.5837 10.4169C27.5837 15.3273 27.5837 17.7826 29.1091 19.3081C30.6346 20.8335 33.0899 20.8335 38.0003 20.8335H45.4588C44.7035 19.3664 43.3511 18.1492 40.8164 15.868Z" fill="#AEC6D3"/>
<path fill-rule="evenodd" clip-rule="evenodd" d="M29.667 45.8333H21.3337C13.4769 45.8333 9.54855 45.8333 7.10777 43.3925C4.66699 40.9518 4.66699 37.0234 4.66699 29.1667V20.8333C4.66699 12.9766 4.66699 9.04821 7.10777 6.60743C9.54855 4.16666 13.4976 4.16666 21.3957 4.16666C22.6582 4.16666 23.6699 4.16666 24.5212 4.20137C24.4932 4.36789 24.4785 4.53776 24.4779 4.7095L24.4586 10.6145C24.4585 12.9001 24.4583 14.9201 24.6772 16.5482C24.9145 18.3131 25.4593 20.0776 26.8994 21.5178C28.3396 22.9579 30.1041 23.5027 31.869 23.74C33.4971 23.9589 35.5171 23.9587 37.8027 23.9586L38.0003 23.9585H46.2449C46.3337 25.0716 46.3337 26.4377 46.3337 28.256V29.1667C46.3337 37.0234 46.3337 40.9518 43.8929 43.3925C41.4521 45.8333 37.5237 45.8333 29.667 45.8333ZM22.3717 30.0822C23.0167 30.6555 23.0748 31.6431 22.5015 32.2881L16.9459 38.5381C16.6494 38.8716 16.2244 39.0625 15.7781 39.0625C15.3318 39.0625 14.9068 38.8716 14.6103 38.5381L11.8325 35.4131C11.2592 34.7681 11.3173 33.7805 11.9623 33.2072C12.6072 32.6339 13.5948 32.6919 14.1682 33.3369L15.7781 35.1481L20.1658 30.2119C20.7391 29.5669 21.7268 29.5089 22.3717 30.0822Z" fill="#AEC6D3"/>
</svg>
