<svg width="51" height="50" viewBox="0 0 51 50" fill="none" xmlns="http://www.w3.org/2000/svg">
<path d="M40.8159 15.868L32.5685 8.44532C30.2188 6.33059 29.0439 5.27322 27.6024 4.72006L27.5832 10.4169C27.5832 15.3274 27.5832 17.7826 29.1087 19.3081C30.6341 20.8336 33.0894 20.8336 37.9998 20.8336H45.4584C44.703 19.3664 43.3506 18.1493 40.8159 15.868Z" fill="#AEC6D3"/>
<path fill-rule="evenodd" clip-rule="evenodd" d="M29.6665 45.8333H21.3332C13.4764 45.8333 9.54806 45.8333 7.10728 43.3926C4.6665 40.9518 4.6665 37.0234 4.6665 29.1667V20.8333C4.6665 12.9766 4.6665 9.04822 7.10728 6.60745C9.54806 4.16667 13.4971 4.16667 21.3952 4.16667C22.6577 4.16667 23.6694 4.16667 24.5207 4.20138C24.4927 4.36791 24.478 4.53777 24.4774 4.70952L24.4582 10.6145C24.458 12.9002 24.4578 14.9201 24.6767 16.5482C24.914 18.3131 25.4588 20.0776 26.8989 21.5178C28.3391 22.9579 30.1036 23.5027 31.8685 23.74C33.4966 23.9589 35.5166 23.9587 37.8022 23.9586L37.9998 23.9586H46.2444C46.3332 25.0716 46.3332 26.4377 46.3332 28.256V29.1667C46.3332 37.0234 46.3332 40.9518 43.8924 43.3926C41.4516 45.8333 37.5232 45.8333 29.6665 45.8333ZM22.3712 30.0822C23.0162 30.6555 23.0743 31.6431 22.501 32.2881L16.9454 38.5381C16.6489 38.8716 16.2239 39.0625 15.7776 39.0625C15.3313 39.0625 14.9063 38.8716 14.6098 38.5381L11.832 35.4131C11.2587 34.7681 11.3168 33.7805 11.9618 33.2072C12.6067 32.6339 13.5944 32.692 14.1677 33.3369L15.7776 35.1481L20.1653 30.2119C20.7387 29.567 21.7263 29.5089 22.3712 30.0822Z" fill="#0077B6"/>
</svg>
