<svg width="51" height="50" viewBox="0 0 51 50" fill="none" xmlns="http://www.w3.org/2000/svg">
<path fill-rule="evenodd" clip-rule="evenodd" d="M6.75 14.0625C6.75 13.1996 7.44956 12.5 8.3125 12.5H43.7292C44.5921 12.5 45.2917 13.1996 45.2917 14.0625C45.2917 14.9254 44.5921 15.625 43.7292 15.625H8.3125C7.44956 15.625 6.75 14.9254 6.75 14.0625ZM44.6902 23.2471C45.3706 23.7779 45.4919 24.7597 44.9612 25.4402L36.8362 35.8568C36.5462 36.2286 36.1039 36.4495 35.6325 36.4581C35.1611 36.4666 34.711 36.2618 34.4078 35.9008L30.0328 30.6925C29.4777 30.0317 29.5634 29.0461 30.2242 28.4911C30.8849 27.936 31.8705 28.0217 32.4256 28.6825L35.5592 32.413L42.4971 23.5182C43.0279 22.8377 44.0097 22.7164 44.6902 23.2471ZM6.75 24.4792C6.75 23.6162 7.44956 22.9167 8.3125 22.9167H22.8958C23.7588 22.9167 24.4583 23.6162 24.4583 24.4792C24.4583 25.3421 23.7588 26.0417 22.8958 26.0417H8.3125C7.44956 26.0417 6.75 25.3421 6.75 24.4792ZM6.75 34.8958C6.75 34.0329 7.44956 33.3333 8.3125 33.3333H22.8958C23.7588 33.3333 24.4583 34.0329 24.4583 34.8958C24.4583 35.7588 23.7588 36.4583 22.8958 36.4583H8.3125C7.44956 36.4583 6.75 35.7588 6.75 34.8958Z" fill="#0077B6"/>
</svg>
