<svg width="114" height="114" viewBox="0 0 114 114" fill="none" xmlns="http://www.w3.org/2000/svg">
<path fill-rule="evenodd" clip-rule="evenodd" d="M74.2647 10.0906C75.8184 6.13648 81.4041 6.13647 82.9579 10.0906L84.9908 15.2643L90.1429 17.3038C94.0824 18.8632 94.0824 24.4489 90.1429 26.0084L84.9908 28.0478L82.9579 33.2216C81.4041 37.1756 75.8184 37.1757 74.2647 33.2216L72.2317 28.0478L67.0796 26.0084C63.1401 24.4489 63.1401 18.8632 67.0796 17.3038L72.2317 15.2643L74.2647 10.0906ZM78.6113 12.017L80.5812 17.0303C81.0545 18.2348 82.0057 19.1913 83.2112 19.6685L88.2323 21.6561L83.2112 23.6437C82.0057 24.1209 81.0545 25.0773 80.5812 26.2818L78.6113 31.2952L76.6413 26.2818C76.168 25.0773 75.2168 24.1209 74.0114 23.6437L68.9903 21.6561L74.0114 19.6685C75.2168 19.1913 76.168 18.2348 76.6413 17.0303L78.6113 12.017Z" fill="#0077B6"/>
<path fill-rule="evenodd" clip-rule="evenodd" d="M15.7424 15.7424C22.4823 9.00252 33.4099 9.00252 40.1498 15.7424L98.2576 73.8502C104.997 80.5901 104.997 91.5176 98.2576 98.2576C91.5176 104.997 80.5901 104.997 73.8502 98.2576L15.7424 40.1498C9.00252 33.4099 9.00252 22.4823 15.7424 15.7424ZM35.1117 20.7806C31.1543 16.8231 24.738 16.8231 20.7806 20.7806C16.8231 24.738 16.8231 31.1543 20.7806 35.1117L28.3154 42.6465L42.6465 28.3154L35.1117 20.7806ZM78.8883 93.2194L33.3535 47.6846L47.6846 33.3535L93.2194 78.8883C97.1768 82.8457 97.1768 89.262 93.2194 93.2194C89.262 97.1768 82.8457 97.1768 78.8883 93.2194Z" fill="#0077B6"/>
<path fill-rule="evenodd" clip-rule="evenodd" d="M101.327 42.4963C99.7731 38.5422 94.1874 38.5422 92.6336 42.4963L91.8996 44.3644L90.041 45.1001C86.1015 46.6595 86.1016 52.2452 90.041 53.8047L91.8996 54.5404L92.6336 56.4084C94.1874 60.3625 99.7731 60.3625 101.327 56.4084L102.061 54.5404L103.919 53.8047C107.859 52.2452 107.859 46.6595 103.919 45.1001L102.061 44.3644L101.327 42.4963ZM96.9802 44.4227L96.3092 46.1304C95.8359 47.3349 94.8847 48.2913 93.6793 48.7685L91.9517 49.4524L93.6793 50.1362C94.8847 50.6134 95.8359 51.5698 96.3092 52.7743L96.9802 54.482L97.6512 52.7743C98.1245 51.5698 99.0757 50.6134 100.281 50.1362L102.009 49.4524L100.281 48.7685C99.0757 48.2913 98.1245 47.3349 97.6512 46.1304L96.9802 44.4227Z" fill="#0077B6"/>
<path fill-rule="evenodd" clip-rule="evenodd" d="M22.1722 71.8406C23.7259 67.8865 29.3117 67.8865 30.8654 71.8406L31.5994 73.7086L33.458 74.4443C37.3975 76.0038 37.3975 81.5894 33.458 83.1489L31.5994 83.8846L30.8654 85.7526C29.3117 89.7067 23.7259 89.7067 22.1722 85.7526L21.4382 83.8846L19.5796 83.1489C15.6401 81.5894 15.6401 76.0038 19.5796 74.4443L21.4382 73.7086L22.1722 71.8406ZM25.8478 75.4746L26.5188 73.767L27.1898 75.4746C27.6631 76.6791 28.6143 77.6356 29.8198 78.1127L31.5473 78.7966L29.8198 79.4805C28.6143 79.9576 27.6631 80.9141 27.1898 82.1186L26.5188 83.8262L25.8478 82.1186C25.3745 80.9141 24.4233 79.9576 23.2178 79.4805L21.4903 78.7966L23.2178 78.1127C24.4233 77.6356 25.3745 76.6791 25.8478 75.4746Z" fill="#0077B6"/>
</svg>
