<svg width="114" height="114" viewBox="0 0 114 114" fill="none" xmlns="http://www.w3.org/2000/svg">
<path fill-rule="evenodd" clip-rule="evenodd" d="M37.7394 5.9375H76.2607C82.7567 5.9374 87.9927 5.93733 92.1108 6.49099C96.3863 7.06582 99.9863 8.29556 102.845 11.1547C105.704 14.0138 106.934 17.6137 107.509 21.8892C108.063 26.0073 108.063 31.2433 108.063 37.7394V57.2606C108.063 63.7567 108.063 68.9927 107.509 73.1108C106.934 77.3863 105.704 80.9862 102.845 83.8453C100.48 86.2104 97.5976 87.4691 94.2215 88.1566C90.9431 88.8242 86.9884 88.9923 82.3062 89.042L82.2794 89.0423L81.2134 89.0455C80.754 90.4905 80.0066 91.8648 78.971 93.0801C78.3484 93.8106 77.9721 94.719 77.8957 95.6759C77.4392 101.397 72.8966 105.939 67.1759 106.396C66.2191 106.472 65.3107 106.848 64.5801 107.471C60.2122 111.193 53.7879 111.193 49.4199 107.471C48.6893 106.848 47.781 106.472 46.8241 106.396C41.1035 105.939 36.5608 101.397 36.1043 95.6759C36.0279 94.719 35.6517 93.8106 35.0291 93.0801C33.9949 91.8665 33.2481 90.4943 32.7885 89.0515C27.847 89.0181 23.7106 88.8841 20.3127 88.26C16.7122 87.5986 13.6481 86.3387 11.1547 83.8453C8.29556 80.9862 7.06582 77.3863 6.49099 73.1108C5.93733 68.9927 5.9374 63.7567 5.9375 57.2607V37.7393C5.9374 31.2433 5.93733 26.0073 6.49099 21.8892C7.06582 17.6137 8.29556 14.0138 11.1547 11.1547C14.0138 8.29556 17.6137 7.06582 21.8892 6.49099C26.0073 5.93733 31.2433 5.9374 37.7394 5.9375ZM32.7956 81.9263C33.2557 80.4916 34.0002 79.1272 35.0291 77.9199C35.6517 77.1893 36.0279 76.281 36.1043 75.3241C36.5608 69.6035 41.1035 65.0608 46.8241 64.6043C47.781 64.5279 48.6894 64.1516 49.4199 63.529C53.7879 59.8067 60.2122 59.8067 64.5801 63.529C65.3107 64.1516 66.219 64.5279 67.1759 64.6043C72.8966 65.0608 77.4392 69.6034 77.8957 75.3241C77.9721 76.281 78.3484 77.1893 78.971 77.9199C79.9984 79.1256 80.7423 80.4879 81.2025 81.9205L82.2436 81.9173C86.9237 81.8673 90.2606 81.692 92.7998 81.1749C95.2437 80.6772 96.7055 79.9089 97.8072 78.8072C99.1218 77.4926 99.979 75.6469 100.448 72.1614C100.93 68.5735 100.938 63.8182 100.938 57V38C100.938 31.1818 100.93 26.4265 100.448 22.8386C99.979 19.3531 99.1218 17.5074 97.8072 16.1928C96.4926 14.8782 94.6469 14.0211 91.1614 13.5525C87.5735 13.0701 82.8182 13.0625 76 13.0625H38C31.1818 13.0625 26.4265 13.0701 22.8386 13.5525C19.3531 14.0211 17.5074 14.8782 16.1928 16.1928C14.8782 17.5074 14.0211 19.3531 13.5525 22.8386C13.0701 26.4265 13.0625 31.1818 13.0625 38V57C13.0625 63.8182 13.0701 68.5735 13.5525 72.1614C14.0211 75.6469 14.8782 77.4926 16.1928 78.8072C17.3492 79.9636 18.9076 80.7577 21.5999 81.2522C24.3083 81.7497 27.8505 81.8917 32.7956 81.9263ZM39.1875 28.5C39.1875 26.5325 40.7825 24.9375 42.75 24.9375H71.25C73.2175 24.9375 74.8125 26.5325 74.8125 28.5C74.8125 30.4675 73.2175 32.0625 71.25 32.0625H42.75C40.7825 32.0625 39.1875 30.4675 39.1875 28.5ZM29.6875 45.125C29.6875 43.1575 31.2825 41.5625 33.25 41.5625H80.75C82.7175 41.5625 84.3125 43.1575 84.3125 45.125C84.3125 47.0925 82.7175 48.6875 80.75 48.6875H33.25C31.2825 48.6875 29.6875 47.0925 29.6875 45.125ZM59.9587 68.952C58.2538 67.4991 55.7462 67.4991 54.0413 68.952C52.1696 70.5471 49.8423 71.5111 47.3909 71.7067C45.158 71.8849 43.3849 73.658 43.2067 75.8909C43.0111 78.3423 42.0471 80.6696 40.452 82.5413C38.9991 84.2462 38.9991 86.7538 40.452 88.4587C42.0471 90.3304 43.0111 92.6577 43.2067 95.1091C43.3849 97.342 45.158 99.1151 47.3909 99.2933C49.8423 99.4889 52.1696 100.453 54.0413 102.048C55.7462 103.501 58.2538 103.501 59.9587 102.048C61.8304 100.453 64.1577 99.4889 66.6091 99.2933C68.842 99.1151 70.6151 97.342 70.7933 95.1091C70.9889 92.6577 71.9529 90.3304 73.548 88.4587C75.0009 86.7538 75.0009 84.2462 73.548 82.5413C71.9529 80.6696 70.9889 78.3423 70.7933 75.8909C70.6151 73.658 68.842 71.8849 66.6091 71.7067C64.1577 71.5111 61.8304 70.5471 59.9587 68.952ZM61.6943 78.1456C63.1326 76.8031 65.3869 76.8809 66.7294 78.3192C68.0719 79.7576 67.9941 82.0119 66.5558 83.3544L56.3772 92.8544C55.0085 94.1319 52.8844 94.1319 51.5157 92.8544L47.4442 89.0544C46.0059 87.7119 45.9282 85.4576 47.2706 84.0192C48.6131 82.5809 50.8674 82.5031 52.3058 83.8456L53.9464 85.3769L61.6943 78.1456Z" fill="#0077B6"/>
</svg>
