<svg width="114" height="114" viewBox="0 0 114 114" fill="none" xmlns="http://www.w3.org/2000/svg">
<path fill-rule="evenodd" clip-rule="evenodd" d="M10.6875 28.5C10.6875 26.5325 12.2825 24.9375 14.25 24.9375H95C96.9675 24.9375 98.5625 26.5325 98.5625 28.5C98.5625 30.4675 96.9675 32.0625 95 32.0625H14.25C12.2825 32.0625 10.6875 30.4675 10.6875 28.5ZM97.191 49.441C98.7424 50.651 99.0191 52.8897 97.809 54.441L79.284 78.1911C78.6229 79.0387 77.6143 79.5424 76.5395 79.5619C75.4647 79.5814 74.4386 79.1145 73.7472 78.2914L63.7722 66.4164C62.5067 64.9098 62.7021 62.6627 64.2086 61.3972C65.7152 60.1317 67.9623 60.3271 69.2278 61.8336L76.3724 70.3391L92.191 50.059C93.401 48.5076 95.6397 48.2309 97.191 49.441ZM10.6875 52.25C10.6875 50.2825 12.2825 48.6875 14.25 48.6875H47.5C49.4675 48.6875 51.0625 50.2825 51.0625 52.25C51.0625 54.2175 49.4675 55.8125 47.5 55.8125H14.25C12.2825 55.8125 10.6875 54.2175 10.6875 52.25ZM10.6875 76C10.6875 74.0325 12.2825 72.4375 14.25 72.4375H47.5C49.4675 72.4375 51.0625 74.0325 51.0625 76C51.0625 77.9675 49.4675 79.5625 47.5 79.5625H14.25C12.2825 79.5625 10.6875 77.9675 10.6875 76Z" fill="#0077B6"/>
</svg>
