<svg width="114" height="114" viewBox="0 0 114 114" fill="none" xmlns="http://www.w3.org/2000/svg">
<path d="M93.7061 60.8859C93.229 58.9771 91.2947 57.8166 89.386 58.2938L70.386 63.0438C68.4772 63.521 67.3167 65.4552 67.7939 67.364C68.2711 69.2727 70.2053 70.4333 72.114 69.9561L91.114 65.2061C93.0228 64.7289 94.1833 62.7947 93.7061 60.8859Z" fill="#0077B6"/>
<path d="M93.8125 26.1249C93.8125 24.1574 92.2175 22.5624 90.25 22.5624C88.2825 22.5624 86.6875 24.1574 86.6875 26.1249V42.4582L83.1283 40.7675L83.0864 40.7465C82.8536 40.6274 81.8727 40.1259 80.75 40.1259C79.6274 40.1259 78.6464 40.6274 78.4136 40.7465L78.3718 40.7675L74.8125 42.4582V33.0125C74.8125 31.045 73.2175 29.45 71.25 29.45C69.2825 29.45 67.6875 31.045 67.6875 33.0125L67.6874 45.3016C67.6866 45.8299 67.6855 46.5831 67.7866 47.2297C67.9101 48.0201 68.3166 49.5462 69.8968 50.474C71.4186 51.3675 72.907 51.0357 73.6145 50.8157C74.2312 50.624 74.9075 50.3019 75.4118 50.0617L80.75 47.5258L86.0882 50.0616C86.5924 50.3018 87.2688 50.624 87.8856 50.8157C88.593 51.0357 90.0814 51.3675 91.6032 50.474C93.1834 49.5462 93.5899 48.0201 93.7134 47.2297C93.8145 46.5831 93.8134 45.8299 93.8126 45.3016L93.8125 26.1249Z" fill="#0077B6"/>
<path d="M20.2939 41.8859C20.7711 39.9771 22.7053 38.8166 24.614 39.2938L43.614 44.0438C45.5228 44.521 46.6833 46.4552 46.2061 48.364C45.7289 50.2727 43.7947 51.4333 41.886 50.9561L22.886 46.2061C20.9772 45.7289 19.8167 43.7947 20.2939 41.8859Z" fill="#0077B6"/>
<path d="M24.614 58.2938C22.7053 57.8166 20.7711 58.9771 20.2939 60.8859C19.8167 62.7947 20.9772 64.7289 22.886 65.2061L41.886 69.9561C43.7947 70.4333 45.7289 69.2727 46.2061 67.364C46.6833 65.4552 45.5228 63.521 43.614 63.0438L24.614 58.2938Z" fill="#0077B6"/>
<path fill-rule="evenodd" clip-rule="evenodd" d="M108.063 23.4326C108.063 16.4819 102.527 10.5209 95.2654 10.7739C89.8583 10.9622 82.7904 11.5247 77.3533 13.1524C72.6268 14.5674 67.3106 17.3312 63.1663 19.7296C59.2804 21.9786 54.4429 22.0908 50.506 20.009C45.7775 17.5087 39.5564 14.545 34.159 13.1207C29.5951 11.9164 23.8221 11.3379 19.135 11.0499C11.7333 10.5949 5.9375 16.6185 5.9375 23.7395V76.6819C5.9375 83.979 11.8455 89.6759 18.8482 90.1139C23.4023 90.3987 28.5269 90.9465 32.341 91.953C37.0557 93.1971 42.8859 95.9633 47.5932 98.4726C53.4514 101.595 60.5486 101.595 66.4068 98.4726C71.1142 95.9633 76.9443 93.1971 81.659 91.953C85.4731 90.9465 90.5977 90.3987 95.1518 90.1139C102.155 89.6759 108.063 83.979 108.063 76.6819V23.4326ZM95.5134 17.8946C98.4336 17.7928 100.938 20.195 100.938 23.4326V76.6819C100.938 79.9392 98.238 82.7819 94.707 83.0028C90.0517 83.2939 84.3556 83.8725 79.841 85.0638C74.2819 86.5308 67.843 89.633 63.0552 92.1851C62.2561 92.6111 61.4199 92.9466 60.5625 93.1917V28.2246C62.711 27.7945 64.7999 27.0164 66.7352 25.8964C70.7749 23.5584 75.5007 21.1445 79.3967 19.9781C83.9052 18.6284 90.1989 18.0797 95.5134 17.8946ZM53.4375 28.3811C51.2762 28.045 49.1577 27.3559 47.1754 26.3077C42.5356 23.8542 36.9111 21.2158 32.341 20.0099C28.483 18.9918 23.2863 18.4434 18.6979 18.1614C15.6865 17.9764 13.0625 20.4279 13.0625 23.7395V76.6819C13.0625 79.9392 15.762 82.7819 19.293 83.0028C23.9484 83.2939 29.6444 83.8725 34.159 85.0638C39.7181 86.5308 46.157 89.633 50.9448 92.1851C51.7439 92.6111 52.5801 92.9466 53.4375 93.1917V28.3811Z" fill="#0077B6"/>
</svg>
