<svg width="114" height="114" viewBox="0 0 114 114" fill="none" xmlns="http://www.w3.org/2000/svg">
<path fill-rule="evenodd" clip-rule="evenodd" d="M57 5.9375C58.9675 5.9375 60.5625 7.53249 60.5625 9.5V10.6943C61.0909 10.7023 61.5414 10.7195 61.9619 10.7567C70.5601 11.5171 77.3758 18.3328 78.1361 26.931C78.2057 27.7168 78.2056 28.6072 78.2054 29.9148L78.2054 35.7248C78.2054 54.1038 64.2211 69.2167 46.3125 71.0034V80.7503C46.3125 91.8995 55.3508 100.938 66.5 100.938H70.6912C76.6294 100.938 81.8175 97.7001 84.5772 92.8901C77.521 90.5211 72.4375 83.8542 72.4375 76C72.4375 66.1624 80.4125 58.1875 90.25 58.1875C100.088 58.1875 108.063 66.1624 108.063 76C108.063 85.2173 101.062 92.7994 92.0871 93.7189C88.6312 102.134 80.3575 108.063 70.6912 108.063H66.5C51.4157 108.063 39.1875 95.8346 39.1875 80.7503V71.01C20.5281 69.2182 5.93753 53.4968 5.93753 34.3676L5.93751 29.9151C5.93737 28.6073 5.93727 27.7169 6.00677 26.931C6.76709 18.3328 13.5828 11.5171 22.181 10.7567C22.9205 10.6913 23.7524 10.6876 24.9375 10.6875V9.5C24.9375 7.53249 26.5325 5.9375 28.5 5.9375C30.4675 5.9375 32.0625 7.53249 32.0625 9.5V19C32.0625 20.9675 30.4675 22.5625 28.5 22.5625C26.5325 22.5625 24.9375 20.9675 24.9375 19V17.8126C23.6863 17.8135 23.1987 17.8196 22.8086 17.854C17.6497 18.3102 13.5603 22.3997 13.1041 27.5586C13.066 27.9889 13.0625 28.5381 13.0625 30.1003V34.3676C13.0625 50.7636 26.3541 64.0551 42.75 64.0551C58.3965 64.0551 71.0804 51.3712 71.0804 35.7248V30.1003C71.0804 28.5381 71.0769 27.9889 71.0388 27.5586C70.5826 22.3997 66.4932 18.3102 61.3343 17.854C61.1333 17.8363 60.9064 17.826 60.5625 17.8202V19C60.5625 20.9675 58.9675 22.5625 57 22.5625C55.0325 22.5625 53.4375 20.9675 53.4375 19V9.5C53.4375 7.53249 55.0325 5.9375 57 5.9375ZM79.5625 76C79.5625 70.0975 84.3475 65.3125 90.25 65.3125C96.1526 65.3125 100.938 70.0975 100.938 76C100.938 81.9025 96.1526 86.6875 90.25 86.6875C84.3475 86.6875 79.5625 81.9025 79.5625 76Z" fill="#0077B6"/>
</svg>
