<svg width="106" height="106" viewBox="0 0 106 106" fill="none" xmlns="http://www.w3.org/2000/svg">
<path d="M13 70.5C7.47713 70.5 3 66.023 3 60.5C3 54.977 7.47713 50.5 13 50.5" stroke="#0077B6" stroke-width="6" stroke-linecap="round" stroke-linejoin="round"/>
<path d="M93.0002 70.5C98.5232 70.5 103 66.023 103 60.5C103 54.977 98.5232 50.5 93.0002 50.5" stroke="#0077B6" stroke-width="6" stroke-linecap="round" stroke-linejoin="round"/>
<path d="M28 28V13" stroke="#0077B6" stroke-width="6" stroke-linejoin="round"/>
<path d="M77.9988 28V13" stroke="#0077B6" stroke-width="6" stroke-linejoin="round"/>
<path d="M28 13C30.7614 13 33 10.7614 33 8C33 5.23858 30.7614 3 28 3C25.2386 3 23 5.23858 23 8C23 10.7614 25.2386 13 28 13Z" stroke="#0077B6" stroke-width="6" stroke-linejoin="round"/>
<path d="M77.999 13C80.7604 13 82.999 10.7614 82.999 8C82.999 5.23858 80.7604 3 77.999 3C75.2376 3 72.999 5.23858 72.999 8C72.999 10.7614 75.2376 13 77.999 13Z" stroke="#0077B6" stroke-width="6" stroke-linejoin="round"/>
<path d="M60.4998 28H45.4999C31.3578 28 24.2868 28 19.8934 32.5449C15.5 37.0898 15.5 44.4045 15.5 59.0345C15.5 73.6645 15.5 80.979 19.8934 85.524C24.2868 90.069 31.3578 90.069 45.4999 90.069H50.6263C54.5843 90.069 55.9808 90.8865 58.7083 93.8565C61.7248 97.1415 66.3953 101.525 70.6208 102.546C76.6267 103.997 77.2992 101.99 75.9592 96.2655C75.5777 94.635 74.6257 92.028 75.6297 90.509C76.1922 89.658 77.1292 89.449 79.0037 89.0305C81.9607 88.37 84.3987 87.2905 86.1062 85.524C90.4997 80.979 90.4997 73.6645 90.4997 59.0345C90.4997 44.4045 90.4997 37.0898 86.1062 32.5449C81.7127 28 74.6417 28 60.4998 28Z" stroke="#0077B6" stroke-width="6" stroke-linejoin="round"/>
<path d="M40.5 68C43.3505 71.036 47.8885 73 52.9999 73C58.1114 73 62.6494 71.036 65.4999 68" stroke="#0077B6" stroke-width="6" stroke-linecap="round" stroke-linejoin="round"/>
<path d="M38.0443 48H37.9995" stroke="#0077B6" stroke-width="6" stroke-linecap="round" stroke-linejoin="round"/>
<path d="M68.045 48H68" stroke="#0077B6" stroke-width="6" stroke-linecap="round" stroke-linejoin="round"/>
</svg>
