<svg width="79" height="79" viewBox="0 0 79 79" fill="none" xmlns="http://www.w3.org/2000/svg">
<rect width="79" height="79" rx="39.5" fill="#CAF0F8"/>
<path d="M28.1 31.7249C30.1 31.7249 31.7 30.0999 31.7 28.1249C31.7 26.1499 30.075 24.5249 28.1 24.5249C26.125 24.5249 24.5 26.1499 24.5 28.1249C24.5 30.0999 26.125 31.7249 28.1 31.7249ZM35.125 34.4499V54.4999H41.325V44.5999C41.325 41.9749 41.825 39.4499 45.05 39.4499C48.275 39.4499 48.275 42.4499 48.275 44.7499V54.4999H54.5V43.4999C54.5 38.0999 53.35 33.9499 47.05 33.9499C44.025 33.9499 42 35.5999 41.175 37.1749H41.1V34.4249H35.15L35.125 34.4499ZM25 34.4499H31.225V54.4999H25V34.4499Z" fill="#0077B6"/>
</svg>
