<svg width="79" height="79" viewBox="0 0 79 79" fill="none" xmlns="http://www.w3.org/2000/svg">
<rect width="79" height="79" rx="39.5" fill="#CAF0F8"/>
<path fill-rule="evenodd" clip-rule="evenodd" d="M23.6823 27.2656C21.5833 29.3646 21.5833 32.743 21.5833 39.4998C21.5833 46.2566 21.5833 49.635 23.6823 51.7341C25.7814 53.8332 29.1598 53.8332 35.9166 53.8332H43.0832C49.84 53.8332 53.2184 53.8332 55.3175 51.7341C57.4166 49.635 57.4166 46.2566 57.4166 39.4998C57.4166 32.743 57.4166 29.3646 55.3175 27.2656C53.2184 25.1665 49.84 25.1665 43.0832 25.1665H35.9166C29.1598 25.1665 25.7814 25.1665 23.6823 27.2656ZM51.2822 31.4729C51.7573 32.043 51.6803 32.8904 51.1102 33.3655L47.1748 36.6449C45.5867 37.9684 44.2996 39.041 43.1636 39.7717C41.9802 40.5328 40.8277 41.0136 39.4999 41.0136C38.1722 41.0136 37.0197 40.5328 35.8363 39.7717C34.7002 39.041 33.4131 37.9684 31.8251 36.645L27.8897 33.3655C27.3195 32.8904 27.2425 32.043 27.7176 31.4729C28.1927 30.9028 29.04 30.8258 29.6102 31.3009L33.4782 34.5242C35.1497 35.9172 36.3103 36.8812 37.29 37.5113C38.2385 38.1213 38.8817 38.3261 39.4999 38.3261C40.1182 38.3261 40.7614 38.1213 41.7098 37.5113C42.6896 36.8812 43.8501 35.9172 45.5216 34.5242L49.3897 31.3009C49.9598 30.8258 50.8071 30.9028 51.2822 31.4729Z" fill="#0077B6"/>
</svg>
