<svg width="79" height="79" viewBox="0 0 79 79" fill="none" xmlns="http://www.w3.org/2000/svg">
<rect width="79" height="79" rx="39.5" fill="#CAF0F8"/>
<path d="M35.6569 26.411L36.9278 28.6884C38.0748 30.7436 37.6144 33.4398 35.8079 35.2463C35.8079 35.2463 33.6166 37.4375 37.5896 41.4105C41.5625 45.3834 43.7538 43.1922 43.7538 43.1922C45.5603 41.3857 48.2564 40.9252 50.3117 42.0722L52.5891 43.3432C55.6925 45.0752 56.059 49.4274 53.3312 52.1553C51.692 53.7944 49.684 55.0698 47.4643 55.154C43.7275 55.2957 37.3815 54.3499 31.0158 47.9842C24.6501 41.6185 23.7044 35.2726 23.8461 31.5358C23.9302 29.316 25.2057 27.308 26.8448 25.6689C29.5726 22.941 33.9249 23.3076 35.6569 26.411Z" fill="#0077B6"/>
</svg>
